<?xml version="1.0" encoding="UTF-8"?>
<svg id="Layer_1" data-name="Layer 1" xmlns="http://www.w3.org/2000/svg" viewBox="0 0 1200 1200">
  <defs>
    <style>
      .cls-1 {
        fill: #fff;
      }

      .cls-2 {
        fill: #207178;
      }
    </style>
  </defs>
  <rect width="1200" height="1200"/>
  <rect class="cls-1" width="1200" height="1200"/>
  <path class="cls-2" d="m668.7,767.9h-148.53v-161.06h-113.84v161.11h-148.53v-148.65l205.4-189.27,205.44,189.27.06,148.61Zm-165.54,0h-79.82v-144.05h79.82v144.05Zm-39.95-361.06l-222.41,204.96v173.16h718.4v-173.16l-222.45-204.96-86.78,79.96-37.39-34.46,124.16-114.42,133.59,123.09v-61.13h71.72v127.18l49.08,45.23,11.52-12.54-43.63-40.18v-136.75h-105.74v39.34l-116.59-107.42-136.7,126.07-136.75-125.97-265.91,244.96,11.52,12.54,254.35-234.37,254.4,234.37,11.52-12.54-66.67-61.4,74.24-68.39,205.44,189.27v148.65l-256.43-.04v-156.1l-222.51-204.94Z"/>
</svg>