<?xml version="1.0" encoding="utf-8"?>
<!-- Generator: Adobe Illustrator 27.8.1, SVG Export Plug-In . SVG Version: 6.00 Build 0)  -->
<svg version="1.1" id="Layer_1" xmlns="http://www.w3.org/2000/svg" xmlns:xlink="http://www.w3.org/1999/xlink" x="0px" y="0px"
	 viewBox="0 0 1200 1200" style="enable-background:new 0 0 1200 1200;" xml:space="preserve">
<style type="text/css">
	.st0{display:none;}
	.st1{display:none;fill:#FFFFFF;}
	.st2{fill:#207178;}
</style>
<rect class="st0" width="1200" height="1200"/>
<rect class="st1" width="1200" height="1200"/>
<path class="st2" d="M668.7,767.9H520.2V606.8H406.3V768H257.8V619.3L463.2,430l205.4,189.3L668.7,767.9L668.7,767.9z M503.2,767.9
	h-79.8v-144h79.8V767.9z M463.2,406.8l-222.4,205V785h718.4V611.8l-222.5-205l-86.8,80l-37.4-34.5l124.2-114.4L870.3,461v-61.1h71.7
	v127.2l49.1,45.2l11.5-12.5L959,519.6V382.8H853.3v39.3L736.7,314.7L600,440.8l-136.8-126l-265.9,245l11.5,12.5L463.2,338
	l254.4,234.4l11.5-12.5l-66.7-61.4l74.2-68.4l205.4,189.3v148.6l-256.4,0V611.8L463.2,406.8L463.2,406.8z"/>
</svg>
