<?xml version="1.0" encoding="utf-8"?>
<!-- Generator: Adobe Illustrator 27.8.1, SVG Export Plug-In . SVG Version: 6.00 Build 0)  -->
<svg version="1.1" id="Layer_1" xmlns="http://www.w3.org/2000/svg" xmlns:xlink="http://www.w3.org/1999/xlink" x="0px" y="0px"
	 viewBox="0 0 1200 1200" style="enable-background:new 0 0 1200 1200;" xml:space="preserve">
<style type="text/css">
	.st0{display:none;fill:#FFFFFF;}
	.st1{fill:#207178;}
</style>
<rect class="st0" width="1200" height="1200"/>
<rect class="st0" width="1200" height="1200"/>
<path class="st1" d="M600,356.9c-134.1,0-243.1,109.1-243.1,243.1S465.9,843.1,600,843.1S843.1,734.1,843.1,600
	S734.1,356.9,600,356.9z M600,858.4c-69,0-133.9-26.9-182.7-75.7S341.6,669,341.6,600s26.9-133.9,75.7-182.7S531,341.6,600,341.6
	s133.9,26.9,182.7,75.7S858.4,531,858.4,600s-26.9,133.9-75.7,182.7S669,858.4,600,858.4z"/>
<path class="st1" d="M600,422.3c-98,0-177.7,79.7-177.7,177.7S502,777.7,600,777.7S777.7,698,777.7,600S698,422.3,600,422.3z
	 M600,793c-106.4,0-193-86.6-193-193s86.6-193,193-193s193,86.6,193,193S706.4,793,600,793z"/>
<path class="st1" d="M553.1,628.4l46.9,28.1l46.9-28.1v-56.8L600,543.5l-46.9,28.1V628.4z M600,673c-1.3,0-2.7-0.4-3.9-1.1
	l-54.5-32.7c-2.3-1.4-3.7-3.9-3.7-6.5v-65.4c0-2.7,1.4-5.2,3.7-6.5l54.5-32.7c2.4-1.4,5.4-1.4,7.8,0l54.5,32.7
	c2.3,1.4,3.7,3.9,3.7,6.5v65.4c0,2.7-1.4,5.2-3.7,6.5L603.9,672C602.7,672.7,601.3,673,600,673L600,673z"/>
<path class="st1" d="M654.5,574.9c-4.2,0-7.6-3.4-7.6-7.6V425.5c0-4.2,3.4-7.6,7.6-7.6s7.6,3.4,7.6,7.6v141.7
	C662.2,571.5,658.7,574.9,654.5,574.9z"/>
<path class="st1" d="M545.5,782.1c-4.2,0-7.6-3.4-7.6-7.6V632.7c0-4.2,3.4-7.6,7.6-7.6s7.6,3.4,7.6,7.6v141.7
	C553.1,778.7,549.7,782.1,545.5,782.1z"/>
<path class="st1" d="M654.5,574.9c-4.2,0-7.6-3.4-7.6-7.6V425.5c0-4.2,3.4-7.6,7.6-7.6s7.6,3.4,7.6,7.6v141.7
	C662.2,571.5,658.7,574.9,654.5,574.9z"/>
<path class="st1" d="M545.5,782.1c-4.2,0-7.6-3.4-7.6-7.6V632.7c0-4.2,3.4-7.6,7.6-7.6s7.6,3.4,7.6,7.6v141.7
	C553.1,778.7,549.7,782.1,545.5,782.1z"/>
<path class="st1" d="M600,542.2c-2,0-3.9-0.7-5.4-2.2l-92.7-92.7c-3-3-3-7.8,0-10.8c3-3,7.8-3,10.8,0l92.7,92.7c3,3,3,7.8,0,10.8
	C603.9,541.5,602,542.2,600,542.2L600,542.2L600,542.2z"/>
<path class="st1" d="M730.8,738.5c-1.2,0-2.3-0.3-3.4-0.8l-130.8-65.4c-3.8-1.9-5.3-6.5-3.4-10.2s6.5-5.3,10.2-3.4L734.3,724
	c3.8,1.9,5.3,6.5,3.4,10.2C736.3,736.9,733.6,738.5,730.8,738.5L730.8,738.5z"/>
<path class="st1" d="M654.5,640.3c-2.1,0-4.2-0.8-5.7-2.5c-2.8-3.1-2.6-8,0.6-10.8l109-98.1c3.1-2.8,8-2.6,10.8,0.6s2.6,8-0.6,10.8
	l-109,98.1C658.2,639.7,656.4,640.3,654.5,640.3L654.5,640.3L654.5,640.3z"/>
<path class="st1" d="M425.5,662.2c-2.4,0-4.7-1.1-6.2-3.1c-2.5-3.4-1.7-8.2,1.7-10.7L541,561.1c3.4-2.5,8.2-1.7,10.7,1.7
	c2.5,3.4,1.7,8.2-1.7,10.7L430,660.7C428.7,661.7,427.1,662.1,425.5,662.2L425.5,662.2L425.5,662.2z"/>
</svg>
