<?xml version="1.0" encoding="UTF-8"?>
<svg id="Layer_1" data-name="Layer 1" xmlns="http://www.w3.org/2000/svg" viewBox="0 0 1200 1200">
  <defs>
    <style>
      .cls-1 {
        fill: #fff;
      }

      .cls-2 {
        fill: #207178;
      }
    </style>
  </defs>
  <rect class="cls-1" width="1200" height="1200"/>
  <rect class="cls-1" width="1200" height="1200"/>
  <path class="cls-2" d="m600,356.86c-134.06,0-243.14,109.07-243.14,243.14s109.07,243.14,243.14,243.14,243.14-109.07,243.14-243.14-109.07-243.14-243.14-243.14Zm0,501.54c-69.01,0-133.91-26.89-182.71-75.69-48.8-48.8-75.69-113.7-75.69-182.71s26.89-133.91,75.69-182.71c48.8-48.8,113.7-75.69,182.71-75.69s133.91,26.89,182.71,75.69c48.8,48.8,75.69,113.7,75.69,182.71s-26.89,133.91-75.69,182.71c-48.8,48.8-113.7,75.69-182.71,75.69Z"/>
  <path class="cls-2" d="m600,422.28c-98,0-177.72,79.72-177.72,177.72s79.72,177.72,177.72,177.72,177.72-79.72,177.72-177.72-79.72-177.72-177.72-177.72Zm0,370.7c-106.41,0-192.98-86.57-192.98-192.98s86.57-192.98,192.98-192.98,192.98,86.57,192.98,192.98-86.57,192.98-192.98,192.98Z"/>
  <path class="cls-2" d="m553.12,628.39l46.88,28.13,46.88-28.13v-56.78l-46.88-28.13-46.88,28.13v56.78Zm46.88,44.66c-1.35,0-2.73-.37-3.93-1.09l-54.51-32.71c-2.31-1.37-3.71-3.86-3.71-6.54v-65.42c0-2.68,1.4-5.17,3.71-6.54l54.51-32.71c2.42-1.44,5.43-1.44,7.85,0l54.51,32.71c2.29,1.37,3.71,3.86,3.71,6.54v65.42c0,2.68-1.4,5.17-3.71,6.54l-54.51,32.71c-1.2.72-2.57,1.09-3.92,1.09h0Z"/>
  <path class="cls-2" d="m654.52,574.92c-4.21,0-7.63-3.42-7.63-7.63v-141.74c0-4.21,3.42-7.63,7.63-7.63s7.63,3.42,7.63,7.63v141.74c0,4.21-3.42,7.63-7.63,7.63Z"/>
  <path class="cls-2" d="m545.48,782.08c-4.21,0-7.63-3.42-7.63-7.63v-141.74c0-4.21,3.42-7.63,7.63-7.63s7.63,3.42,7.63,7.63v141.74c0,4.21-3.42,7.63-7.63,7.63Z"/>
  <path class="cls-2" d="m654.52,574.92c-4.21,0-7.63-3.42-7.63-7.63v-141.74c0-4.21,3.42-7.63,7.63-7.63s7.63,3.42,7.63,7.63v141.74c0,4.21-3.42,7.63-7.63,7.63Z"/>
  <path class="cls-2" d="m545.48,782.08c-4.21,0-7.63-3.42-7.63-7.63v-141.74c0-4.21,3.42-7.63,7.63-7.63s7.63,3.42,7.63,7.63v141.74c0,4.21-3.42,7.63-7.63,7.63Z"/>
  <path class="cls-2" d="m600,542.21c-1.96,0-3.9-.74-5.41-2.22l-92.68-92.68c-2.99-2.99-2.99-7.81,0-10.79,2.99-2.99,7.81-2.99,10.79,0l92.68,92.68c2.99,2.99,2.99,7.81,0,10.79-1.48,1.48-3.42,2.22-5.39,2.22h0Z"/>
  <path class="cls-2" d="m730.84,738.47c-1.16,0-2.31-.26-3.4-.81l-130.84-65.42c-3.77-1.88-5.3-6.48-3.42-10.25,1.88-3.77,6.48-5.3,10.25-3.4l130.84,65.42c3.77,1.88,5.3,6.48,3.4,10.25-1.33,2.66-4.03,4.21-6.83,4.21h0Z"/>
  <path class="cls-2" d="m654.52,640.34c-2.09,0-4.16-.85-5.67-2.53-2.81-3.14-2.57-7.96.57-10.77l109.03-98.13c3.14-2.81,7.96-2.57,10.77.57,2.81,3.14,2.57,7.96-.57,10.77l-109.03,98.13c-1.46,1.31-3.27,1.96-5.1,1.96h0Z"/>
  <path class="cls-2" d="m425.55,662.15c-2.36,0-4.69-1.09-6.17-3.14-2.49-3.4-1.72-8.18,1.68-10.66l119.93-87.22c3.4-2.49,8.18-1.72,10.66,1.68,2.49,3.4,1.72,8.18-1.68,10.66l-119.93,87.22c-1.35.98-2.92,1.46-4.49,1.46h0Z"/>
</svg>