<?xml version="1.0" encoding="UTF-8"?>
<svg id="Layer_1" data-name="Layer 1" xmlns="http://www.w3.org/2000/svg" viewBox="0 0 1200 1200">
  <defs>
    <style>
      .cls-1, .cls-2 {
        fill: #fff;
      }

      .cls-2 {
        fill-rule: evenodd;
      }

      .cls-3 {
        fill: #207178;
      }
    </style>
  </defs>
  <rect width="1200" height="1200"/>
  <rect class="cls-1" width="1200" height="1200"/>
  <path class="cls-1" d="m652.57,443.49h.46l12.04,81.99h-24.55l12.04-81.99Zm20.15-28.72h-37.29l-25.94,162.12h23.39l4.4-29.41h31.27l4.4,29.41h25.71l-25.94-162.12Zm-146.6,162.12h67.39v-23.16h-41.92v-138.96h-25.48v162.12Zm-104.91-162.12v123.44c0,25.94,12.97,40.76,37.98,40.76s37.98-14.82,37.98-40.76v-123.44h-24.09v125.06c0,11.58-5.1,15.75-13.2,15.75s-13.2-4.17-13.2-15.75v-125.06h-25.48Zm-100.51,0h-35.43v162.12h22.23v-114.64h.46l18.53,114.64h24.09l17.14-116.26h.46v116.26h24.09v-162.12h-35.43l-17.14,115.1h-.46l-18.53-115.1Zm-114.64,162.12h25.48v-53.73l32.19-108.39h-24.32l-19.22,73.88h-.46l-19.22-73.88h-26.63l32.19,108.39v53.73Zm-125.29-123.21c0,18.53,6.72,31.96,28.02,50.72,16.67,14.59,21.77,23.39,21.77,35.2s-5.1,15.75-13.2,15.75-13.2-4.17-13.2-15.75v-11.58h-24.09v9.96c0,25.94,12.97,40.76,37.98,40.76s37.98-14.82,37.98-40.76c0-18.53-6.72-31.96-28.02-50.72-16.67-14.59-21.77-23.39-21.77-35.2s4.63-15.98,12.74-15.98,12.74,4.4,12.74,15.98v6.72h24.09v-5.1c0-25.94-12.74-40.76-37.52-40.76s-37.52,14.82-37.52,40.76Z"/>
  <rect class="cls-1" x="74.74" y="640.87" width="1050.53" height="131.9"/>
  <path class="cls-3" d="m489.89,719.26l19.35-43.31,19.35,43.31h-38.7Zm51.48,28.45h8.98l-36.86-80.62h-8.41l-36.86,80.62h8.87l9.67-21.54h44.92l9.67,21.54Zm-107.69,0h8.52v-80.62h-8.52v80.62Zm-99.28-7.37v-65.88h23.84c21.42,0,35.24,13.59,35.24,32.94s-13.82,32.94-35.24,32.94h-23.84Zm-8.52,7.37h32.82c25.8,0,43.19-16.59,43.19-40.31s-17.39-40.31-43.19-40.31h-32.82v80.62Zm-81.2-7.37v-29.95h41.69v-7.26h-41.69v-28.68h46.76v-7.37h-55.28v80.62h57.01v-7.37h-48.49Zm-54.48-73.25l-34.67,59.78-35.01-59.78h-7.03v80.62h8.18v-64.15l31.67,53.9h4.03l31.67-54.25v64.5h8.18v-80.62h-7.03Z"/>
  <path class="cls-3" d="m1060.01,714.76h-21.42v-40.31h21.42c16.12,0,24.65,7.37,24.65,20.27s-8.52,20.04-24.65,20.04Zm.23-47.68h-30.18v80.62h8.52v-25.45h21.65c20.5,0,32.94-10.37,32.94-27.53s-12.44-27.64-32.94-27.64Zm-101.58,81.31c20.62,0,33.05-11.98,33.05-35.13v-46.18h-8.29v45.84c0,19.12-8.98,27.87-24.76,27.87s-24.65-8.75-24.65-27.87v-45.84h-8.52v46.18c0,23.15,12.55,35.13,33.17,35.13Zm-106.54-7.6c-19.46,0-33.98-14.17-33.98-33.4s14.51-33.4,33.98-33.4,33.75,14.17,33.75,33.4-14.4,33.4-33.75,33.4Zm0,7.6c24.19,0,42.27-17.39,42.27-41s-18.08-41-42.27-41-42.38,17.51-42.38,41,17.97,41,42.38,41Zm-101.24-33.52h-21.42v-40.43h21.42c16.12,0,24.65,7.37,24.65,20.27s-8.52,20.16-24.65,20.16Zm34.44,32.82l-19.69-27.64c11.75-3.8,18.43-12.67,18.43-25.34,0-17.28-12.44-27.64-32.94-27.64h-30.18v80.62h8.52v-25.57h21.65c2.3,0,4.38-.12,6.45-.35l18.43,25.91h9.33Zm-109.3-13.13c-6.22,4.49-13.36,6.22-21.08,6.22-19.81,0-34.44-14.28-34.44-33.4s14.63-33.4,34.55-33.4c9.44,0,17.51,2.76,24.3,9.44l5.3-5.41c-7.14-7.72-17.74-11.63-29.95-11.63-24.65,0-42.61,17.39-42.61,41s17.97,41,42.5,41c11.17,0,22-3.46,29.6-10.25v-30.75h-8.18v27.18Z"/>
  <path class="cls-2" d="m975.09,426.25c40.05,0,72.81,31.86,72.81,72.81s-32.77,72.81-72.81,72.81-72.81-32.77-72.81-72.81,31.86-72.81,72.81-72.81Zm81.01.91h40.95c3.65,0,7.28,2.73,7.28,6.37,0,4.55-3.65,7.28-7.28,7.28h-40.95c-4.55,0-7.28-2.73-7.28-7.28,0-3.65,2.73-6.37,7.28-6.37Zm-216.63-9.1h271.23c6.37,0,10.93,4.55,10.93,10.93v139.25c0,6.37-4.55,11.83-10.93,11.83h-271.23c-6.37,0-11.83-5.46-11.83-11.83v-139.25c0-6.37,5.46-10.93,11.83-10.93Z"/>
  <path class="cls-1" d="m1024.21,449c-12.74-11.83-30.04-20.02-49.15-20.02s-37.32,8.19-49.15,20.02l-.91.91c-11.83,11.83-20.02,30.04-20.02,49.15s8.19,36.41,20.02,49.15h.91c11.83,12.74,30.04,20.02,49.15,20.02s36.41-7.28,49.15-20.02,20.02-30.04,20.02-49.15-7.28-37.32-20.02-49.15v-.91Zm-49.15-26.39c20.93,0,40.05,8.19,53.7,22.76,13.65,13.65,21.84,32.77,21.84,53.7s-8.19,40.05-21.84,53.7c-13.65,13.65-32.77,21.84-53.7,21.84s-40.05-8.19-53.7-21.84c-14.56-13.65-22.76-32.77-22.76-53.7s8.19-40.05,22.76-53.7c13.65-14.56,32.77-22.76,53.7-22.76Zm121.97,7.28h-40.95c-1.82,0-2.73.91-3.65.91,0,.91-.91,1.82-.91,2.73,0,1.82.91,2.73.91,2.73v.91c.91,0,1.82.91,3.65.91h40.95c.91,0,1.82-.91,2.73-1.82.91,0,.91-.91.91-2.73,0-.91,0-1.82-.91-2.73-.91,0-1.82-.91-2.73-.91Zm-40.95-6.37h40.95c2.73,0,5.46.91,7.28,2.73,1.82,2.73,2.73,4.55,2.73,7.28,0,3.65-.91,5.46-2.73,7.28-1.82,1.82-4.55,3.65-7.28,3.65h-40.95c-3.65,0-5.46-1.82-7.28-3.65-1.82-1.82-3.65-3.65-3.65-7.28,0-2.73,1.82-4.55,3.65-7.28,1.82-1.82,3.65-2.73,7.28-2.73Zm54.62-2.73h-271.23c-2.73,0-4.55.91-6.37,2.73-.91.91-1.82,3.65-1.82,5.46v139.25c0,2.73.91,4.55,1.82,6.37,1.82.91,3.65,1.82,6.37,1.82h271.23c1.82,0,3.65-.91,5.46-1.82,1.82-1.82,2.73-3.65,2.73-6.37v-139.25c0-1.82-.91-4.55-2.73-5.46-1.82-1.82-3.65-2.73-5.46-2.73Zm-271.23-6.37h271.23c3.65,0,7.28,1.82,10.02,4.55,2.73,2.73,4.55,6.37,4.55,10.02v139.25c0,4.55-1.82,8.19-4.55,10.93-2.73,1.82-6.37,3.65-10.02,3.65h-271.23c-4.55,0-8.19-1.82-10.93-3.65-1.82-2.73-3.65-6.37-3.65-10.93v-139.25c0-3.65,1.82-7.28,3.65-10.02,2.73-2.73,6.37-4.55,10.93-4.55Z"/>
  <path class="cls-1" d="m1024.23,449c-12.74-11.83-30.04-20.02-49.15-20.02s-37.32,8.19-49.15,20.02l-.91.91c-11.83,11.83-20.02,30.04-20.02,49.15s8.19,36.41,20.02,49.15h.91c11.83,12.74,30.04,20.02,49.15,20.02s36.41-7.28,49.15-20.02c12.74-12.74,20.02-30.04,20.02-49.15s-7.28-37.32-20.02-49.15v-.91Zm-49.15-26.39c20.93,0,40.05,8.19,53.7,22.76,13.65,13.65,21.84,32.77,21.84,53.7s-8.19,40.05-21.84,53.7c-13.65,13.65-32.77,21.84-53.7,21.84s-40.05-8.19-53.7-21.84c-14.56-13.65-22.76-32.77-22.76-53.7s8.19-40.05,22.76-53.7c13.65-14.56,32.77-22.76,53.7-22.76Z"/>
  <path class="cls-1" d="m940.5,533.65c8.19,8.19,20.93,13.65,34.58,13.65s25.49-5.46,34.58-13.65c8.19-9.1,13.65-20.93,13.65-34.58s-5.46-26.39-13.65-34.58c-9.1-9.1-20.93-14.56-34.58-14.56s-26.39,5.46-34.58,14.56c-9.1,8.19-14.56,20.93-14.56,34.58s5.46,25.49,14.56,34.58Zm34.58,20.02c-15.47,0-29.12-5.46-39.14-15.47-10.02-10.02-16.39-24.58-16.39-39.14,0-15.47,6.37-29.12,16.39-39.14s23.67-16.39,39.14-16.39c14.56,0,29.12,6.37,39.14,16.39,10.02,10.02,15.47,23.67,15.47,39.14,0,14.56-5.46,29.12-15.47,39.14-10.02,10.02-24.58,15.47-39.14,15.47Z"/>
  <path class="cls-1" d="m1097.04,428.07h-40.95c-1.82,0-3.65.91-4.55,1.82-.91.91-1.82,2.73-1.82,3.65,0,1.82.91,3.65,1.82,4.55.91.91,2.73,1.82,4.55,1.82h40.95c1.82,0,2.73-.91,3.65-1.82,1.82-.91,1.82-2.73,1.82-4.55,0-.91,0-2.73-1.82-3.65-.91-.91-1.82-1.82-3.65-1.82Zm-40.95-2.73h40.95c2.73,0,4.55.91,6.37,2.73,1.82.91,2.73,3.65,2.73,5.46,0,2.73-.91,4.55-2.73,6.37-1.82,1.82-3.65,2.73-6.37,2.73h-40.95c-2.73,0-4.55-.91-6.37-2.73-1.82-1.82-2.73-3.65-2.73-6.37,0-1.82.91-4.55,2.73-5.46,1.82-1.82,3.65-2.73,6.37-2.73Z"/>
  <path class="cls-2" d="m935.95,391.66h78.27c13.65,0,25.49,10.02,29.12,23.67h-136.53c2.73-13.65,14.56-23.67,29.12-23.67h.01Z"/>
  <path class="cls-1" d="m935.95,390.75h78.27c8.19,0,16.39,3.65,21.84,9.1,4.55,4.55,7.28,9.1,8.19,15.47h-2.73c-.91-5.46-3.65-10.02-7.28-13.65-5.46-4.55-12.74-8.19-20.02-8.19h-78.27c-8.19,0-15.47,3.65-20.93,8.19-3.65,3.65-5.46,8.19-7.28,13.65h-2.73c1.82-6.37,4.55-10.93,8.19-15.47,6.37-5.46,13.65-9.1,22.76-9.1h0Z"/>
  <path class="cls-2" d="m859.49,409.87h20.02c2.73,0,5.46,1.82,6.37,4.55h-32.77c.91-2.73,2.73-4.55,6.37-4.55h.01Z"/>
  <path class="cls-1" d="m879.52,410.78h-20.02c-1.82,0-2.73.91-3.65.91q0,.91-.91,1.82h29.12q-.91-.91-.91-1.82c-.91,0-2.73-.91-3.65-.91h.01Zm-20.02-2.73h20.02c1.82,0,3.65.91,4.55,1.82,1.82.91,2.73,2.73,2.73,4.55l.91,1.82h-36.42l.91-1.82c0-1.82.91-3.65,1.82-4.55,1.82-.91,3.65-1.82,5.46-1.82h.01Z"/>
  <path class="cls-1" d="m859.49,406.23h20.02c2.73,0,5.46.91,6.37,2.73,1.82,1.82,2.73,3.65,2.73,5.46h-6.37s0-.91-.91-.91c0,0-.91-.91-1.82-.91h-20.02c-.91,0-1.82.91-2.73.91v.91h-6.37c0-1.82.91-3.65,2.73-5.46.91-1.82,3.65-2.73,6.37-2.73Z"/>
  <path class="cls-1" d="m879.52,408.05h-20.02c-2.73,0-4.55.91-5.46,1.82-.91.91-1.82,1.82-1.82,2.73l-.91.91h4.55v-.91c.91,0,.91-.91,1.82-.91h21.84c.91,0,2.73,0,2.73.91.91,0,.91.91.91.91h3.65v-.91c0-.91-.91-1.82-1.82-2.73-.91,0-.91-.91-2.73-1.82h-2.73,0Zm-20.02-2.73h20.02c1.82,0,2.73,0,4.55.91.91,0,1.82.91,2.73,1.82l2.73,2.73c0,1.82.91,2.73.91,3.65v1.82h-9.1v-1.82h-23.67v1.82h-9.1v-1.82c0-.91.91-1.82.91-3.65.91-.91,1.82-1.82,1.82-2.73,2.73-1.82,4.55-2.73,8.19-2.73h0Z"/>
</svg>