<?xml version="1.0" encoding="UTF-8"?>
<svg id="Layer_1" data-name="Layer 1" xmlns="http://www.w3.org/2000/svg" viewBox="0 0 1200 1200">
  <defs>
    <style>
      .cls-1 {
        fill: #fff;
      }

      .cls-2, .cls-3 {
        fill: #207178;
      }

      .cls-3 {
        fill-rule: evenodd;
      }
    </style>
  </defs>
  <rect width="1200" height="1200"/>
  <rect class="cls-1" width="1200" height="1200"/>
  <path d="m652.87,443.47h.46l12.05,82.03h-24.56l12.05-82.03Zm20.16-28.73h-37.31l-25.95,162.2h23.4l4.4-29.43h31.28l4.4,29.43h25.72l-25.95-162.2Zm-146.68,162.2h67.43v-23.17h-41.94v-139.03h-25.49v162.2Zm-104.97-162.2v123.51c0,25.95,12.98,40.78,38,40.78s38-14.83,38-40.78v-123.51h-24.1v125.13c0,11.59-5.1,15.76-13.21,15.76s-13.21-4.17-13.21-15.76v-125.13h-25.49Zm-100.57,0h-35.45v162.2h22.24v-114.7h.46l18.54,114.7h24.1l17.15-116.32h.46v116.32h24.1v-162.2h-35.45l-17.15,115.16h-.46l-18.54-115.16Zm-114.7,162.2h25.49v-53.76l32.21-108.44h-24.33l-19.23,73.92h-.46l-19.23-73.92h-26.65l32.21,108.44v53.76Zm-125.36-123.27c0,18.54,6.72,31.98,28.04,50.75,16.68,14.6,21.78,23.4,21.78,35.22s-5.1,15.76-13.21,15.76-13.21-4.17-13.21-15.76v-11.59h-24.1v9.96c0,25.95,12.98,40.78,38,40.78s38-14.83,38-40.78c0-18.54-6.72-31.98-28.04-50.75-16.68-14.6-21.78-23.4-21.78-35.22s4.63-15.99,12.74-15.99,12.74,4.4,12.74,15.99v6.72h24.1v-5.1c0-25.95-12.74-40.78-37.54-40.78s-37.54,14.83-37.54,40.78Z"/>
  <rect x="74.72" y="640.83" width="1051.08" height="131.97"/>
  <path class="cls-1" d="m490.1,719.26l19.36-43.33,19.36,43.33h-38.72Zm51.51,28.46h8.99l-36.88-80.66h-8.41l-36.88,80.66h8.87l9.68-21.55h44.94l9.68,21.55Zm-107.74,0h8.53v-80.66h-8.53v80.66Zm-99.33-7.38v-65.91h23.85c21.43,0,35.26,13.6,35.26,32.96s-13.83,32.96-35.26,32.96h-23.85Zm-8.53,7.38h32.84c25.81,0,43.21-16.59,43.21-40.33s-17.4-40.33-43.21-40.33h-32.84v80.66Zm-81.24-7.38v-29.96h41.71v-7.26h-41.71v-28.69h46.79v-7.38h-55.31v80.66h57.04v-7.38h-48.51Zm-54.51-73.29l-34.69,59.81-35.03-59.81h-7.03v80.66h8.18v-64.19l31.69,53.93h4.03l31.69-54.28v64.53h8.18v-80.66h-7.03Z"/>
  <path class="cls-1" d="m1060.51,714.77h-21.43v-40.33h21.43c16.13,0,24.66,7.38,24.66,20.28s-8.53,20.05-24.66,20.05Zm.23-47.71h-30.19v80.66h8.53v-25.47h21.66c20.51,0,32.96-10.37,32.96-27.54s-12.45-27.66-32.96-27.66Zm-101.64,81.36c20.63,0,33.07-11.98,33.07-35.15v-46.21h-8.3v45.86c0,19.13-8.99,27.89-24.78,27.89s-24.66-8.76-24.66-27.89v-45.86h-8.53v46.21c0,23.16,12.56,35.15,33.19,35.15Zm-106.59-7.61c-19.47,0-33.99-14.17-33.99-33.42s14.52-33.42,33.99-33.42,33.76,14.17,33.76,33.42-14.4,33.42-33.76,33.42Zm0,7.61c24.2,0,42.29-17.4,42.29-41.02s-18.09-41.02-42.29-41.02-42.41,17.52-42.41,41.02,17.98,41.02,42.41,41.02Zm-101.29-33.53h-21.43v-40.45h21.43c16.13,0,24.66,7.38,24.66,20.28s-8.53,20.17-24.66,20.17Zm34.46,32.84l-19.71-27.66c11.75-3.8,18.44-12.68,18.44-25.35,0-17.29-12.45-27.66-32.96-27.66h-30.19v80.66h8.53v-25.58h21.66c2.3,0,4.38-.12,6.45-.35l18.44,25.93h9.33Zm-109.36-13.14c-6.22,4.49-13.37,6.22-21.09,6.22-19.82,0-34.46-14.29-34.46-33.42s14.63-33.42,34.57-33.42c9.45,0,17.52,2.77,24.31,9.45l5.3-5.42c-7.14-7.72-17.75-11.64-29.96-11.64-24.66,0-42.64,17.4-42.64,41.02s17.98,41.02,42.52,41.02c11.18,0,22.01-3.46,29.62-10.26v-30.77h-8.18v27.2Z"/>
  <path class="cls-3" d="m975.09,426.25c40.05,0,72.81,31.86,72.81,72.81s-32.77,72.81-72.81,72.81-72.81-32.77-72.81-72.81,31.86-72.81,72.81-72.81Zm81.01.91h40.95c3.65,0,7.28,2.73,7.28,6.37,0,4.55-3.65,7.28-7.28,7.28h-40.95c-4.55,0-7.28-2.73-7.28-7.28,0-3.65,2.73-6.37,7.28-6.37Zm-216.63-9.1h271.23c6.37,0,10.93,4.55,10.93,10.93v139.25c0,6.37-4.55,11.83-10.93,11.83h-271.23c-6.37,0-11.83-5.46-11.83-11.83v-139.25c0-6.37,5.46-10.93,11.83-10.93Z"/>
  <path class="cls-2" d="m1024.21,449c-12.74-11.83-30.04-20.02-49.15-20.02s-37.32,8.19-49.15,20.02l-.91.91c-11.83,11.83-20.02,30.04-20.02,49.15s8.19,36.41,20.02,49.15h.91c11.83,12.74,30.04,20.02,49.15,20.02s36.41-7.28,49.15-20.02,20.02-30.04,20.02-49.15-7.28-37.32-20.02-49.15v-.91Zm-49.15-26.39c20.93,0,40.05,8.19,53.7,22.76,13.65,13.65,21.84,32.77,21.84,53.7s-8.19,40.05-21.84,53.7c-13.65,13.65-32.77,21.84-53.7,21.84s-40.05-8.19-53.7-21.84c-14.56-13.65-22.76-32.77-22.76-53.7s8.19-40.05,22.76-53.7c13.65-14.56,32.77-22.76,53.7-22.76Zm121.97,7.28h-40.95c-1.82,0-2.73.91-3.65.91,0,.91-.91,1.82-.91,2.73,0,1.82.91,2.73.91,2.73v.91c.91,0,1.82.91,3.65.91h40.95c.91,0,1.82-.91,2.73-1.82.91,0,.91-.91.91-2.73,0-.91,0-1.82-.91-2.73-.91,0-1.82-.91-2.73-.91Zm-40.95-6.37h40.95c2.73,0,5.46.91,7.28,2.73,1.82,2.73,2.73,4.55,2.73,7.28,0,3.65-.91,5.46-2.73,7.28-1.82,1.82-4.55,3.65-7.28,3.65h-40.95c-3.65,0-5.46-1.82-7.28-3.65-1.82-1.82-3.65-3.65-3.65-7.28,0-2.73,1.82-4.55,3.65-7.28,1.82-1.82,3.65-2.73,7.28-2.73Zm54.62-2.73h-271.23c-2.73,0-4.55.91-6.37,2.73-.91.91-1.82,3.65-1.82,5.46v139.25c0,2.73.91,4.55,1.82,6.37,1.82.91,3.65,1.82,6.37,1.82h271.23c1.82,0,3.65-.91,5.46-1.82,1.82-1.82,2.73-3.65,2.73-6.37v-139.25c0-1.82-.91-4.55-2.73-5.46-1.82-1.82-3.65-2.73-5.46-2.73Zm-271.23-6.37h271.23c3.65,0,7.28,1.82,10.02,4.55,2.73,2.73,4.55,6.37,4.55,10.02v139.25c0,4.55-1.82,8.19-4.55,10.93-2.73,1.82-6.37,3.65-10.02,3.65h-271.23c-4.55,0-8.19-1.82-10.93-3.65-1.82-2.73-3.65-6.37-3.65-10.93v-139.25c0-3.65,1.82-7.28,3.65-10.02,2.73-2.73,6.37-4.55,10.93-4.55Z"/>
  <path class="cls-2" d="m1024.23,449c-12.74-11.83-30.04-20.02-49.15-20.02s-37.32,8.19-49.15,20.02l-.91.91c-11.83,11.83-20.02,30.04-20.02,49.15s8.19,36.41,20.02,49.15h.91c11.83,12.74,30.04,20.02,49.15,20.02s36.41-7.28,49.15-20.02c12.74-12.74,20.02-30.04,20.02-49.15s-7.28-37.32-20.02-49.15v-.91Zm-49.15-26.39c20.93,0,40.05,8.19,53.7,22.76,13.65,13.65,21.84,32.77,21.84,53.7s-8.19,40.05-21.84,53.7c-13.65,13.65-32.77,21.84-53.7,21.84s-40.05-8.19-53.7-21.84c-14.56-13.65-22.76-32.77-22.76-53.7s8.19-40.05,22.76-53.7c13.65-14.56,32.77-22.76,53.7-22.76Z"/>
  <path class="cls-2" d="m940.5,533.65c8.19,8.19,20.93,13.65,34.58,13.65s25.49-5.46,34.58-13.65c8.19-9.1,13.65-20.93,13.65-34.58s-5.46-26.39-13.65-34.58c-9.1-9.1-20.93-14.56-34.58-14.56s-26.39,5.46-34.58,14.56c-9.1,8.19-14.56,20.93-14.56,34.58s5.46,25.49,14.56,34.58Zm34.58,20.02c-15.47,0-29.12-5.46-39.14-15.47-10.02-10.02-16.39-24.58-16.39-39.14,0-15.47,6.37-29.12,16.39-39.14s23.67-16.39,39.14-16.39c14.56,0,29.12,6.37,39.14,16.39,10.02,10.02,15.47,23.67,15.47,39.14,0,14.56-5.46,29.12-15.47,39.14-10.02,10.02-24.58,15.47-39.14,15.47Z"/>
  <path class="cls-2" d="m1097.04,428.07h-40.95c-1.82,0-3.65.91-4.55,1.82-.91.91-1.82,2.73-1.82,3.65,0,1.82.91,3.65,1.82,4.55.91.91,2.73,1.82,4.55,1.82h40.95c1.82,0,2.73-.91,3.65-1.82,1.82-.91,1.82-2.73,1.82-4.55,0-.91,0-2.73-1.82-3.65-.91-.91-1.82-1.82-3.65-1.82Zm-40.95-2.73h40.95c2.73,0,4.55.91,6.37,2.73,1.82.91,2.73,3.65,2.73,5.46,0,2.73-.91,4.55-2.73,6.37-1.82,1.82-3.65,2.73-6.37,2.73h-40.95c-2.73,0-4.55-.91-6.37-2.73-1.82-1.82-2.73-3.65-2.73-6.37,0-1.82.91-4.55,2.73-5.46,1.82-1.82,3.65-2.73,6.37-2.73Z"/>
  <path class="cls-3" d="m935.95,391.66h78.27c13.65,0,25.49,10.02,29.12,23.67h-136.53c2.73-13.65,14.56-23.67,29.12-23.67h.01Z"/>
  <path class="cls-2" d="m935.95,390.75h78.27c8.19,0,16.39,3.65,21.84,9.1,4.55,4.55,7.28,9.1,8.19,15.47h-2.73c-.91-5.46-3.65-10.02-7.28-13.65-5.46-4.55-12.74-8.19-20.02-8.19h-78.27c-8.19,0-15.47,3.65-20.93,8.19-3.65,3.65-5.46,8.19-7.28,13.65h-2.73c1.82-6.37,4.55-10.93,8.19-15.47,6.37-5.46,13.65-9.1,22.76-9.1h0Z"/>
  <path class="cls-3" d="m859.49,409.87h20.02c2.73,0,5.46,1.82,6.37,4.55h-32.77c.91-2.73,2.73-4.55,6.37-4.55h.01Z"/>
  <path class="cls-2" d="m879.52,410.78h-20.02c-1.82,0-2.73.91-3.65.91q0,.91-.91,1.82h29.12q-.91-.91-.91-1.82c-.91,0-2.73-.91-3.65-.91h.01Zm-20.02-2.73h20.02c1.82,0,3.65.91,4.55,1.82,1.82.91,2.73,2.73,2.73,4.55l.91,1.82h-36.42l.91-1.82c0-1.82.91-3.65,1.82-4.55,1.82-.91,3.65-1.82,5.46-1.82h.01Z"/>
  <path class="cls-2" d="m859.49,406.23h20.02c2.73,0,5.46.91,6.37,2.73,1.82,1.82,2.73,3.65,2.73,5.46h-6.37s0-.91-.91-.91c0,0-.91-.91-1.82-.91h-20.02c-.91,0-1.82.91-2.73.91v.91h-6.37c0-1.82.91-3.65,2.73-5.46.91-1.82,3.65-2.73,6.37-2.73Z"/>
  <path class="cls-2" d="m879.52,408.05h-20.02c-2.73,0-4.55.91-5.46,1.82-.91.91-1.82,1.82-1.82,2.73l-.91.91h4.55v-.91c.91,0,.91-.91,1.82-.91h21.84c.91,0,2.73,0,2.73.91.91,0,.91.91.91.91h3.65v-.91c0-.91-.91-1.82-1.82-2.73-.91,0-.91-.91-2.73-1.82h-2.73,0Zm-20.02-2.73h20.02c1.82,0,2.73,0,4.55.91.91,0,1.82.91,2.73,1.82l2.73,2.73c0,1.82.91,2.73.91,3.65v1.82h-9.1v-1.82h-23.67v1.82h-9.1v-1.82c0-.91.91-1.82.91-3.65.91-.91,1.82-1.82,1.82-2.73,2.73-1.82,4.55-2.73,8.19-2.73h0Z"/>
</svg>