<?xml version="1.0" encoding="UTF-8" standalone="no"?>
<!-- Generator: Adobe Illustrator 27.8.1, SVG Export Plug-In . SVG Version: 6.00 Build 0)  -->

<svg
   version="1.1"
   id="Layer_1"
   x="0px"
   y="0px"
   viewBox="0 0 1051.1 382"
   xml:space="preserve"
   sodipodi:docname="Symula Logo Wide-01.svg"
   width="1051.1"
   height="382"
   inkscape:version="1.3 (0e150ed6c4, 2023-07-21)"
   xmlns:inkscape="http://www.inkscape.org/namespaces/inkscape"
   xmlns:sodipodi="http://sodipodi.sourceforge.net/DTD/sodipodi-0.dtd"
   xmlns="http://www.w3.org/2000/svg"
   xmlns:svg="http://www.w3.org/2000/svg"><defs
   id="defs15" /><sodipodi:namedview
   id="namedview15"
   pagecolor="#ffffff"
   bordercolor="#000000"
   borderopacity="0.25"
   inkscape:showpageshadow="2"
   inkscape:pageopacity="0.0"
   inkscape:pagecheckerboard="0"
   inkscape:deskcolor="#d1d1d1"
   inkscape:zoom="1.5158333"
   inkscape:cx="525.12369"
   inkscape:cy="209.45574"
   inkscape:window-width="3840"
   inkscape:window-height="2054"
   inkscape:window-x="2869"
   inkscape:window-y="-11"
   inkscape:window-maximized="1"
   inkscape:current-layer="Layer_1" />&#10;<style
   type="text/css"
   id="style1">&#10;	.st0{display:none;}&#10;	.st1{display:none;fill:#FFFFFF;}&#10;	.st2{fill:#FFFFFF;}&#10;	.st3{fill-rule:evenodd;clip-rule:evenodd;fill:#207178;}&#10;	.st4{fill:#207178;}&#10;</style>&#10;<rect
   class="st0"
   width="1200"
   height="1200"
   id="rect1"
   x="-74.699997"
   y="-390.79999" />&#10;<rect
   class="st1"
   width="1200"
   height="1200"
   id="rect2"
   x="-74.699997"
   y="-390.79999" />&#10;<path
   d="m 578.2,52.7 h 0.5 l 12,82 H 566.1 Z M 598.3,23.9 H 561 l -26,162.2 h 23.4 l 4.4,-29.4 h 31.3 l 4.4,29.4 h 25.8 z M 451.6,186.1 H 519 V 162.9 H 477.1 V 23.9 H 451.6 Z M 346.7,23.9 v 123.5 c 0,26 13,40.8 38,40.8 25,0 38,-14.8 38,-40.8 V 23.9 H 398.6 V 149 c 0,11.6 -5.1,15.8 -13.2,15.8 -8.1,0 -13.2,-4.2 -13.2,-15.8 V 23.9 Z m -100.6,0 h -35.5 v 162.2 h 22.2 V 71.4 h 0.5 l 18.5,114.7 h 24.1 L 293,69.8 h 0.5 v 116.3 h 24.1 V 23.9 h -35.3 l -17.1,115.2 h -0.5 z M 131.4,186.1 h 25.5 V 132.3 L 189.1,23.9 h -24.3 l -19.2,73.9 h -0.5 L 125.9,23.9 H 99.300003 L 131.5,132.3 Z M 6.0000031,62.9 c 0,18.5 6.6999999,32 27.9999999,50.8 16.7,14.6 21.8,23.4 21.8,35.2 0,11.8 -5.1,15.8 -13.2,15.8 -8.1,0 -13.2,-4.2 -13.2,-15.8 V 137.2 H 5.3000031 v 10 c 0,26 12.9999999,40.8 37.9999999,40.8 25,0 38,-14.8 38,-40.8 0,-18.5 -6.7,-32 -28,-50.8 -16.7,-14.6 -21.8,-23.4 -21.8,-35.2 0,-11.8 4.6,-16 12.7,-16 8.1,0 12.7,4.4 12.7,16 v 6.7 h 24.1 v -5.1 c 0,-26 -12.7,-40.8 -37.5,-40.8 -24.8,0 -37.4999999,14.9 -37.4999999,40.9 z"
   id="path2" />&#10;<rect
   x="0"
   y="249.99998"
   width="1051.1"
   height="132"
   id="rect3" />&#10;<path
   class="st2"
   d="m 415.4,328.5 19.4,-43.3 19.4,43.3 z m 51.5,28.4 h 9 L 439,276.2 h -8.4 l -36.9,80.7 h 8.9 l 9.7,-21.5 h 44.9 z m -107.7,0 h 8.5 v -80.7 h -8.5 z m -99.4,-7.4 v -65.9 h 23.9 c 21.4,0 35.3,13.6 35.3,33 0,19.4 -13.8,33 -35.3,33 z m -8.5,7.4 h 32.8 c 25.8,0 43.2,-16.6 43.2,-40.3 0,-23.7 -17.4,-40.3 -43.2,-40.3 h -32.8 z m -81.2,-7.4 v -30 h 41.7 v -7.3 h -41.7 v -28.7 h 46.8 v -7.3 h -55.3 v 80.7 h 57 v -7.4 z m -54.5,-73.2 -34.699997,59.8 -35,-59.8 h -7 V 357 h 8.2 v -64.2 l 31.7,53.9 h 4 L 114.5,292.4 v 64.5 h 8.2 v -80.7 z"
   id="path3" />&#10;<path
   class="st2"
   d="m 985.8,324 h -21.4 v -40.3 h 21.4 c 16.1,0 24.7,7.4 24.7,20.3 0,12.9 -8.6,20 -24.7,20 z M 986,276.3 H 955.8 V 357 h 8.5 V 331.5 H 986 c 20.5,0 33,-10.4 33,-27.5 0,-17.1 -12.4,-27.7 -33,-27.7 z m -101.6,81.3 c 20.6,0 33.1,-12 33.1,-35.2 v -46.2 h -8.3 v 45.9 c 0,19.1 -9,27.9 -24.8,27.9 -15.8,0 -24.7,-8.8 -24.7,-27.9 v -45.9 h -8.5 v 46.2 c 0,23.2 12.6,35.2 33.2,35.2 z M 777.8,350 c -19.5,0 -34,-14.2 -34,-33.4 0,-19.2 14.5,-33.4 34,-33.4 19.5,0 33.8,14.2 33.8,33.4 0,19.2 -14.4,33.4 -33.8,33.4 z m 0,7.6 c 24.2,0 42.3,-17.4 42.3,-41 0,-23.6 -18.1,-41 -42.3,-41 -24.2,0 -42.4,17.5 -42.4,41 0,23.5 18,41 42.4,41 z M 676.5,324.1 h -21.4 v -40.5 h 21.4 c 16.1,0 24.7,7.4 24.7,20.3 0,12.9 -8.6,20.2 -24.7,20.2 z m 34.5,32.8 -19.7,-27.6 c 11.8,-3.8 18.4,-12.7 18.4,-25.3 0,-17.3 -12.5,-27.7 -33,-27.7 H 646.5 V 357 h 8.5 v -25.6 h 21.7 c 2.3,0 4.4,-0.1 6.5,-0.3 L 701.6,357 Z M 601.6,343.8 c -6.2,4.5 -13.4,6.2 -21.1,6.2 -19.8,0 -34.5,-14.3 -34.5,-33.4 0,-19.1 14.6,-33.4 34.6,-33.4 9.5,0 17.5,2.8 24.3,9.5 l 5.3,-5.4 c -7.1,-7.7 -17.8,-11.6 -30,-11.6 -24.7,0 -42.6,17.4 -42.6,41 0,23.6 18,41 42.5,41 11.2,0 22,-3.5 29.6,-10.3 v -30.8 h -8.2 z"
   id="path4" />&#10;<path
   class="st3"
   d="m 900.4,35.4 c 40,0 72.8,31.9 72.8,72.8 0,40.9 -32.8,72.8 -72.8,72.8 -40,0 -72.8,-32.8 -72.8,-72.8 0,-40 31.8,-72.8 72.8,-72.8 z m 81,1 h 40.9 c 3.7,0 7.3,2.7 7.3,6.4 0,4.5 -3.7,7.3 -7.3,7.3 h -40.9 c -4.6,0 -7.3,-2.7 -7.3,-7.3 0,-3.7 2.7,-6.4 7.3,-6.4 z M 764.8,27.3 H 1036 c 6.4,0 10.9,4.5 10.9,10.9 v 139.2 c 0,6.4 -4.6,11.8 -10.9,11.8 H 764.8 c -6.4,0 -11.8,-5.5 -11.8,-11.8 V 38.2 c -0.1,-6.4 5.4,-10.9 11.8,-10.9 z"
   id="path5" />&#10;<path
   class="st4"
   d="m 949.5,58.2 c -12.7,-11.8 -30,-20 -49.2,-20 -19.2,0 -37.3,8.2 -49.2,20 l -0.9,0.9 c -11.8,11.8 -20,30 -20,49.1 0,19.1 8.2,36.4 20,49.2 h 0.9 c 11.8,12.7 30,20 49.2,20 19.2,0 36.4,-7.3 49.2,-20 12.7,-12.7 20,-30 20,-49.1 0,-19.1 -7.3,-37.3 -20,-49.1 z M 900.4,31.8 c 20.9,0 40,8.2 53.7,22.8 13.7,13.6 21.8,32.8 21.8,53.7 0,20.9 -8.2,40 -21.8,53.7 -13.6,13.7 -32.8,21.8 -53.7,21.8 -20.9,0 -40,-8.2 -53.7,-21.8 -14.6,-13.7 -22.8,-32.8 -22.8,-53.7 0,-20.9 8.2,-40 22.8,-53.7 13.6,-14.6 32.7,-22.8 53.7,-22.8 z m 121.9,7.3 h -40.9 c -1.8,0 -2.7,0.9 -3.7,0.9 0,0.9 -0.9,1.8 -0.9,2.7 0,1.8 0.9,2.7 0.9,2.7 v 0.9 c 0.9,0 1.8,0.9 3.7,0.9 h 40.9 c 0.9,0 1.8,-0.9 2.7,-1.8 0.9,0 0.9,-0.9 0.9,-2.7 0,-0.9 0,-1.8 -0.9,-2.7 -0.9,0 -1.8,-0.9 -2.7,-0.9 z m -40.9,-6.4 h 40.9 c 2.7,0 5.5,0.9 7.3,2.7 1.8,2.7 2.7,4.5 2.7,7.3 0,3.6 -0.9,5.5 -2.7,7.3 -1.8,1.8 -4.6,3.6 -7.3,3.6 h -40.9 c -3.7,0 -5.5,-1.8 -7.3,-3.6 -1.8,-1.8 -3.7,-3.6 -3.7,-7.3 0,-2.7 1.8,-4.5 3.7,-7.3 1.8,-1.8 3.6,-2.7 7.3,-2.7 z M 1036,30 H 764.8 c -2.7,0 -4.5,0.9 -6.4,2.7 -0.9,0.9 -1.8,3.6 -1.8,5.5 v 139.2 c 0,2.7 0.9,4.5 1.8,6.4 1.8,0.9 3.7,1.8 6.4,1.8 H 1036 c 1.8,0 3.7,-0.9 5.5,-1.8 1.8,-1.8 2.7,-3.7 2.7,-6.4 V 38.2 c 0,-1.8 -0.9,-4.5 -2.7,-5.5 -1.9,-1.8 -3.7,-2.7 -5.5,-2.7 z M 764.8,23.6 H 1036 c 3.7,0 7.3,1.8 10,4.5 2.7,2.7 4.6,6.4 4.6,10 v 139.3 c 0,4.5 -1.8,8.2 -4.6,10.9 -2.7,1.8 -6.4,3.7 -10,3.7 H 764.8 c -4.5,0 -8.2,-1.8 -10.9,-3.7 -1.8,-2.7 -3.7,-6.4 -3.7,-10.9 V 38.2 c 0,-3.6 1.8,-7.3 3.7,-10 2.7,-2.8 6.3,-4.6 10.9,-4.6 z"
   id="path6" />&#10;<path
   class="st4"
   d="m 949.5,58.2 c -12.7,-11.8 -30,-20 -49.2,-20 -19.2,0 -37.3,8.2 -49.2,20 l -0.9,0.9 c -11.8,11.8 -20,30 -20,49.1 0,19.1 8.2,36.4 20,49.2 h 0.9 c 11.8,12.7 30,20 49.2,20 19.2,0 36.4,-7.3 49.2,-20 12.7,-12.7 20,-30 20,-49.1 0,-19.1 -7.3,-37.3 -20,-49.1 z M 900.4,31.8 c 20.9,0 40,8.2 53.7,22.8 13.7,13.6 21.8,32.8 21.8,53.7 0,20.9 -8.2,40 -21.8,53.7 -13.6,13.7 -32.8,21.8 -53.7,21.8 -20.9,0 -40,-8.2 -53.7,-21.8 -14.6,-13.7 -22.8,-32.8 -22.8,-53.7 0,-20.9 8.2,-40 22.8,-53.7 13.6,-14.6 32.7,-22.8 53.7,-22.8 z"
   id="path7" />&#10;<path
   class="st4"
   d="m 865.8,142.9 c 8.2,8.2 20.9,13.7 34.6,13.7 13.7,0 25.5,-5.5 34.6,-13.7 8.2,-9.1 13.7,-20.9 13.7,-34.6 0,-13.7 -5.5,-26.4 -13.7,-34.6 -9.1,-9.1 -20.9,-14.6 -34.6,-14.6 -13.7,0 -26.4,5.5 -34.6,14.6 -9.1,8.2 -14.6,20.9 -14.6,34.6 0,13.7 5.5,25.5 14.6,34.6 z m 34.6,20 c -15.5,0 -29.1,-5.5 -39.1,-15.5 -10,-10 -16.4,-24.6 -16.4,-39.1 0,-15.5 6.4,-29.1 16.4,-39.1 10,-10 23.7,-16.4 39.1,-16.4 14.6,0 29.1,6.4 39.1,16.4 10,10 15.5,23.7 15.5,39.1 0,14.6 -5.5,29.1 -15.5,39.1 -10,10 -24.6,15.5 -39.1,15.5 z"
   id="path8" />&#10;<path
   class="st4"
   d="m 1022.3,37.3 h -40.9 c -1.8,0 -3.7,0.9 -4.6,1.8 -0.9,0.9 -1.8,2.7 -1.8,3.6 0,1.8 0.9,3.6 1.8,4.5 0.9,0.9 2.7,1.8 4.6,1.8 h 40.9 c 1.8,0 2.7,-0.9 3.7,-1.8 1.8,-0.9 1.8,-2.7 1.8,-4.5 0,-0.9 0,-2.7 -1.8,-3.6 -0.9,-0.9 -1.8,-1.8 -3.7,-1.8 z m -40.9,-2.8 h 40.9 c 2.7,0 4.6,0.9 6.4,2.7 1.8,0.9 2.7,3.6 2.7,5.5 0,2.7 -0.9,4.5 -2.7,6.4 -1.8,1.9 -3.7,2.7 -6.4,2.7 h -40.9 c -2.7,0 -4.6,-0.9 -6.4,-2.7 -1.8,-1.8 -2.7,-3.6 -2.7,-6.4 0,-1.8 0.9,-4.5 2.7,-5.5 1.8,-1.8 3.7,-2.7 6.4,-2.7 z"
   id="path9" />&#10;<path
   class="st3"
   d="m 861.3,0.9 h 78.3 c 13.6,0 25.5,10 29.1,23.7 H 832.1 C 834.8,10.9 846.7,0.9 861.3,0.9 Z"
   id="path10" />&#10;<path
   class="st4"
   d="m 861.3,0 h 78.3 c 8.2,0 16.4,3.6 21.8,9.1 4.6,4.5 7.3,9.1 8.2,15.5 h -2.7 C 966,19.1 963.2,14.6 959.6,11 954.1,6.5 946.9,2.8 939.6,2.8 h -78.3 c -8.2,0 -15.5,3.6 -20.9,8.2 -3.7,3.6 -5.5,8.2 -7.3,13.6 h -2.8 c 1.8,-6.4 4.5,-10.9 8.2,-15.5 C 844.9,3.6 852.1,0 861.3,0 Z"
   id="path11" />&#10;<path
   class="st3"
   d="m 784.8,19.1 h 20 c 2.7,0 5.5,1.8 6.4,4.5 h -32.8 c 0.9,-2.7 2.7,-4.5 6.4,-4.5 z"
   id="path12" />&#10;<path
   class="st4"
   d="m 804.8,20 h -20 c -1.8,0 -2.7,0.9 -3.7,0.9 0,0.6 -0.3,1.2 -0.9,1.8 h 29.1 c -0.6,-0.6 -0.9,-1.2 -0.9,-1.8 -0.9,0 -2.7,-0.9 -3.6,-0.9 z m -20,-2.8 h 20 c 1.8,0 3.7,0.9 4.5,1.8 1.8,0.9 2.7,2.7 2.7,4.5 l 0.9,1.8 h -36.4 l 0.9,-1.8 c 0,-1.8 0.9,-3.6 1.8,-4.5 1.9,-0.8 3.8,-1.8 5.6,-1.8 z"
   id="path13" />&#10;<path
   class="st4"
   d="m 784.8,15.4 h 20 c 2.7,0 5.5,0.9 6.4,2.7 1.8,1.8 2.7,3.6 2.7,5.5 h -6.4 c 0,0 0,-0.9 -0.9,-0.9 0,0 -0.9,-0.9 -1.8,-0.9 h -20 c -0.9,0 -1.8,0.9 -2.7,0.9 v 0.9 h -6.4 c 0,-1.8 0.9,-3.6 2.7,-5.5 0.9,-1.8 3.7,-2.7 6.4,-2.7 z"
   id="path14" />&#10;<path
   class="st4"
   d="m 804.8,17.2 h -20 c -2.7,0 -4.5,0.9 -5.5,1.8 -0.9,0.9 -1.8,1.8 -1.8,2.7 l -0.9,0.9 h 4.5 v -0.9 c 0.9,0 0.9,-0.9 1.8,-0.9 h 21.8 c 0.9,0 2.7,0 2.7,0.9 0.9,0 0.9,0.9 0.9,0.9 h 3.7 v -0.9 c 0,-0.9 -0.9,-1.8 -1.8,-2.7 -0.9,0 -0.9,-0.9 -2.7,-1.8 h -2.7 z m -20,-2.7 h 20 c 1.8,0 2.7,0 4.5,0.9 0.9,0 1.8,0.9 2.7,1.8 l 2.7,2.7 c 0,1.8 0.9,2.7 0.9,3.6 v 1.8 h -9.1 v -1.8 h -23.7 v 1.8 h -9.1 v -1.8 c 0,-0.9 0.9,-1.8 0.9,-3.6 0.9,-0.9 1.8,-1.8 1.8,-2.7 2.9,-1.8 4.7,-2.7 8.4,-2.7 z"
   id="path15" />&#10;</svg>
