<?xml version="1.0" encoding="UTF-8" standalone="no"?>
<!-- Generator: Adobe Illustrator 27.8.1, SVG Export Plug-In . SVG Version: 6.00 Build 0)  -->

<svg
   version="1.1"
   id="Layer_1"
   x="0px"
   y="0px"
   viewBox="0 0 803.29999 707.20001"
   xml:space="preserve"
   sodipodi:docname="Symula Logo Stacked White-01.svg"
   width="803.29999"
   height="707.20001"
   inkscape:version="1.3 (0e150ed6c4, 2023-07-21)"
   xmlns:inkscape="http://www.inkscape.org/namespaces/inkscape"
   xmlns:sodipodi="http://sodipodi.sourceforge.net/DTD/sodipodi-0.dtd"
   xmlns="http://www.w3.org/2000/svg"
   xmlns:svg="http://www.w3.org/2000/svg"><defs
   id="defs15" /><sodipodi:namedview
   id="namedview15"
   pagecolor="#ffffff"
   bordercolor="#000000"
   borderopacity="0.25"
   inkscape:showpageshadow="2"
   inkscape:pageopacity="0.0"
   inkscape:pagecheckerboard="0"
   inkscape:deskcolor="#d1d1d1"
   inkscape:zoom="1.5158333"
   inkscape:cx="397.80099"
   inkscape:cy="363.16658"
   inkscape:window-width="3840"
   inkscape:window-height="2054"
   inkscape:window-x="2869"
   inkscape:window-y="-11"
   inkscape:window-maximized="1"
   inkscape:current-layer="Layer_1" />&#10;<style
   type="text/css"
   id="style1">&#10;	.st0{display:none;}&#10;	.st1{display:none;fill:#FFFFFF;}&#10;	.st2{fill:#FFFFFF;}&#10;	.st3{fill:#207178;}&#10;	.st4{fill-rule:evenodd;clip-rule:evenodd;fill:#FFFFFF;}&#10;</style>&#10;<rect
   class="st0"
   width="1200"
   height="1200"
   id="rect1"
   x="-201.60001"
   y="-236.7" />&#10;<rect
   class="st1"
   width="1200"
   height="1200"
   id="rect2"
   x="-201.60001"
   y="-236.7" />&#10;<path
   class="st2"
   d="m 736.59999,387.9 h 0.6 l 15.3,104.5 h -31.3 z m 25.7,-36.6 h -47.5 l -33.1,206.7 h 29.8 l 5.6,-37.5 h 39.9 l 5.6,37.5 h 32.8 z m -186.9,206.7 h 85.9 v -29.5 h -53.4 V 351.3 h -32.5 z m -133.7,-206.7 v 157.4 c 0,33.1 16.5,52 48.4,52 31.9,0 48.4,-18.9 48.4,-52 V 351.3 h -30.7 v 159.4 c 0,14.8 -6.5,20.1 -16.8,20.1 -10.3,0 -16.8,-5.3 -16.8,-20.1 V 351.3 Z m -128.2,0 h -45.1 V 558 h 28.3 V 411.9 h 0.6 l 23.6,146.2 h 30.7 l 21.8,-148.2 h 0.6 v 148.2 h 30.7 V 351.3 h -45.2 l -21.8,146.7 h -0.6 z m -146.1,206.7 h 32.5 v -68.5 l 41,-138.2 h -31 l -24.5,94.2 h -0.6 l -24.5,-94.2 h -34 l 41,138.2 V 558 Z M 7.5999939,400.9 c 0,23.6 8.6000001,40.8 35.7000001,64.7 21.3,18.6 27.8,29.8 27.8,44.9 0,15.1 -6.5,20.1 -16.8,20.1 -10.3,0 -16.8,-5.3 -16.8,-20.1 V 495.7 H 6.7999939 v 12.7 c 0,33.1 16.5000001,52 48.4000001,52 31.9,0 48.399996,-18.9 48.399996,-52 0,-23.6 -8.599996,-40.8 -35.699996,-64.7 -21.3,-18.6 -27.8,-29.8 -27.8,-44.9 0,-15.1 5.9,-20.4 16.2,-20.4 10.3,0 16.2,5.6 16.2,20.4 v 8.6 h 30.699996 v -6.5 c 0,-33.1 -16.199996,-52 -47.799996,-52 -31.6,0 -47.8000001,19 -47.8000001,52 z"
   id="path2" />&#10;<rect
   x="0"
   y="606.29999"
   class="st2"
   width="803.29999"
   height="100.9"
   id="rect3" />&#10;<path
   class="st3"
   d="m 317.39999,666.3 14.8,-33.1 14.8,33.1 z m 39.4,21.7 h 6.9 l -28.2,-61.7 h -6.4 l -28.2,61.7 h 6.8 l 7.4,-16.5 h 34.3 z m -82.3,0 h 6.5 v -61.7 h -6.5 z m -76,-5.6 V 632 h 18.2 c 16.4,0 27,10.4 27,25.2 0,14.8 -10.6,25.2 -27,25.2 z m -6.5,5.6 h 25.1 c 19.7,0 33,-12.7 33,-30.8 0,-18.1 -13.3,-30.8 -33,-30.8 h -25.1 z m -62.1,-5.6 v -22.9 h 31.9 V 654 h -31.9 v -21.9 h 35.8 v -5.6 h -42.3 v 61.7 h 43.6 v -5.6 z m -41.599996,-56 -26.5,45.7 -26.8,-45.7 h -5.4 v 61.7 h 6.2 V 639 l 24.2,41.2 h 3.1 l 24.2,-41.5 V 688 h 6.2 v -61.7 z"
   id="path3" />&#10;<path
   class="st3"
   d="m 753.39999,662.8 h -16.4 V 632 h 16.4 c 12.3,0 18.8,5.6 18.8,15.5 0,9.9 -6.5,15.3 -18.8,15.3 z m 0.2,-36.4 h -23.1 v 61.7 h 6.5 v -19.5 h 16.6 c 15.7,0 25.2,-7.9 25.2,-21 0,-13.1 -9.5,-21.2 -25.2,-21.2 z m -77.7,62.2 c 15.8,0 25.3,-9.2 25.3,-26.9 v -35.3 h -6.3 v 35 c 0,14.6 -6.9,21.3 -18.9,21.3 -12,0 -18.8,-6.7 -18.8,-21.3 v -35 h -6.5 v 35.3 c -0.2,17.7 9.4,26.9 25.2,26.9 z m -81.5,-5.8 c -14.9,0 -26,-10.8 -26,-25.5 0,-14.7 11.1,-25.5 26,-25.5 14.9,0 25.8,10.8 25.8,25.5 0,14.7 -11,25.5 -25.8,25.5 z m 0,5.8 c 18.5,0 32.3,-13.3 32.3,-31.3 0,-18 -13.8,-31.3 -32.3,-31.3 -18.5,0 -32.4,13.4 -32.4,31.3 0,17.9 13.8,31.3 32.4,31.3 z m -77.4,-25.7 h -16.4 V 632 h 16.4 c 12.3,0 18.8,5.6 18.8,15.5 0,9.9 -6.5,15.4 -18.8,15.4 z m 26.3,25.1 -15.1,-21.1 c 9,-2.9 14.1,-9.7 14.1,-19.4 0,-13.2 -9.5,-21.1 -25.2,-21.1 h -23.1 v 61.7 h 6.5 v -19.5 h 16.6 c 1.8,0 3.3,-0.1 4.9,-0.3 l 14.1,19.8 h 7.2 z m -83.5,-10 c -4.8,3.4 -10.2,4.8 -16.1,4.8 -15.2,0 -26.3,-10.9 -26.3,-25.5 0,-14.6 11.2,-25.5 26.4,-25.5 7.2,0 13.4,2.1 18.6,7.2 l 4,-4.1 c -5.5,-5.9 -13.6,-8.9 -22.9,-8.9 -18.8,0 -32.6,13.3 -32.6,31.3 0,18 13.7,31.3 32.5,31.3 8.5,0 16.8,-2.6 22.6,-7.8 v -23.5 h -6.2 z"
   id="path4" />&#10;<path
   class="st4"
   d="m 398.39999,52.5 c 59.2,0 107.7,47.1 107.7,107.6 0,60.5 -48.5,107.7 -107.7,107.7 -59.2,0 -107.6,-48.5 -107.6,-107.6 0,-59.1 47.1,-107.7 107.6,-107.7 z m 119.8,1.4 h 60.5 c 5.4,0 10.8,4 10.8,9.4 0,6.7 -5.4,10.8 -10.8,10.8 h -60.5 c -6.7,0 -10.8,-4 -10.8,-10.8 0,-5.4 4.1,-9.4 10.8,-9.4 z m -320.3,-13.5 h 401 c 9.4,0 16.2,6.7 16.2,16.2 v 205.9 c 0,9.4 -6.7,17.5 -16.2,17.5 h -401 c -9.4,0 -17.5,-8.1 -17.5,-17.5 V 56.6 c 0,-9.5 8.1,-16.2 17.5,-16.2 z"
   id="path5" />&#10;<path
   class="st2"
   d="m 470.99999,86.1 c -18.8,-17.5 -44.4,-29.6 -72.7,-29.6 -28.3,0 -55.2,12.1 -72.7,29.6 l -1.3,1.4 c -17.5,17.5 -29.6,44.4 -29.6,72.7 0,28.3 12.1,53.8 29.6,72.7 h 1.3 c 17.5,18.8 44.4,29.6 72.7,29.6 28.3,0 53.8,-10.8 72.7,-29.6 18.8,-18.8 29.6,-44.4 29.6,-72.7 0,-28.3 -10.8,-55.2 -29.6,-72.7 z m -72.6,-39 c 31,0 59.2,12.1 79.4,33.6 20.2,20.2 32.3,48.5 32.3,79.4 0,30.9 -12.1,59.2 -32.3,79.4 -20.2,20.2 -48.5,32.3 -79.4,32.3 -30.9,0 -59.2,-12.1 -79.4,-32.3 -21.5,-20.2 -33.6,-48.5 -33.6,-79.4 0,-30.9 12.1,-59.2 33.6,-79.4 20.2,-21.5 48.4,-33.6 79.4,-33.6 z m 180.3,10.8 h -60.5 c -2.7,0 -4,1.4 -5.4,1.4 0,1.4 -1.3,2.7 -1.3,4 0,2.7 1.3,4 1.3,4 v 1.4 c 1.3,0 2.7,1.4 5.4,1.4 h 60.5 c 1.3,0 2.7,-1.4 4,-2.7 1.3,0 1.3,-1.4 1.3,-4 0,-1.4 0,-2.7 -1.3,-4 -1.3,-0.2 -2.7,-1.5 -4,-1.5 z m -60.5,-9.4 h 60.5 c 4,0 8.1,1.4 10.8,4 2.7,4 4,6.7 4,10.8 0,5.4 -1.3,8.1 -4,10.8 -2.7,2.7 -6.7,5.4 -10.8,5.4 h -60.5 c -5.4,0 -8.1,-2.7 -10.8,-5.4 -2.7,-2.7 -5.4,-5.4 -5.4,-10.8 0,-4 2.7,-6.7 5.4,-10.8 2.7,-2.7 5.4,-4 10.8,-4 z m 80.7,-4.1 h -401 c -4,0 -6.7,1.4 -9.4,4 -1.4,1.4 -2.7,5.4 -2.7,8.1 v 205.9 c 0,4 1.4,6.7 2.7,9.4 2.7,1.4 5.4,2.7 9.4,2.7 h 401 c 2.7,0 5.4,-1.4 8.1,-2.7 2.7,-2.7 4,-5.4 4,-9.4 V 56.5 c 0,-2.7 -1.3,-6.7 -4,-8.1 -2.7,-2.6 -5.4,-4 -8.1,-4 z m -401,-9.4 h 401 c 5.4,0 10.8,2.7 14.8,6.7 4,4 6.7,9.4 6.7,14.8 v 205.9 c 0,6.7 -2.7,12.1 -6.7,16.2 -4,2.7 -9.4,5.4 -14.8,5.4 h -401 c -6.7,0 -12.1,-2.7 -16.2,-5.4 -2.7,-4 -5.4,-9.4 -5.4,-16.2 V 56.5 c 0,-5.4 2.7,-10.8 5.4,-14.8 4.1,-4 9.5,-6.7 16.2,-6.7 z"
   id="path6" />&#10;<path
   class="st2"
   d="m 471.09999,86.1 c -18.8,-17.5 -44.4,-29.6 -72.7,-29.6 -28.3,0 -55.2,12.1 -72.7,29.6 l -1.3,1.4 c -17.5,17.5 -29.6,44.4 -29.6,72.7 0,28.3 12.1,53.8 29.6,72.7 h 1.3 c 17.5,18.8 44.4,29.6 72.7,29.6 28.3,0 53.8,-10.8 72.7,-29.6 18.8,-18.8 29.6,-44.4 29.6,-72.7 0,-28.3 -10.8,-55.2 -29.6,-72.7 z m -72.7,-39 c 31,0 59.2,12.1 79.4,33.6 20.2,20.2 32.3,48.5 32.3,79.4 0,30.9 -12.1,59.2 -32.3,79.4 -20.2,20.2 -48.4,32.4 -79.4,32.4 -31,0 -59.2,-12.1 -79.4,-32.3 -21.5,-20.2 -33.6,-48.5 -33.6,-79.4 0,-30.9 12.1,-59.2 33.6,-79.4 20.2,-21.6 48.4,-33.7 79.4,-33.7 z"
   id="path7" />&#10;<path
   class="st2"
   d="m 347.29999,211.3 c 12.1,12.1 31,20.2 51.1,20.2 20.1,0 37.7,-8.1 51.1,-20.2 12.1,-13.5 20.2,-31 20.2,-51.1 0,-20.1 -8.1,-39 -20.2,-51.1 -13.5,-13.5 -31,-21.5 -51.1,-21.5 -20.1,0 -39,8.1 -51.1,21.5 -13.5,12.1 -21.5,31 -21.5,51.1 0,20.1 8,37.6 21.5,51.1 z m 51.1,29.6 c -22.9,0 -43.1,-8.1 -57.9,-22.9 -14.8,-14.8 -24.2,-36.3 -24.2,-57.9 0,-22.9 9.4,-43.1 24.2,-57.9 14.8,-14.8 35,-24.2 57.9,-24.2 21.5,0 43.1,9.4 57.9,24.2 14.8,14.8 22.9,35 22.9,57.9 0,21.5 -8.1,43.1 -22.9,57.9 -14.8,14.8 -36.4,22.9 -57.9,22.9 z"
   id="path8" />&#10;<path
   class="st2"
   d="m 578.69999,55.2 h -60.5 c -2.7,0 -5.4,1.4 -6.7,2.7 -1.3,1.4 -2.7,4 -2.7,5.4 0,2.7 1.3,5.4 2.7,6.7 1.3,1.4 4,2.7 6.7,2.7 h 60.5 c 2.7,0 4,-1.4 5.4,-2.7 2.7,-1.4 2.7,-4 2.7,-6.7 0,-1.4 0,-4 -2.7,-5.4 -1.3,-1.4 -2.7,-2.7 -5.4,-2.7 z m -60.5,-4 h 60.5 c 4,0 6.7,1.4 9.4,4 2.7,1.4 4,5.4 4,8.1 0,4 -1.3,6.7 -4,9.4 -2.7,2.7 -5.4,4 -9.4,4 h -60.5 c -4,0 -6.7,-1.4 -9.4,-4 -2.7,-2.7 -4,-5.4 -4,-9.4 0,-2.7 1.3,-6.7 4,-8.1 2.6,-2.7 5.3,-4 9.4,-4 z"
   id="path9" />&#10;<path
   class="st4"
   d="m 340.59999,1.4 h 115.7 c 20.2,0 37.7,14.8 43.1,35 h -201.9 c 4,-20.2 21.5,-35 43.1,-35 z"
   id="path10" />&#10;<path
   class="st2"
   d="m 340.59999,0 h 115.7 c 12.1,0 24.2,5.4 32.3,13.5 6.7,6.7 10.8,13.5 12.1,22.9 h -4 c -1.3,-8.1 -5.4,-14.8 -10.8,-20.2 -8.1,-6.7 -18.8,-12.1 -29.6,-12.1 h -115.7 c -12.1,0 -22.9,5.4 -31,12.1 -5.4,5.4 -8.1,12.1 -10.8,20.2 h -4 c 2.7,-9.4 6.7,-16.2 12.1,-22.9 9.4,-8.1 20.2,-13.5 33.7,-13.5 z"
   id="path11" />&#10;<path
   class="st4"
   d="m 227.49999,28.3 h 29.6 c 4,0 8.1,2.7 9.4,6.7 h -48.5 c 1.4,-4 4.1,-6.7 9.5,-6.7 z"
   id="path12" />&#10;<path
   class="st2"
   d="m 257.09999,29.6 h -29.6 c -2.7,0 -4,1.4 -5.4,1.4 0,0.9 -0.4,1.8 -1.4,2.7 h 43.1 c -0.9,-0.9 -1.4,-1.8 -1.4,-2.7 -1.3,0 -4,-1.4 -5.3,-1.4 z m -29.6,-4 h 29.6 c 2.7,0 5.4,1.4 6.7,2.7 2.7,1.4 4,4 4,6.7 l 1.4,2.7 h -53.8 l 1.4,-2.7 c 0,-2.7 1.4,-5.4 2.7,-6.7 2.6,-1.4 5.3,-2.7 8,-2.7 z"
   id="path13" />&#10;<path
   class="st2"
   d="m 227.49999,22.9 h 29.6 c 4,0 8.1,1.4 9.4,4 2.7,2.7 4,5.4 4,8.1 h -9.4 c 0,0 0,-1.4 -1.4,-1.4 0,0 -1.4,-1.4 -2.7,-1.4 h -29.6 c -1.4,0 -2.7,1.4 -4,1.4 V 35 h -9.4 c 0,-2.7 1.4,-5.4 4,-8.1 1.4,-2.7 5.5,-4 9.5,-4 z"
   id="path14" />&#10;<path
   class="st2"
   d="m 257.09999,25.6 h -29.6 c -4,0 -6.7,1.4 -8.1,2.7 -1.4,1.3 -2.7,2.7 -2.7,4 l -1.4,1.4 h 6.7 v -1.4 c 1.4,0 1.4,-1.4 2.7,-1.4 h 32.3 c 1.4,0 4,0 4,1.4 1.4,0 1.4,1.4 1.4,1.4 h 5.4 v -1.4 c 0,-1.4 -1.4,-2.7 -2.7,-4 -1.4,0 -1.4,-1.4 -4,-2.7 h -4 z m -29.6,-4 h 29.6 c 2.7,0 4,0 6.7,1.4 1.4,0 2.7,1.4 4,2.7 1.4,1.4 2.7,2.7 4,4 0,2.7 1.4,4 1.4,5.4 v 2.7 h -13.5 v -2.7 h -35 v 2.7 h -13.3 v -2.7 c 0,-1.4 1.4,-2.7 1.4,-5.4 1.4,-1.4 2.7,-2.7 2.7,-4 3.9,-2.8 6.6,-4.1 12,-4.1 z"
   id="path15" />&#10;</svg>
