<?xml version="1.0" encoding="UTF-8" standalone="no"?>
<!-- Generator: Adobe Illustrator 27.8.1, SVG Export Plug-In . SVG Version: 6.00 Build 0)  -->

<svg
   version="1.1"
   id="Layer_1"
   x="0px"
   y="0px"
   viewBox="0 0 861.79999 550.90002"
   xml:space="preserve"
   sodipodi:docname="Symula Logo Watermark-01.svg"
   width="861.79999"
   height="550.90002"
   inkscape:version="1.3 (0e150ed6c4, 2023-07-21)"
   xmlns:inkscape="http://www.inkscape.org/namespaces/inkscape"
   xmlns:sodipodi="http://sodipodi.sourceforge.net/DTD/sodipodi-0.dtd"
   xmlns="http://www.w3.org/2000/svg"
   xmlns:svg="http://www.w3.org/2000/svg"><defs
   id="defs13" /><sodipodi:namedview
   id="namedview13"
   pagecolor="#ffffff"
   bordercolor="#000000"
   borderopacity="0.25"
   inkscape:showpageshadow="2"
   inkscape:pageopacity="0.0"
   inkscape:pagecheckerboard="0"
   inkscape:deskcolor="#d1d1d1"
   inkscape:zoom="1.5158333"
   inkscape:cx="406.37713"
   inkscape:cy="328.20231"
   inkscape:window-width="3840"
   inkscape:window-height="2054"
   inkscape:window-x="2869"
   inkscape:window-y="-11"
   inkscape:window-maximized="1"
   inkscape:current-layer="Layer_1" />&#10;<style
   type="text/css"
   id="style1">&#10;	.st0{display:none;}&#10;	.st1{display:none;fill:#FFFFFF;}&#10;	.st2{opacity:0.17;fill-rule:evenodd;clip-rule:evenodd;fill:#207178;enable-background:new    ;}&#10;	.st3{opacity:0.17;fill:#207178;enable-background:new    ;}&#10;	.st4{fill:#174C4F;}&#10;</style>&#10;<rect
   class="st0"
   width="1200"
   height="1200"
   id="rect1"
   x="-193.10001"
   y="-272" />&#10;<rect
   class="st1"
   width="1200"
   height="1200"
   id="rect2"
   x="-193.10001"
   y="-272" />&#10;<path
   class="st2"
   d="m 431.1,101.9 c 114.9,0 208.9,91.4 208.9,208.9 0,117.5 -94,208.9 -208.9,208.9 -114.9,0 -208.9,-94 -208.9,-208.9 0,-114.9 91.4,-208.9 208.9,-208.9 z m 232.4,2.6 H 781 c 10.5,0 20.9,7.9 20.9,18.3 0,13 -10.5,20.9 -20.9,20.9 H 663.5 c -13,0 -20.9,-7.9 -20.9,-20.9 0,-10.5 7.8,-18.3 20.9,-18.3 z M 41.9,78.4 h 778.2 c 18.3,0 31.4,13 31.4,31.4 v 399.6 c 0,18.3 -13,33.9 -31.3,33.9 H 41.9 C 23.6,543.3 8,527.6 8,509.4 V 109.7 C 8,91.4 23.7,78.4 41.9,78.4 Z"
   id="path2" />&#10;<path
   class="st3"
   d="m 572,167.2 c -36.5,-33.9 -86.2,-57.4 -141,-57.4 -54.8,0 -107.1,23.5 -141,57.4 l -2.6,2.6 c -33.9,33.9 -57.4,86.2 -57.4,141 0,54.8 23.5,104.5 57.4,141 h 2.6 c 33.9,36.5 86.2,57.4 141,57.4 54.8,0 104.5,-20.9 141,-57.4 36.5,-36.5 57.4,-86.2 57.4,-141 0,-54.8 -20.9,-107.1 -57.4,-141 z M 431,91.4 c 60.1,0 114.9,23.5 154.1,65.3 39.2,39.2 62.7,94 62.7,154.1 0,60.1 -23.5,114.9 -62.7,154.1 -39.2,39.2 -94,62.7 -154.1,62.7 -60.1,0 -114.9,-23.5 -154.1,-62.7 -41.8,-39.2 -65.3,-94 -65.3,-154.1 0,-60.1 23.5,-114.9 65.3,-154.1 39.2,-41.7 94,-65.3 154.1,-65.3 z m 349.9,20.9 H 663.4 c -5.2,0 -7.8,2.6 -10.5,2.6 0,2.6 -2.6,5.2 -2.6,7.9 0,5.2 2.6,7.9 2.6,7.9 v 2.6 c 2.6,0 5.2,2.6 10.5,2.6 h 117.5 c 2.6,0 5.2,-2.6 7.8,-5.2 2.6,0 2.6,-2.6 2.6,-7.9 0,-2.6 0,-5.2 -2.6,-7.9 -2.5,0.1 -5.1,-2.6 -7.8,-2.6 z M 663.4,94.1 h 117.5 c 7.8,0 15.7,2.6 20.9,7.9 5.2,7.9 7.8,13 7.8,20.9 0,10.5 -2.6,15.7 -7.8,20.9 -5.2,5.2 -13,10.5 -20.9,10.5 H 663.4 c -10.5,0 -15.7,-5.2 -20.9,-10.5 -5.2,-5.2 -10.5,-10.5 -10.5,-20.9 0,-7.9 5.2,-13 10.5,-20.9 5.3,-5.3 10.5,-7.9 20.9,-7.9 z M 820.2,86.2 H 41.9 c -7.9,0 -13,2.6 -18.3,7.9 -2.6,2.6 -5.2,10.5 -5.2,15.7 v 399.5 c 0,7.8 2.6,13 5.2,18.3 5.2,2.6 10.5,5.2 18.3,5.2 h 778.2 c 5.2,0 10.5,-2.6 15.7,-5.2 5.2,-5.2 7.8,-10.5 7.8,-18.3 V 109.7 c 0,-5.2 -2.6,-13 -7.8,-15.7 -5.2,-5.2 -10.4,-7.8 -15.6,-7.8 z M 41.9,67.9 h 778.2 c 10.5,0 20.9,5.2 28.7,13 7.8,7.9 13,18.3 13,28.7 v 399.5 c 0,13 -5.2,23.5 -13,31.3 -7.8,5.2 -18.3,10.5 -28.7,10.5 H 41.9 c -13,0 -23.5,-5.2 -31.4,-10.5 C 5.3,532.6 0,522.1 0,509.1 V 109.7 C 0,99.2 5.2,88.8 10.5,81 18.4,73.1 28.9,67.9 41.9,67.9 Z"
   id="path3" />&#10;<path
   class="st3"
   d="m 572,167.1 c -36.5,-33.9 -86.2,-57.4 -141,-57.4 -54.8,0 -107.1,23.5 -141,57.4 l -2.6,2.6 c -33.9,33.9 -57.4,86.2 -57.4,141 0,54.8 23.5,104.5 57.4,141 h 2.6 c 33.9,36.5 86.2,57.4 141,57.4 54.8,0 104.5,-20.9 141,-57.4 36.5,-36.5 57.4,-86.2 57.4,-141 0,-54.8 -20.9,-107.1 -57.4,-141 z M 431,91.4 c 60.1,0 114.9,23.5 154.1,65.3 39.2,39.2 62.7,94 62.7,154.1 0,60.1 -23.5,114.9 -62.7,154.1 -39.2,39.2 -94,62.7 -154.1,62.7 -60.1,0 -114.9,-23.5 -154.1,-62.7 -41.8,-39.2 -65.3,-94 -65.3,-154.1 0,-60.1 23.5,-114.9 65.3,-154.1 C 316.1,114.9 371,91.4 431,91.4 Z"
   id="path4" />&#10;<path
   class="st3"
   d="m 331.8,410 c 23.5,23.5 60.1,39.2 99.2,39.2 39.1,0 73.1,-15.7 99.2,-39.2 23.5,-26.1 39.2,-60.1 39.2,-99.2 0,-39.1 -15.7,-75.7 -39.2,-99.2 -26.1,-26.1 -60.1,-41.8 -99.2,-41.8 -39.1,0 -75.7,15.7 -99.2,41.8 -26.1,23.5 -41.8,60.1 -41.8,99.2 0,39.1 15.7,73.2 41.8,99.2 z m 99.2,57.5 c -44.4,0 -83.6,-15.7 -112.3,-44.4 -28.7,-28.7 -47,-70.5 -47,-112.3 0,-44.4 18.3,-83.6 47,-112.3 28.7,-28.7 67.9,-47 112.3,-47 41.8,0 83.6,18.3 112.3,47 28.7,28.7 44.4,67.9 44.4,112.3 0,41.8 -15.7,83.6 -44.4,112.3 -28.7,28.7 -70.5,44.4 -112.3,44.4 z"
   id="path5" />&#10;<path
   class="st3"
   d="M 781,107.1 H 663.5 c -5.2,0 -10.5,2.6 -13,5.2 -2.6,2.6 -5.2,7.9 -5.2,10.5 0,5.2 2.6,10.5 5.2,13 2.6,2.6 7.8,5.2 13,5.2 H 781 c 5.2,0 7.8,-2.6 10.5,-5.2 5.2,-2.6 5.2,-7.9 5.2,-13 0,-2.6 0,-7.9 -5.2,-10.5 -2.7,-2.6 -5.3,-5.2 -10.5,-5.2 z M 663.5,99.2 H 781 c 7.8,0 13,2.6 18.3,7.9 5.2,2.6 7.8,10.5 7.8,15.7 0,7.9 -2.6,13 -7.8,18.3 -5.2,5.2 -10.5,7.9 -18.3,7.9 H 663.5 c -7.8,0 -13,-2.6 -18.3,-7.9 -5.2,-5.2 -7.8,-10.5 -7.8,-18.3 0,-5.2 2.6,-13 7.8,-15.7 5.2,-5.2 10.4,-7.9 18.3,-7.9 z"
   id="path6" />&#10;<path
   class="st2"
   d="m 318.8,2.6 h 224.6 c 39.2,0 73.1,28.7 83.6,67.9 H 235.2 C 243,31.4 276.9,2.6 318.8,2.6 Z"
   id="path7" />&#10;<path
   class="st3"
   d="m 318.8,0 h 224.6 c 23.5,0 47,10.5 62.7,26.1 13,13 20.9,26.1 23.5,44.4 h -7.8 C 619.2,54.8 611.3,41.8 600.9,31.3 585.2,18.3 564.4,7.8 543.5,7.8 H 318.8 c -23.5,0 -44.4,10.5 -60.1,23.5 -10.5,10.5 -15.7,23.5 -20.9,39.2 h -7.9 c 5.2,-18.3 13,-31.4 23.5,-44.4 C 271.7,10.5 292.6,0 318.8,0 Z"
   id="path8" />&#10;<path
   class="st2"
   d="m 99.4,54.9 h 57.4 c 7.9,0 15.7,5.2 18.3,13 h -94 c 2.6,-7.8 7.8,-13 18.3,-13 z"
   id="path9" />&#10;<path
   class="st3"
   d="M 156.8,57.5 H 99.4 c -5.2,0 -7.9,2.6 -10.5,2.6 0,1.7 -0.9,3.5 -2.6,5.2 h 83.6 c -1.7,-1.7 -2.6,-3.5 -2.6,-5.2 -2.7,0 -7.9,-2.6 -10.5,-2.6 z M 99.4,49.6 h 57.4 c 5.2,0 10.5,2.6 13,5.2 5.2,2.6 7.9,7.9 7.9,13 l 2.6,5.2 H 75.8 l 2.6,-5.2 c 0,-5.2 2.6,-10.5 5.2,-13 5.3,-2.5 10.5,-5.2 15.8,-5.2 z"
   id="path10" />&#10;<path
   class="st3"
   d="m 99.4,44.4 h 57.4 c 7.9,0 15.7,2.6 18.3,7.9 5.2,5.2 7.9,10.5 7.9,15.7 h -18.3 c 0,0 0,-2.6 -2.6,-2.6 0,0 -2.6,-2.6 -5.2,-2.6 H 99.5 c -2.6,0 -5.2,2.6 -7.9,2.6 V 68 H 73.3 c 0,-5.2 2.6,-10.5 7.9,-15.7 2.5,-5.3 10.4,-7.9 18.2,-7.9 z"
   id="path11" />&#10;<path
   class="st3"
   d="M 156.8,49.6 H 99.4 c -7.9,0 -13,2.6 -15.7,5.2 -2.6,2.6 -5.2,5.2 -5.2,7.9 l -2.6,2.6 h 13 v -2.6 c 2.6,0 2.6,-2.6 5.2,-2.6 h 62.7 c 2.6,0 7.9,0 7.9,2.6 2.6,0 2.6,2.6 2.6,2.6 h 10.5 v -2.6 c 0,-2.6 -2.6,-5.2 -5.2,-7.9 -2.6,0 -2.6,-2.6 -7.9,-5.2 h -7.9 z M 99.4,41.8 h 57.4 c 5.2,0 7.9,0 13,2.6 2.6,0 5.2,2.6 7.9,5.2 2.6,2.6 5.2,5.2 7.9,7.9 0,5.2 2.6,7.9 2.6,10.5 v 5.2 H 162.1 V 68 H 94.2 v 5.2 H 68.1 V 68 c 0,-2.6 2.6,-5.2 2.6,-10.5 2.6,-2.6 5.2,-5.2 5.2,-7.9 7.8,-5.2 13,-7.8 23.5,-7.8 z"
   id="path12" />&#10;<path
   class="st4"
   d="m 637.9,330.2 h 19.9 v 51.4 c 0,19.9 -8.8,27.1 -22.7,27.1 -13.9,0 -22.7,-7.2 -22.7,-27.1 V 231.1 c 0,-19.9 8.8,-27.5 22.7,-27.5 13.9,0 22.7,7.6 22.7,27.5 V 261 h 41.4 v -27.1 c 0,-44.6 -22.3,-70.1 -65.3,-70.1 -43,0 -65.3,25.5 -65.3,70.1 v 144.9 c 0,44.6 22.3,70.1 65.3,70.1 43,0 65.3,-25.5 65.3,-70.1 V 290.4 H 637.9 Z M 397.4,166.9 h -60.9 v 278.7 h 38.2 v -197 h 0.8 l 31.8,197.1 h 41.4 l 29.5,-199.9 h 0.8 v 199.9 h 41.4 V 166.9 H 459.5 L 430,364.8 h -0.8 z m -234.9,66.9 c 0,31.9 11.5,54.9 48.2,87.2 28.7,25.1 37.4,40.2 37.4,60.5 0,20.3 -8.8,27.1 -22.7,27.1 -13.9,0 -22.7,-7.2 -22.7,-27.1 v -19.9 h -41.4 v 17.1 c 0,44.6 22.3,70.1 65.3,70.1 43,0 65.3,-25.5 65.3,-70.1 0,-31.8 -11.5,-55 -48.2,-87.2 -28.7,-25.1 -37.4,-40.2 -37.4,-60.5 0,-20.3 8,-27.5 21.9,-27.5 13.9,0 21.9,7.6 21.9,27.5 v 11.6 h 41.4 v -8.8 c 0,-44.6 -21.9,-70.1 -64.5,-70.1 -42.6,0 -64.6,25.5 -64.5,70.1 z"
   id="path13" />&#10;</svg>
