<?xml version="1.0" encoding="UTF-8"?>
<svg id="Layer_1" data-name="Layer 1" xmlns="http://www.w3.org/2000/svg" viewBox="0 0 1200 1200">
  <defs>
    <style>
      .cls-1 {
        fill: #fff;
      }

      .cls-2, .cls-3 {
        fill: #207178;
        opacity: .17;
      }

      .cls-3 {
        fill-rule: evenodd;
      }

      .cls-4 {
        fill: #174c4f;
      }
    </style>
  </defs>
  <rect width="1200" height="1200"/>
  <rect class="cls-1" width="1200" height="1200"/>
  <path class="cls-3" d="m624.16,373.86c114.92,0,208.91,91.42,208.91,208.91s-94.02,208.91-208.91,208.91-208.91-94.02-208.91-208.91,91.42-208.91,208.91-208.91Zm232.43,2.62h117.5c10.46,0,20.89,7.85,20.89,18.28,0,13.04-10.46,20.89-20.89,20.89h-117.5c-13.04,0-20.89-7.85-20.89-20.89,0-10.46,7.85-18.28,20.89-18.28Zm-621.55-26.12h778.22c18.28,0,31.35,13.04,31.35,31.35v399.55c0,18.28-13.04,33.94-31.35,33.94H235.04c-18.28,0-33.94-15.66-33.94-33.94v-399.55c0-18.28,15.66-31.35,33.94-31.35Z"/>
  <path class="cls-2" d="m765.1,439.16c-36.55-33.94-86.18-57.44-141.01-57.44s-107.07,23.51-141.01,57.44l-2.62,2.62c-33.94,33.94-57.44,86.18-57.44,141.01s23.51,104.46,57.44,141.01h2.62c33.94,36.55,86.18,57.44,141.01,57.44s104.46-20.89,141.01-57.44c36.55-36.55,57.44-86.18,57.44-141.01s-20.89-107.07-57.44-141.01v-2.62Zm-141.01-75.72c60.06,0,114.92,23.51,154.09,65.29,39.17,39.17,62.67,94.02,62.67,154.09s-23.51,114.92-62.67,154.09c-39.17,39.17-94.02,62.67-154.09,62.67s-114.92-23.51-154.09-62.67c-41.78-39.17-65.29-94.02-65.29-154.09s23.51-114.92,65.29-154.09c39.17-41.78,94.02-65.29,154.09-65.29Zm349.96,20.89h-117.5c-5.23,0-7.85,2.62-10.46,2.62,0,2.62-2.62,5.23-2.62,7.85,0,5.23,2.62,7.85,2.62,7.85v2.62c2.62,0,5.23,2.62,10.46,2.62h117.5c2.62,0,5.23-2.62,7.85-5.23,2.62,0,2.62-2.62,2.62-7.85,0-2.62,0-5.23-2.62-7.85-2.62,0-5.23-2.62-7.85-2.62Zm-117.5-18.28h117.5c7.85,0,15.66,2.62,20.89,7.85,5.23,7.85,7.85,13.04,7.85,20.89,0,10.46-2.62,15.66-7.85,20.89-5.23,5.23-13.04,10.46-20.89,10.46h-117.5c-10.46,0-15.66-5.23-20.89-10.46-5.23-5.23-10.46-10.46-10.46-20.89,0-7.85,5.23-13.04,10.46-20.89,5.23-5.23,10.46-7.85,20.89-7.85Zm156.71-7.85H235.04c-7.85,0-13.04,2.62-18.28,7.85-2.62,2.62-5.23,10.46-5.23,15.66v399.55c0,7.85,2.62,13.04,5.23,18.28,5.23,2.62,10.46,5.23,18.28,5.23h778.22c5.23,0,10.46-2.62,15.66-5.23,5.23-5.23,7.85-10.46,7.85-18.28v-399.55c0-5.23-2.62-13.04-7.85-15.66-5.23-5.23-10.46-7.85-15.66-7.85Zm-778.22-18.28h778.22c10.46,0,20.89,5.23,28.74,13.04,7.85,7.85,13.04,18.28,13.04,28.74v399.55c0,13.04-5.23,23.51-13.04,31.35-7.85,5.23-18.28,10.46-28.74,10.46H235.04c-13.04,0-23.51-5.23-31.35-10.46-5.23-7.85-10.46-18.28-10.46-31.35v-399.55c0-10.46,5.23-20.89,10.46-28.74,7.85-7.85,18.28-13.04,31.35-13.04Z"/>
  <path class="cls-2" d="m765.14,439.15c-36.55-33.94-86.18-57.44-141.01-57.44s-107.07,23.51-141.01,57.44l-2.62,2.62c-33.94,33.94-57.44,86.18-57.44,141.01s23.51,104.46,57.44,141.01h2.62c33.94,36.55,86.18,57.44,141.01,57.44s104.46-20.89,141.01-57.44c36.55-36.55,57.44-86.18,57.44-141.01s-20.89-107.07-57.44-141.01v-2.62Zm-141.01-75.72c60.06,0,114.92,23.51,154.09,65.29,39.17,39.17,62.67,94.02,62.67,154.09s-23.51,114.92-62.67,154.09c-39.17,39.17-94.02,62.67-154.09,62.67s-114.92-23.51-154.09-62.67c-41.78-39.17-65.29-94.02-65.29-154.09s23.51-114.92,65.29-154.09c39.17-41.78,94.02-65.29,154.09-65.29Z"/>
  <path class="cls-2" d="m524.9,682.04c23.51,23.51,60.06,39.17,99.23,39.17s73.14-15.66,99.23-39.17c23.51-26.12,39.17-60.06,39.17-99.23s-15.66-75.72-39.17-99.23c-26.12-26.12-60.06-41.78-99.23-41.78s-75.72,15.66-99.23,41.78c-26.12,23.51-41.78,60.06-41.78,99.23s15.66,73.14,41.78,99.23Zm99.23,57.44c-44.4,0-83.57-15.66-112.3-44.4s-47.01-70.52-47.01-112.3c0-44.4,18.28-83.57,47.01-112.3s67.91-47.01,112.3-47.01c41.78,0,83.57,18.28,112.3,47.01,28.74,28.74,44.4,67.91,44.4,112.3,0,41.78-15.66,83.57-44.4,112.3-28.74,28.74-70.52,44.4-112.3,44.4Z"/>
  <path class="cls-2" d="m974.06,379.09h-117.5c-5.23,0-10.46,2.62-13.04,5.23-2.62,2.62-5.23,7.85-5.23,10.46,0,5.23,2.62,10.46,5.23,13.04,2.62,2.62,7.85,5.23,13.04,5.23h117.5c5.23,0,7.85-2.62,10.46-5.23,5.23-2.62,5.23-7.85,5.23-13.04,0-2.62,0-7.85-5.23-10.46-2.62-2.62-5.23-5.23-10.46-5.23Zm-117.5-7.85h117.5c7.85,0,13.04,2.62,18.28,7.85,5.23,2.62,7.85,10.46,7.85,15.66,0,7.85-2.62,13.04-7.85,18.28-5.23,5.23-10.46,7.85-18.28,7.85h-117.5c-7.85,0-13.04-2.62-18.28-7.85-5.23-5.23-7.85-10.46-7.85-18.28,0-5.23,2.62-13.04,7.85-15.66,5.23-5.23,10.46-7.85,18.28-7.85Z"/>
  <path class="cls-3" d="m511.86,274.64h224.57c39.17,0,73.14,28.74,83.57,67.91h-391.74c7.85-39.17,41.78-67.91,83.57-67.91h.04Z"/>
  <path class="cls-2" d="m511.86,272.02h224.57c23.51,0,47.01,10.46,62.67,26.12,13.04,13.04,20.89,26.12,23.51,44.4h-7.85c-2.62-15.66-10.46-28.74-20.89-39.17-15.66-13.04-36.55-23.51-57.44-23.51h-224.57c-23.51,0-44.4,10.46-60.06,23.51-10.46,10.46-15.66,23.51-20.89,39.17h-7.85c5.23-18.28,13.04-31.35,23.51-44.4,18.28-15.66,39.17-26.12,65.29-26.12h0Z"/>
  <path class="cls-3" d="m292.48,326.88h57.44c7.85,0,15.66,5.23,18.28,13.04h-94.02c2.62-7.85,7.85-13.04,18.28-13.04h.03Z"/>
  <path class="cls-2" d="m349.93,329.5h-57.44c-5.23,0-7.85,2.62-10.46,2.62q0,2.62-2.62,5.23h83.57q-2.62-2.62-2.62-5.23c-2.62,0-7.85-2.62-10.46-2.62h.03Zm-57.44-7.85h57.44c5.23,0,10.46,2.62,13.04,5.23,5.23,2.62,7.85,7.85,7.85,13.04l2.62,5.23h-104.5l2.62-5.23c0-5.23,2.62-10.46,5.23-13.04,5.23-2.62,10.46-5.23,15.66-5.23h.04Z"/>
  <path class="cls-2" d="m292.48,316.42h57.44c7.85,0,15.66,2.62,18.28,7.85,5.23,5.23,7.85,10.46,7.85,15.66h-18.28s0-2.62-2.62-2.62c0,0-2.62-2.62-5.23-2.62h-57.44c-2.62,0-5.23,2.62-7.85,2.62v2.62h-18.28c0-5.23,2.62-10.46,7.85-15.66,2.62-5.23,10.46-7.85,18.28-7.85Z"/>
  <path class="cls-2" d="m349.93,321.65h-57.44c-7.85,0-13.04,2.62-15.66,5.23-2.62,2.62-5.23,5.23-5.23,7.85l-2.62,2.62h13.04v-2.62c2.62,0,2.62-2.62,5.23-2.62h62.68c2.62,0,7.85,0,7.85,2.62,2.62,0,2.62,2.62,2.62,2.62h10.46v-2.62c0-2.62-2.62-5.23-5.23-7.85-2.62,0-2.62-2.62-7.85-5.23h-7.85,0Zm-57.44-7.85h57.44c5.23,0,7.85,0,13.04,2.62,2.62,0,5.23,2.62,7.85,5.23,2.62,2.62,5.23,5.23,7.85,7.85,0,5.23,2.62,7.85,2.62,10.46v5.23h-26.12v-5.23h-67.91v5.23h-26.12v-5.23c0-2.62,2.62-5.23,2.62-10.46,2.62-2.62,5.23-5.23,5.23-7.85,7.85-5.23,13.04-7.85,23.51-7.85h0Z"/>
  <path class="cls-4" d="m830.99,602.2h19.91v51.37c0,19.91-8.76,27.08-22.7,27.08s-22.7-7.17-22.7-27.08v-150.51c0-19.91,8.76-27.47,22.7-27.47s22.7,7.57,22.7,27.47v29.86h41.41v-27.08c0-44.6-22.3-70.08-65.3-70.08s-65.3,25.48-65.3,70.08v144.94c0,44.6,22.3,70.08,65.3,70.08s65.3-25.48,65.3-70.08v-88.4h-61.32v39.82Zm-240.5-163.26h-60.92v278.73h38.23v-197.1h.8l31.85,197.1h41.41l29.47-199.89h.8v199.89h41.41v-278.73h-60.92l-29.47,197.9h-.8l-31.85-197.9Zm-234.93,66.9c0,31.85,11.55,54.95,48.18,87.2,28.67,25.09,37.43,40.22,37.43,60.52s-8.76,27.08-22.7,27.08-22.7-7.17-22.7-27.08v-19.91h-41.41v17.12c0,44.6,22.3,70.08,65.3,70.08s65.3-25.48,65.3-70.08c0-31.85-11.55-54.95-48.18-87.2-28.67-25.09-37.43-40.22-37.43-60.52s7.96-27.47,21.9-27.47,21.9,7.57,21.9,27.47v11.55h41.41v-8.76c0-44.6-21.9-70.08-64.51-70.08s-64.51,25.48-64.51,70.08Z"/>
</svg>