<?xml version="1.0" encoding="UTF-8"?>
<svg id="Layer_1" data-name="Layer 1" xmlns="http://www.w3.org/2000/svg" viewBox="0 0 1200 1200">
  <defs>
    <style>
      .cls-1, .cls-2 {
        fill: #fff;
      }

      .cls-2 {
        fill-rule: evenodd;
      }

      .cls-3 {
        fill: #207178;
      }
    </style>
  </defs>
  <rect width="1200" height="1200"/>
  <rect class="cls-1" width="1200" height="1200"/>
  <path class="cls-1" d="m938.22,624.64h.59l15.35,104.52h-31.3l15.35-104.52Zm25.69-36.61h-47.54l-33.07,206.68h29.82l5.61-37.5h39.86l5.61,37.5h32.77l-33.07-206.68Zm-186.9,206.68h85.92v-29.53h-53.44v-177.15h-32.48v206.68Zm-133.75-206.68v157.37c0,33.07,16.53,51.97,48.42,51.97s48.42-18.9,48.42-51.97v-157.37h-30.71v159.44c0,14.76-6.5,20.08-16.83,20.08s-16.83-5.31-16.83-20.08v-159.44h-32.48Zm-128.14,0h-45.17v206.68h28.34v-146.15h.59l23.62,146.15h30.71l21.85-148.22h.59v148.22h30.71v-206.68h-45.17l-21.85,146.74h-.59l-23.62-146.74Zm-146.15,206.68h32.48v-68.5l41.04-138.18h-31l-24.51,94.19h-.59l-24.51-94.19h-33.95l41.04,138.18v68.5Zm-159.73-157.08c0,23.62,8.56,40.75,35.73,64.66,21.26,18.6,27.75,29.82,27.75,44.88s-6.5,20.08-16.83,20.08-16.83-5.31-16.83-20.08v-14.76h-30.71v12.7c0,33.07,16.53,51.97,48.42,51.97s48.42-18.9,48.42-51.97c0-23.62-8.56-40.75-35.73-64.66-21.26-18.6-27.75-29.82-27.75-44.88s5.91-20.37,16.24-20.37,16.24,5.61,16.24,20.37v8.56h30.71v-6.5c0-33.07-16.24-51.97-47.83-51.97s-47.83,18.9-47.83,51.97Z"/>
  <rect class="cls-1" x="201.55" y="843.04" width="803.35" height="100.86"/>
  <path class="cls-3" d="m519.03,902.98l14.8-33.12,14.8,33.12h-29.59Zm39.37,21.75h6.87l-28.18-61.65h-6.43l-28.18,61.65h6.78l7.4-16.47h34.35l7.4,16.47Zm-82.35,0h6.52v-61.65h-6.52v61.65Zm-75.92-5.64v-50.38h18.23c16.38,0,26.95,10.39,26.95,25.19s-10.57,25.19-26.95,25.19h-18.23Zm-6.52,5.64h25.1c19.73,0,33.03-12.68,33.03-30.83s-13.3-30.83-33.03-30.83h-25.1v61.65Zm-62.09-5.64v-22.9h31.88v-5.55h-31.88v-21.93h35.76v-5.64h-42.28v61.65h43.6v-5.64h-37.08Zm-41.66-56.02l-26.51,45.71-26.77-45.71h-5.37v61.65h6.25v-49.06l24.22,41.22h3.08l24.22-41.48v49.32h6.25v-61.65h-5.37Z"/>
  <path class="cls-3" d="m955,899.55h-16.38v-30.83h16.38c12.33,0,18.85,5.64,18.85,15.5s-6.52,15.33-18.85,15.33Zm.18-36.46h-23.08v61.65h6.52v-19.46h16.56c15.68,0,25.19-7.93,25.19-21.05s-9.51-21.14-25.19-21.14Zm-77.68,62.18c15.77,0,25.28-9.16,25.28-26.86v-35.32h-6.34v35.05c0,14.62-6.87,21.31-18.94,21.31s-18.85-6.69-18.85-21.31v-35.05h-6.52v35.32c0,17.7,9.6,26.86,25.37,26.86Zm-81.47-5.81c-14.88,0-25.98-10.83-25.98-25.54s11.1-25.54,25.98-25.54,25.81,10.83,25.81,25.54-11.01,25.54-25.81,25.54Zm0,5.81c18.5,0,32.32-13.3,32.32-31.35s-13.83-31.35-32.32-31.35-32.41,13.39-32.41,31.35,13.74,31.35,32.41,31.35Zm-77.42-25.63h-16.38v-30.91h16.38c12.33,0,18.85,5.64,18.85,15.5s-6.52,15.41-18.85,15.41Zm26.33,25.1l-15.06-21.14c8.98-2.91,14.09-9.69,14.09-19.38,0-13.21-9.51-21.14-25.19-21.14h-23.08v61.65h6.52v-19.55h16.56c1.76,0,3.35-.09,4.93-.26l14.09,19.82h7.13Zm-83.58-10.04c-4.76,3.43-10.22,4.76-16.12,4.76-15.15,0-26.33-10.92-26.33-25.54s11.19-25.54,26.42-25.54c7.22,0,13.39,2.11,18.58,7.22l4.05-4.14c-5.46-5.9-13.56-8.9-22.9-8.9-18.85,0-32.59,13.3-32.59,31.35s13.74,31.35,32.5,31.35c8.54,0,16.82-2.64,22.64-7.84v-23.52h-6.25v20.79Z"/>
  <path class="cls-2" d="m600.02,289.2c59.22,0,107.65,47.1,107.65,107.65s-48.45,107.65-107.65,107.65-107.65-48.45-107.65-107.65,47.1-107.65,107.65-107.65Zm119.76,1.35h60.55c5.39,0,10.76,4.04,10.76,9.42,0,6.72-5.39,10.76-10.76,10.76h-60.55c-6.72,0-10.76-4.04-10.76-10.76,0-5.39,4.04-9.42,10.76-9.42Zm-320.27-13.46h401c9.42,0,16.16,6.72,16.16,16.16v205.88c0,9.42-6.72,17.49-16.16,17.49h-401c-9.42,0-17.49-8.07-17.49-17.49v-205.88c0-9.42,8.07-16.16,17.49-16.16Z"/>
  <path class="cls-1" d="m672.64,322.84c-18.83-17.49-44.41-29.6-72.66-29.6s-55.17,12.11-72.66,29.6l-1.35,1.35c-17.49,17.49-29.6,44.41-29.6,72.66s12.11,53.83,29.6,72.66h1.35c17.49,18.83,44.41,29.6,72.66,29.6s53.83-10.76,72.66-29.6c18.83-18.83,29.6-44.41,29.6-72.66s-10.76-55.17-29.6-72.66v-1.35Zm-72.66-39.02c30.95,0,59.22,12.11,79.4,33.64,20.18,20.18,32.29,48.45,32.29,79.4s-12.11,59.22-32.29,79.4c-20.18,20.18-48.45,32.29-79.4,32.29s-59.22-12.11-79.4-32.29c-21.53-20.18-33.64-48.45-33.64-79.4s12.11-59.22,33.64-79.4c20.18-21.53,48.45-33.64,79.4-33.64Zm180.32,10.76h-60.55c-2.7,0-4.04,1.35-5.39,1.35,0,1.35-1.35,2.7-1.35,4.04,0,2.7,1.35,4.04,1.35,4.04v1.35c1.35,0,2.7,1.35,5.39,1.35h60.55c1.35,0,2.7-1.35,4.04-2.7,1.35,0,1.35-1.35,1.35-4.04,0-1.35,0-2.7-1.35-4.04-1.35,0-2.7-1.35-4.04-1.35Zm-60.55-9.42h60.55c4.04,0,8.07,1.35,10.76,4.04,2.7,4.04,4.04,6.72,4.04,10.76,0,5.39-1.35,8.07-4.04,10.76-2.7,2.7-6.72,5.39-10.76,5.39h-60.55c-5.39,0-8.07-2.7-10.76-5.39-2.7-2.7-5.39-5.39-5.39-10.76,0-4.04,2.7-6.72,5.39-10.76,2.7-2.7,5.39-4.04,10.76-4.04Zm80.75-4.04h-401c-4.04,0-6.72,1.35-9.42,4.04-1.35,1.35-2.7,5.39-2.7,8.07v205.88c0,4.04,1.35,6.72,2.7,9.42,2.7,1.35,5.39,2.7,9.42,2.7h401c2.7,0,5.39-1.35,8.07-2.7,2.7-2.7,4.04-5.39,4.04-9.42v-205.88c0-2.7-1.35-6.72-4.04-8.07-2.7-2.7-5.39-4.04-8.07-4.04Zm-401-9.42h401c5.39,0,10.76,2.7,14.81,6.72,4.04,4.04,6.72,9.42,6.72,14.81v205.88c0,6.72-2.7,12.11-6.72,16.16-4.04,2.7-9.42,5.39-14.81,5.39h-401c-6.72,0-12.11-2.7-16.16-5.39-2.7-4.04-5.39-9.42-5.39-16.16v-205.88c0-5.39,2.7-10.76,5.39-14.81,4.04-4.04,9.42-6.72,16.16-6.72Z"/>
  <path class="cls-1" d="m672.66,322.84c-18.83-17.49-44.41-29.6-72.66-29.6s-55.17,12.11-72.66,29.6l-1.35,1.35c-17.49,17.49-29.6,44.41-29.6,72.66s12.11,53.83,29.6,72.66h1.35c17.49,18.83,44.41,29.6,72.66,29.6s53.83-10.76,72.66-29.6c18.83-18.83,29.6-44.41,29.6-72.66s-10.76-55.17-29.6-72.66v-1.35Zm-72.66-39.02c30.95,0,59.22,12.11,79.4,33.64,20.18,20.18,32.29,48.45,32.29,79.4s-12.11,59.22-32.29,79.4c-20.18,20.18-48.45,32.29-79.4,32.29s-59.22-12.11-79.4-32.29c-21.53-20.18-33.64-48.45-33.64-79.4s12.11-59.22,33.64-79.4c20.18-21.53,48.45-33.64,79.4-33.64Z"/>
  <path class="cls-1" d="m548.87,447.99c12.11,12.11,30.95,20.18,51.13,20.18s37.69-8.07,51.13-20.18c12.11-13.46,20.18-30.95,20.18-51.13s-8.07-39.02-20.18-51.13c-13.46-13.46-30.95-21.53-51.13-21.53s-39.02,8.07-51.13,21.53c-13.46,12.11-21.53,30.95-21.53,51.13s8.07,37.69,21.53,51.13Zm51.13,29.6c-22.88,0-43.06-8.07-57.87-22.88-14.81-14.81-24.23-36.34-24.23-57.87,0-22.88,9.42-43.06,24.23-57.87s34.99-24.23,57.87-24.23c21.53,0,43.06,9.42,57.87,24.23s22.88,34.99,22.88,57.87c0,21.53-8.07,43.06-22.88,57.87-14.81,14.81-36.34,22.88-57.87,22.88Z"/>
  <path class="cls-1" d="m780.31,291.89h-60.55c-2.7,0-5.39,1.35-6.72,2.7-1.35,1.35-2.7,4.04-2.7,5.39,0,2.7,1.35,5.39,2.7,6.72,1.35,1.35,4.04,2.7,6.72,2.7h60.55c2.7,0,4.04-1.35,5.39-2.7,2.7-1.35,2.7-4.04,2.7-6.72,0-1.35,0-4.04-2.7-5.39-1.35-1.35-2.7-2.7-5.39-2.7Zm-60.55-4.04h60.55c4.04,0,6.72,1.35,9.42,4.04,2.7,1.35,4.04,5.39,4.04,8.07,0,4.04-1.35,6.72-4.04,9.42-2.7,2.7-5.39,4.04-9.42,4.04h-60.55c-4.04,0-6.72-1.35-9.42-4.04-2.7-2.7-4.04-5.39-4.04-9.42,0-2.7,1.35-6.72,4.04-8.07,2.7-2.7,5.39-4.04,9.42-4.04Z"/>
  <path class="cls-2" d="m542.15,238.07h115.72c20.18,0,37.69,14.81,43.06,34.99h-201.86c4.04-20.18,21.53-34.99,43.06-34.99h.02Z"/>
  <path class="cls-1" d="m542.15,236.72h115.72c12.11,0,24.23,5.39,32.29,13.46,6.72,6.72,10.76,13.46,12.11,22.88h-4.04c-1.35-8.07-5.39-14.81-10.76-20.18-8.07-6.72-18.83-12.11-29.6-12.11h-115.72c-12.11,0-22.88,5.39-30.95,12.11-5.39,5.39-8.07,12.11-10.76,20.18h-4.04c2.7-9.42,6.72-16.16,12.11-22.88,9.42-8.07,20.18-13.46,33.64-13.46h0Z"/>
  <path class="cls-2" d="m429.11,264.99h29.6c4.04,0,8.07,2.7,9.42,6.72h-48.45c1.35-4.04,4.04-6.72,9.42-6.72h.01Z"/>
  <path class="cls-1" d="m458.71,266.34h-29.6c-2.7,0-4.04,1.35-5.39,1.35q0,1.35-1.35,2.7h43.06q-1.35-1.35-1.35-2.7c-1.35,0-4.04-1.35-5.39-1.35h.02Zm-29.6-4.04h29.6c2.7,0,5.39,1.35,6.72,2.7,2.7,1.35,4.04,4.04,4.04,6.72l1.35,2.7h-53.84l1.35-2.7c0-2.7,1.35-5.39,2.7-6.72,2.7-1.35,5.39-2.7,8.07-2.7h.02Z"/>
  <path class="cls-1" d="m429.11,259.6h29.6c4.04,0,8.07,1.35,9.42,4.04,2.7,2.7,4.04,5.39,4.04,8.07h-9.42s0-1.35-1.35-1.35c0,0-1.35-1.35-2.7-1.35h-29.6c-1.35,0-2.7,1.35-4.04,1.35v1.35h-9.42c0-2.7,1.35-5.39,4.04-8.07,1.35-2.7,5.39-4.04,9.42-4.04Z"/>
  <path class="cls-1" d="m458.71,262.3h-29.6c-4.04,0-6.72,1.35-8.07,2.7-1.35,1.35-2.7,2.7-2.7,4.04l-1.35,1.35h6.72v-1.35c1.35,0,1.35-1.35,2.7-1.35h32.29c1.35,0,4.04,0,4.04,1.35,1.35,0,1.35,1.35,1.35,1.35h5.39v-1.35c0-1.35-1.35-2.7-2.7-4.04-1.35,0-1.35-1.35-4.04-2.7h-4.04,0Zm-29.6-4.04h29.6c2.7,0,4.04,0,6.72,1.35,1.35,0,2.7,1.35,4.04,2.7,1.35,1.35,2.7,2.7,4.04,4.04,0,2.7,1.35,4.04,1.35,5.39v2.7h-13.46v-2.7h-34.99v2.7h-13.46v-2.7c0-1.35,1.35-2.7,1.35-5.39,1.35-1.35,2.7-2.7,2.7-4.04,4.04-2.7,6.72-4.04,12.11-4.04h0Z"/>
</svg>