<?xml version="1.0" encoding="utf-8"?>
<!-- Generator: Adobe Illustrator 27.8.1, SVG Export Plug-In . SVG Version: 6.00 Build 0)  -->
<svg version="1.1" id="Layer_1" xmlns="http://www.w3.org/2000/svg" xmlns:xlink="http://www.w3.org/1999/xlink" x="0px" y="0px"
	 viewBox="0 0 1200 1200" style="enable-background:new 0 0 1200 1200;" xml:space="preserve">
<style type="text/css">
	.st0{display:none;fill:#FFFFFF;}
	.st1{fill:#207178;}
</style>
<rect class="st0" width="1200" height="1200"/>
<rect class="st0" width="1200" height="1200"/>
<path class="st1" d="M605.4,501.7c-32.6-32.6-77.7-52.8-127.5-52.8s-94.8,20.2-127.5,52.8c-32.6,32.6-52.8,77.7-52.8,127.4
	s20.2,94.8,52.8,127.5c32.6,32.6,77.7,52.8,127.5,52.8s94.8-20.2,127.5-52.8C638,724,658.2,679,658.2,629.2S638,534.3,605.4,501.7
	L605.4,501.7L605.4,501.7z M477.9,471.3c43.6,0,83.1,17.7,111.7,46.2s46.2,68,46.2,111.7s-17.7,83.1-46.2,111.7s-68,46.2-111.6,46.2
	s-83.1-17.7-111.6-46.2s-46.2-68-46.2-111.7s17.7-83.1,46.2-111.7S434.3,471.3,477.9,471.3L477.9,471.3z M554.6,741.9
	c-10-14.9-18.1-31.2-24-48.6c-6.8-20.2-10.4-41.8-10.4-64.1s3.7-43.9,10.4-64.1c5.8-17.4,13.9-33.7,24-48.6
	c-21.8-14.9-48.2-23.6-76.7-23.6c-37.6,0-71.7,15.3-96.4,39.9c-24.7,24.7-39.9,58.7-39.9,96.4s15.3,71.7,39.9,96.4
	c24.7,24.7,58.7,39.9,96.4,39.9C506.3,765.5,532.8,756.8,554.6,741.9L554.6,741.9z M600,568.5c-3.3,6.7-6.2,13.7-8.3,20.9
	c-3.8,12.5-5.8,25.9-5.8,39.8s2,27.3,5.8,39.8c2.2,7.2,5,14.2,8.3,20.9c9.1-18.3,14.2-38.9,14.2-60.7S609.1,586.7,600,568.5
	L600,568.5L600,568.5z M587,711c-6.7-11-12.1-23-15.9-35.7c-4.5-14.7-6.9-30.1-6.9-46s2.4-31.4,6.9-46.1
	c3.8-12.7,9.2-24.7,15.9-35.7c-3.9-5.2-8.1-10.1-12.7-14.6l-2.8-2.8c-8.5,12.9-15.4,27-20.4,41.9c-6,17.9-9.2,37.2-9.2,57.3
	s3.3,39.4,9.2,57.3c5,14.9,11.9,29,20.4,41.9l2.8-2.8C578.8,721,583.1,716.1,587,711L587,711L587,711z M645.3,741.9
	c9.8,6.7,20.4,12.1,31.7,16c14,4.9,29.2,7.6,45,7.6c37.7,0,71.7-15.3,96.4-39.9c24.7-24.7,39.9-58.7,39.9-96.4s-15.3-71.7-39.9-96.4
	c-24.6-24.7-58.7-39.9-96.3-39.9c-15.8,0-31,2.7-45,7.6c-11.3,4-22,9.4-31.7,16c21.7,32.2,34.4,71,34.4,112.7
	S667.1,709.7,645.3,741.9L645.3,741.9L645.3,741.9z M632.4,499.3c11.5-8,24.2-14.4,37.6-19.1c16.4-5.7,33.9-8.8,52.1-8.8
	c43.5,0,83,17.7,111.6,46.3c28.6,28.5,46.3,68,46.3,111.6s-17.7,83.1-46.2,111.7s-68,46.2-111.7,46.2c-18.2,0-35.7-3.1-52.1-8.8
	c-13.5-4.7-26.1-11.2-37.6-19.2c-3.7,4.4-7.7,8.7-11.7,12.8c-1.2,1.3-2.5,2.5-3.8,3.7c13.4,9.6,28.2,17.5,44,23.2
	c19,6.9,39.7,10.6,61.2,10.6c49.8,0,94.9-20.2,127.5-52.7c32.6-32.6,52.8-77.7,52.8-127.5s-20.2-94.8-52.8-127.5
	C816.9,469.1,771.8,449,722,449c-21.6,0-42.2,3.8-61.3,10.6c-15.8,5.7-30.6,13.6-44,23.2c1.3,1.2,2.6,2.5,3.8,3.7
	C624.7,490.6,628.6,494.8,632.4,499.3L632.4,499.3L632.4,499.3z M615.9,319.4c-3.1,1.3-5.9,3.2-8.3,5.6c-4.2,4.2-11,4.2-15.3,0
	c-2.4-2.4-5.2-4.3-8.3-5.6c-3-1.2-6.3-1.9-9.8-1.9c-7.1,0-13.5,2.9-18.1,7.5c-4.6,4.6-7.5,11-7.5,18.1c0,3.5,0.7,6.8,1.9,9.8
	c1.2,3.1,3.2,5.9,5.6,8.3l43.8,43.8l43.8-43.8c2.4-2.4,4.3-5.2,5.6-8.3c1.2-3,1.9-6.3,1.9-9.8c0-7.1-2.9-13.5-7.5-18.1
	s-11-7.5-18.1-7.5C622.2,317.5,618.9,318.1,615.9,319.4L615.9,319.4L615.9,319.4z M600,303.5c2.4-1.5,5-2.9,7.7-4
	c5.6-2.3,11.7-3.6,18-3.6c13,0,24.8,5.3,33.3,13.8c8.5,8.5,13.8,20.3,13.8,33.3c0,6.3-1.3,12.5-3.6,18c-2.4,5.8-5.9,11-10.2,15.3
	l-51.4,51.4c-4.2,4.2-11,4.2-15.3,0l-51.4-51.4c-4.3-4.3-7.8-9.5-10.2-15.3c-2.3-5.6-3.6-11.7-3.6-18c0-13,5.3-24.8,13.8-33.3
	c8.5-8.5,20.3-13.8,33.3-13.8c6.3,0,12.5,1.3,18,3.6C595,300.6,597.6,302,600,303.5L600,303.5L600,303.5z M477.9,427.4
	c45.9,0,88.2,15.3,122.1,41.1c16.1-12.3,34.1-22.1,53.5-29.2c21.5-7.7,44.5-12,68.5-12c55.7,0,106.2,22.6,142.7,59.2
	c36.5,36.5,59.2,87,59.2,142.7s-22.6,106.1-59.1,142.7l-0.1,0.1c-36.5,36.5-87,59.1-142.7,59.1c-24,0-47.1-4.2-68.5-12
	c-19.4-7-37.4-16.9-53.5-29.2c-33.9,25.8-76.2,41.1-122.1,41.1c-55.7,0-106.2-22.6-142.7-59.1c-36.5-36.5-59.1-87-59.1-142.7
	s22.6-106.2,59.1-142.7C371.7,449.9,422.2,427.3,477.9,427.4L477.9,427.4L477.9,427.4z"/>
</svg>
