<?xml version="1.0" encoding="UTF-8"?>
<svg id="Layer_1" data-name="Layer 1" xmlns="http://www.w3.org/2000/svg" viewBox="0 0 1200 1200">
  <defs>
    <style>
      .cls-1 {
        fill: #fff;
      }

      .cls-2 {
        fill: #207178;
      }
    </style>
  </defs>
  <rect class="cls-1" width="1200" height="1200"/>
  <rect class="cls-1" width="1200" height="1200"/>
  <path class="cls-2" d="m605.37,501.69c-32.59-32.61-77.65-52.77-127.45-52.77s-94.83,20.19-127.45,52.8c-32.61,32.61-52.8,77.68-52.8,127.45s20.19,94.83,52.8,127.45c32.61,32.61,77.68,52.8,127.45,52.8s94.83-20.19,127.45-52.8c32.61-32.59,52.8-77.65,52.8-127.45s-20.19-94.83-52.8-127.48h0Zm-127.45-30.39c43.61,0,83.08,17.68,111.65,46.25,28.57,28.57,46.25,68.04,46.25,111.65s-17.68,83.08-46.25,111.65-68.04,46.25-111.65,46.25-83.08-17.68-111.65-46.25c-28.57-28.57-46.25-68.04-46.25-111.65s17.68-83.08,46.25-111.65c28.57-28.57,68.04-46.25,111.65-46.25Zm76.67,270.58c-10.01-14.87-18.13-31.21-23.95-48.58-6.75-20.19-10.43-41.78-10.43-64.1s3.68-43.92,10.43-64.1c5.82-17.38,13.92-33.71,23.95-48.58-21.85-14.87-48.25-23.59-76.67-23.59-37.65,0-71.72,15.27-96.38,39.92-24.66,24.66-39.92,58.73-39.92,96.38s15.27,71.72,39.92,96.38c24.66,24.66,58.73,39.92,96.38,39.92,28.42,0,54.83-8.72,76.67-23.59v-.06Zm45.38-173.42c-3.35,6.69-6.16,13.69-8.35,20.89-3.8,12.48-5.85,25.89-5.85,39.84s2.05,27.33,5.85,39.81c2.19,7.2,5,14.2,8.35,20.92,9.11-18.28,14.23-38.91,14.23-60.73s-5.12-42.45-14.25-60.73h.03Zm-12.99,142.49c-6.66-11.02-12.06-23.03-15.94-35.71-4.47-14.68-6.89-30.14-6.89-46.05s2.42-31.4,6.89-46.08c3.85-12.68,9.25-24.66,15.94-35.68-3.88-5.17-8.13-10.07-12.68-14.62l-2.84-2.76c-8.52,12.91-15.41,26.96-20.41,41.86-5.99,17.91-9.25,37.2-9.25,57.27s3.26,39.36,9.25,57.27c4.98,14.9,11.89,28.96,20.41,41.86l2.84-2.76c4.55-4.55,8.8-9.45,12.68-14.62h0Zm58.37,30.96c9.76,6.66,20.38,12.06,31.71,16.03,14.03,4.89,29.18,7.56,44.98,7.56,37.65,0,71.72-15.27,96.38-39.92,24.66-24.66,39.92-58.73,39.92-96.38s-15.27-71.72-39.92-96.38c-24.63-24.66-58.7-39.92-96.35-39.92-15.8,0-30.96,2.67-44.98,7.56-11.3,3.96-21.96,9.36-31.69,16,21.73,32.16,34.38,70.96,34.38,112.71s-12.68,80.53-34.41,112.68l-.03.06Zm-12.99-242.61c11.5-7.96,24.15-14.42,37.62-19.15,16.36-5.71,33.88-8.83,52.07-8.83,43.55,0,83.02,17.68,111.59,46.28,28.59,28.54,46.28,68.01,46.28,111.62s-17.68,83.08-46.25,111.65c-28.57,28.57-68.04,46.25-111.65,46.25-18.16,0-35.73-3.12-52.07-8.83-13.47-4.7-26.12-11.19-37.62-19.15-3.71,4.44-7.65,8.69-11.72,12.76-1.24,1.27-2.53,2.5-3.8,3.71,13.41,9.64,28.2,17.52,43.97,23.2,19.03,6.86,39.67,10.63,61.24,10.63,49.79,0,94.86-20.16,127.45-52.74,32.61-32.61,52.8-77.68,52.8-127.5s-20.19-94.83-52.8-127.45c-32.59-32.61-77.65-52.8-127.45-52.8-21.56,0-42.2,3.77-61.26,10.63-15.8,5.71-30.59,13.58-43.97,23.2,1.29,1.21,2.56,2.45,3.82,3.71,4.1,4.08,8.01,8.35,11.75,12.76v.05Zm-16.45-179.94c-3.06,1.27-5.88,3.18-8.29,5.59-4.22,4.22-11.05,4.22-15.27,0-2.39-2.39-5.23-4.3-8.29-5.59-2.95-1.24-6.27-1.91-9.78-1.91-7.06,0-13.47,2.87-18.08,7.48-4.61,4.61-7.48,11.02-7.48,18.08,0,3.51.67,6.8,1.91,9.78,1.24,3.09,3.18,5.9,5.57,8.29l43.8,43.78,43.78-43.78c2.39-2.39,4.3-5.23,5.59-8.29,1.24-2.95,1.91-6.27,1.91-9.78,0-7.06-2.87-13.47-7.48-18.08-4.61-4.61-11.02-7.48-18.08-7.48-3.51,0-6.8.67-9.78,1.91h-.03Zm-15.91-15.86c2.42-1.55,4.98-2.92,7.68-4.02,5.59-2.33,11.7-3.63,18.02-3.63,13.02,0,24.83,5.29,33.34,13.8,8.52,8.52,13.8,20.33,13.8,33.34,0,6.33-1.29,12.46-3.6,18.05-2.39,5.79-5.9,11.02-10.21,15.32l-51.42,51.42c-4.22,4.22-11.05,4.22-15.27,0l-51.42-51.42c-4.27-4.27-7.79-9.47-10.18-15.32-2.33-5.59-3.63-11.7-3.63-18.02,0-13.02,5.29-24.83,13.8-33.34,8.52-8.52,20.33-13.8,33.34-13.8,6.33,0,12.46,1.29,18.05,3.6,2.7,1.12,5.26,2.47,7.68,4.05v-.03Zm-122.08,123.85c45.86,0,88.17,15.32,122.08,41.13,16.11-12.26,34.13-22.15,53.53-29.16,21.45-7.73,44.53-11.98,68.52-11.98,55.7,0,106.16,22.6,142.68,59.16,36.55,36.49,59.16,86.96,59.16,142.68s-22.6,106.13-59.13,142.68l-.06.06c-36.55,36.49-86.96,59.1-142.66,59.1-23.98,0-47.07-4.25-68.49-11.98-19.4-7-37.42-16.9-53.53-29.16-33.88,25.81-76.19,41.13-122.08,41.13-55.72,0-106.19-22.6-142.71-59.13-36.52-36.52-59.13-86.99-59.13-142.71s22.6-106.19,59.13-142.71c36.52-36.52,86.99-59.13,142.71-59.13h-.03Z"/>
</svg>