<?xml version="1.0" encoding="iso-8859-1"?>
<!-- Generator: Adobe Illustrator 27.7.0, SVG Export Plug-In . SVG Version: 6.00 Build 0)  -->
<svg version="1.0" xmlns="http://www.w3.org/2000/svg" xmlns:xlink="http://www.w3.org/1999/xlink" x="0px" y="0px"
	 viewBox="0 0 1920 1080" style="enable-background:new 0 0 1920 1080;" xml:space="preserve">
<g id="Layer_1">
	<path style="fill:#929FE0;" d="M448.792,738H295.58V181.625c12.836-4.212,23.127-8.093,29.791-10.7
		c42.853-16.762,86.979-40.002,106.397-48.148c0.696-0.292,12.766-5.349,12.768-5.35l0,0c0,0,3.031-0.963,4.256,0
		c1.733,1.363,0.545,7.135,0,10.7c-1.071,7.005,0,14.266,0,21.399c0,10.7,0,21.399,0,32.099
		C448.792,367.083,448.792,552.542,448.792,738z"/>
	<rect x="448.792" y="229.773" style="fill:#929FE0;" width="17.024" height="230.04"/>
	<rect x="1447.386" y="627.988" style="fill:#8693F2;" width="135.033" height="263.19"/>
	<rect x="1456.51" y="606.933" style="fill:#8693F2;" width="116.785" height="28.951"/>
	<path style="fill:#8693F2;" d="M1558.697,614.829c-29.196,0-58.392,0-87.589,0c0-10.528,0-21.055,0-31.583
		c1.043-2.536,16.76-39.469,42.767-39.687c13.878-0.116,25.128,10.27,28.399,13.368c8.436,7.991,13.604,17.546,16.423,23.687
		C1558.697,592.019,1558.697,603.424,1558.697,614.829z"/>
	<rect x="1287.666" y="526.089" style="fill:#84B6F4;" width="160.322" height="387.8"/>
	<rect x="1303.857" y="481.094" style="fill:#84B6F4;" width="118.728" height="51.123"/>
	<rect x="1327.855" y="464.95" style="fill:#84B6F4;" width="70.731" height="32.288"/>
	<rect x="955.482" y="221.435" style="fill:#C6D6F4;" width="154.566" height="664.504"/>
	<rect x="1104.456" y="330.566" style="fill:#C6D6F4;" width="20.506" height="134.055"/>
	<path style="fill:#C6D6F4;" d="M1063.678,140.067c4.887-5.538,9.239-10.016,12.88-13.561c7.396-7.199,12.935-11.591,14.543-12.852
		c0.535-0.419,0.802-0.633,0.913-0.71c8.476-5.855,18.028-0.001,18.033,0c-0.052,13.561,0,27.123,0,40.684
		c0,11.301,0,22.602,0,33.903s0,22.602,0,33.903c0,2.26,0,4.52,0,6.781c-14.218,0-28.435,0-42.653,0h-40.077
		c-43.83,9.695-66.056,9.694-66.684,0c-0.695-10.728,25.065-33.33,77.283-67.806
		C1046.504,153.628,1055.091,146.847,1063.678,140.067z"/>
	<path style="fill:#8294AF;" d="M1208.986,894.672h-152.662c-0.62-219.412-1.241-438.824-1.862-658.237
		c33.248-7.303,52.99-2.924,65.161,3.134c4.077,2.03,15.139,8.148,29.621,6.217c8.642-1.153,8.853-3.885,18.784-6.217
		c21.23-4.985,37.849,3.375,38.039,1.435c0.072-0.733-2.269-2.275-2.666-1.435c-0.61,1.287,4.076,6.636,5.585,15.672
		c0.853,5.11,0.413,9.738,0,12.538C1208.986,476.744,1208.986,685.708,1208.986,894.672z"/>
	<path style="fill:#EA8FC6;" d="M1296.871,765.51H1170.89V600.295c3.836-8.426,7.208-14.571,9.691-18.774
		c2.411-4.081,3.651-6.158,5.395-7.98c4.844-5.06,9.191-3.789,11.218-3.285c6.893,1.716,13.845-0.34,20.766,0c0,0,9.229,0,27.688,0
		c4.615,0,9.229,0,13.844,0c1.999,0,24.919,0,24.919,0l0,0v3.755c0.014,5.285,2.769,11.264,2.769,11.265
		c2.814,6.108,5.378,13.077,8.306,18.774c2.067,4.022,4.989,10.15,8.307,18.774c1.493,1.463,3.905,3.394,6.922,3.755
		c5.317,0.636,8.176-4.126,9.691,0c1.334,3.634-0.368,8.735,0,18.774c0.552,15.066,4.922,18.264,6.922,33.794
		c1.093,8.483,0.23,10.956,0,30.039c-0.467,38.699,2.834,48.9,0,56.323c-2.395,6.275-5.706,1.48-17.997,0
		C1304.015,764.87,1299.668,765.169,1296.871,765.51z"/>
	<path style="fill:#91E5BD;" d="M1272.191,808.054h-117.227V705.895c3.57-5.21,6.707-9.01,9.018-11.609
		c2.243-2.523,3.398-3.808,5.02-4.934c4.507-3.129,8.552-2.343,10.438-2.031c6.414,1.061,12.883-0.21,19.323,0c0,0,8.588,0,25.764,0
		c4.294,0,8.588,0,12.882,0c1.86,0,23.188,0,23.188,0l0,0v2.322c0.013,3.268,2.576,6.965,2.576,6.965
		c2.619,3.776,5.004,8.086,7.729,11.609c1.924,2.487,4.642,6.276,7.729,11.609c1.389,0.905,3.634,2.099,6.441,2.322
		c4.948,0.393,7.608-2.551,9.017,0c1.241,2.247-0.342,5.401,0,11.609c0.513,9.316,4.579,11.293,6.441,20.896
		c1.017,5.246,0.214,6.774,0,18.574c-0.435,23.929,2.637,30.237,0,34.827c-2.229,3.88-5.31,0.915-16.747,0
		C1278.838,807.658,1274.793,807.843,1272.191,808.054z"/>
	<rect x="623.745" y="154.811" style="fill:#BF9DBA;" width="132.007" height="41.478"/>
	<rect x="634.391" y="196.289" style="fill:#BF9DBA;" width="106.457" height="403.471"/>
	<rect x="623.745" y="207.601" style="fill:#BF9DBA;" width="132.007" height="392.159"/>
	<path style="fill:#BF9DBA;" d="M694.007,166.123c-3.549,0-7.097,0-10.646,0c0-27.306,0-54.611,0-81.917c0-6.501,0-13.003,0-19.504
		c0-2.601,0-5.201,0-7.802c0-1.3,0-2.601,0-3.901c3.549,0,7.097,0,10.646,0V166.123z"/>
	<path style="fill:#BF9DBA;" d="M757.361,41.625c-0.692-6.285-1.384-12.569-2.076-18.854"/>
	<rect x="399.157" y="370.781" style="fill:#91E5BD;" width="198.446" height="421.219"/>
	<rect x="427.779" y="298.731" style="fill:#91E5BD;" width="169.824" height="72.051"/>
	<rect x="469.758" y="279.333" style="fill:#91E5BD;" width="125.937" height="19.398"/>
	<path style="fill:#91E5BD;" d="M527.002,229.451c-0.014,0.021-3.802,5.522-3.816,5.542c0,0-7.633,11.085-7.633,11.085
		S527.002,229.452,527.002,229.451c-7.174,10.997-13.525,18.824-17.969,23.913c-4.645,5.319-6.419,7.104-10.653,12.112
		c-3.066,3.627-16.305,19.562-14.19,25.287c2.497,6.76,24.952-4.646,27.364-5.889h63.104c0.711,1.84,6.774,16.93,19.129,19.398
		c8.656,1.729,15.23-3.77,17.173-5.542c3.816-2.771,7.633-5.542,11.449-8.313c-7.081-5.386-15.651-13.46-22.759-25.398
		c-13.596-22.837-15.531-49.221-25.378-49.987c-3.121-0.243-10.741,1.8-13.843,2.631c-3.326,0.891-5.802,1.751-5.819,1.684
		c-0.022-0.088,4.182-1.849,9.279-2.999c6.02-1.358,10.383-1.211,10.382-1.315c-0.001-0.142-7.976-0.211-38.068,0
		c0.113,0.188,0.226,0.376,0.339,0.564c-0.014,0.021-3.802,5.522-3.816,5.542C530.818,223.909,528.91,226.68,527.002,229.451z"/>
	<rect x="589.971" y="276.561" style="fill:#91E5BD;" width="7.633" height="24.941"/>
	<rect x="597.603" y="290.417" style="fill:#91E5BD;" width="34.346" height="501.583"/>
	<path style="fill:#91E5BD;" d="M551.808,307.044"/>
	<path style="fill:#91E5BD;" d="M546.083,265.477c6.36-2.771,12.721-5.542,19.081-8.314"/>
	<rect x="208.411" y="413.982" style="fill:#EAB9E1;" width="178.006" height="398.589"/>
	<rect x="229.928" y="374.561" style="fill:#EAB9E1;" width="144.752" height="39.421"/>
	<rect x="247.533" y="322" style="fill:#EAB9E1;" width="113.454" height="74.462"/>
	<rect x="427.753" y="547.051" style="fill:#83EEF4;" width="119.876" height="277.747"/>
	<path style="fill:#83EEF4;" d="M524.205,554.039h-73.028V498.14c12.733,0.166,22.099,4.131,28.936,8.734
		c6.812,4.587,9.24,8.548,16.535,13.975c9.749,7.253,19.454,10.624,27.558,12.228C524.205,540.064,524.205,547.051,524.205,554.039z
		"/>
	<rect x="547.629" y="643.128" style="fill:#83EEF4;" width="290.45" height="181.671"/>
	<rect x="569.675" y="602.95" style="fill:#83EEF4;" width="241.129" height="40.177"/>
	<rect x="588.965" y="564.52" style="fill:#83EEF4;" width="110.231" height="38.43"/>
	<rect x="688.941" y="319.825" style="fill:#83EEF4;" width="149.138" height="330.125"/>
	<rect x="705.512" y="278.559" style="fill:#83EEF4;" width="114.155" height="48.769"/>
	<polygon style="fill:#83EEF4;" points="763.51,221 790.668,251.655 817.825,282.311 763.51,282.311 709.194,282.311 
		736.352,251.655 	"/>
	<rect x="369.882" y="781.128" style="fill:#83EEF4;" width="57.871" height="43.671"/>
	<rect x="-9.036" y="840.52" style="fill:#83EEF4;" width="45.682" height="26.203"/>
	<rect x="920.011" y="375" style="fill:#83EEF4;" width="134.452" height="439.318"/>
	<rect x="892.431" y="406.793" style="fill:#83EEF4;" width="27.58" height="407.525"/>
	<rect x="1076.736" y="626.25" style="fill:#83EEF4;" width="98.701" height="186.162"/>
	<rect x="1078.461" y="525.798" style="fill:#83EEF4;" width="100.396" height="103.945"/>
	<rect x="1068.666" y="510.586" style="fill:#83EEF4;" width="122.434" height="20.282"/>
	<polygon style="fill:#83EEF4;" points="1126.823,412.545 1153.105,464.94 1179.386,517.335 1127.888,517.893 1076.39,518.451 
		1101.606,465.498 	"/>
	<path style="fill:#83EEF4;" d="M1169.641,679.439c-0.316,1.714-2.291,11.985-6.7,14.942c-2.02,1.355-3.769,0.65-4.786,0"/>
	<path style="fill:#83EEF4;" d="M1198.279,809.087h-27.501c-4.123,0-7.465-3.342-7.465-7.465v-64.854
		c0-4.123,3.342-7.465,7.465-7.465h27.501c4.123,0,7.465,3.342,7.465,7.465v64.854
		C1205.744,805.745,1202.402,809.087,1198.279,809.087z"/>
	<rect x="1210.391" y="769.009" style="fill:#83EEF4;" width="187.081" height="45.067"/>
	<polygon style="fill:#83EEF4;" points="1395.44,769.477 1388.799,780.939 1382.158,792.401 1397.548,792.415 1412.939,792.429 
		1404.19,780.953 	"/>
	<rect x="1358.836" y="829.797" style="fill:#83EEF4;" width="120.241" height="134.749"/>
	<rect x="1234.044" y="757.742" style="fill:#83EEF4;" width="10.752" height="11.267"/>
	<rect x="1272.751" y="757.742" style="fill:#83EEF4;" width="8.601" height="11.267"/>
	<rect x="1307.156" y="757.742" style="fill:#83EEF4;" width="15.052" height="11.267"/>
	<rect x="1345.863" y="754.925" style="fill:#83EEF4;" width="17.203" height="14.083"/>
	<rect x="1231.894" y="757.742" style="fill:#83EEF4;" width="8.601" height="11.267"/>
	<rect x="1270.6" y="757.742" style="fill:#83EEF4;" width="6.451" height="11.267"/>
	<rect x="1307.156" y="763.375" style="fill:#83EEF4;" width="6.451" height="0"/>
	<rect x="-9.036" y="867.032" style="fill:#83EEF4;" width="1929.036" height="212.805"/>
	<rect x="0.231" y="969.345" style="fill:#83EEF4;" width="1450.621" height="113.027"/>
	<rect x="92.928" y="299" style="fill:#EAB9E1;" width="103.341" height="340.634"/>
	<rect x="131.508" y="548.798" style="fill:#83EEF4;" width="186.014" height="263.773"/>
	<rect x="317.522" y="781.128" style="fill:#83EEF4;" width="52.36" height="31.443"/>
	<rect x="342.324" y="763.659" style="fill:#83EEF4;" width="27.558" height="17.468"/>
	<path style="fill:#83EEF4;" d="M1220.351,876.788H167.169c-76.379,0-138.297-5.938-138.297-13.262v-43.349
		c20.124,0.899,77.73-6.801,138.297-13.262c0,0,914.884,0,1053.182,0c229.378,0,182.013-3.492,138.297,13.262v43.349
		C1358.648,870.85,1296.73,876.788,1220.351,876.788z"/>
	<rect x="58.481" y="578.079" style="fill:#91E5BD;" width="74.406" height="239.317"/>
	<rect x="156.31" y="496.393" style="fill:#83EEF4;" width="136.41" height="52.405"/>
	<path style="fill:#83EEF4;" d="M224.854,447.543l20.844,24.425c11.198,15.691,12.087,20.762,20.844,24.425h-41.687h-41.687
		c4.835,0,10.347-8.734,20.844-24.425L224.854,447.543z"/>
	<rect x="838.079" y="646.621" style="fill:#C6D6F4;" width="82.956" height="188.659"/>
	<rect x="848.598" y="616.925" style="fill:#C6D6F4;" width="72.437" height="33.19"/>
	<path style="fill:#EA8FC6;" d="M1871.635,829.408l-1.798-1.261c-0.804-0.564-2.049-0.519-2.78,0.101l-7.865,6.659
		c-0.732,0.619-0.673,1.578,0.131,2.142c0.622,0.577,1.244,1.155,1.866,1.732c0.282,0.168,0.757,0.407,1.415,0.545
		c0.947,0.199,1.745,0.078,2.122,0c0.904-0.589,1.874-1.308,2.83-2.18c2.214-2.02,3.476-4.061,4.21-5.596
		C1871.854,831.475,1872.314,831.071,1871.635,829.408z"/>
	<polygon style="fill:#EA8FC6;" points="1765.585,1034.693 1778.282,1035.514 1798.371,851.071 1785.674,850.25 	"/>
	<polygon style="fill:#EA8FC6;" points="1839.902,1034.741 1852.58,1033.767 1828.746,849.589 1816.067,850.563 	"/>
	<rect x="1801.069" y="849.619" style="fill:#EA8FC6;" width="12.742" height="185.092"/>
	<path style="fill:#EA8FC6;" d="M1838.519,1033.971l11.054-0.849c2.686-0.206,5.08,1.304,5.347,3.373l2.951,22.801
		c0.268,2.069-1.692,3.914-4.378,4.12l-11.054,0.849c-2.686,0.206-5.08-1.304-5.347-3.373l-2.951-22.801
		C1833.874,1036.022,1835.834,1034.177,1838.519,1033.971z"/>
	<path style="fill:#EA8FC6;" d="M1767.147,1033.091l11.024,1.053c2.678,0.256,4.58,2.136,4.248,4.2l-3.658,22.74
		c-0.332,2.064-2.772,3.529-5.451,3.273l-11.024-1.053c-2.678-0.256-4.58-2.136-4.248-4.2l3.658-22.74
		C1762.028,1034.301,1764.468,1032.835,1767.147,1033.091z"/>
	<path style="fill:#EA8FC6;" d="M1803.565,1033.502h9.735c3.078,0,5.574,2.495,5.574,5.574v20.351c0,3.078-2.495,5.573-5.574,5.573
		h-9.735c-3.078,0-5.573-2.495-5.573-5.573v-20.351C1797.991,1035.997,1800.487,1033.502,1803.565,1033.502z"/>
</g>
<g id="Layer_2">
	<rect x="1786.903" y="781" style="fill:#EA8FC6;" width="38.911" height="11.447"/>
	<path style="fill:#EA8FC6;" d="M1788.408,791.902h7.603c0.831,0,1.505,0.519,1.505,1.159v3.133c0,0.64-0.674,1.159-1.505,1.159
		h-7.603c-1.063-0.368-1.406-0.77-1.505-1.09c0,0-0.041-0.134,0-1.09l0,0c-0.084-0.142,0-0.992,0-2.111
		C1786.903,792.421,1787.577,791.902,1788.408,791.902z"/>
	<rect x="1786.903" y="792.447" style="fill:#EA8FC6;" width="0.707" height="0"/>
	<path style="fill:#EA8FC6;" d="M1818.829,791.902h7.603c0.831,0,1.505,0.519,1.505,1.159v3.133c0,0.64-0.674,1.159-1.505,1.159
		h-7.603c-1.063-0.368-1.406-0.77-1.505-1.09c0,0-0.041-0.134,0-1.09c-0.084-0.142,0-0.992,0-2.111
		C1817.325,792.421,1817.999,791.902,1818.829,791.902z"/>
	<path style="fill:#EA8FC6;" d="M1827.479,792.992h-3.329c-0.253,0-0.458-0.205-0.458-0.458v-11.076
		c0-0.253,0.205-0.458,0.458-0.458h3.329c0.253,0,0.458,0.205,0.458,0.458v11.076
		C1827.937,792.787,1827.732,792.992,1827.479,792.992z"/>
	<ellipse style="fill:#EA8FC6;" cx="1797.869" cy="800.351" rx="2.476" ry="2.998"/>
	<path style="fill:#EA8FC6;" d="M1802.468,802.259c-0.109,1.205-1.157,2.726-2.476,2.726c-1.368,0-2.476-1.22-2.476-2.726
		c0-1.204,2.396-1.453,2.476-2.726c0.04-0.643-0.461-1.039-0.354-1.09C1799.875,798.33,1802.665,800.092,1802.468,802.259z"/>
	<path style="fill:#EA8FC6;" d="M1810.958,802.804c0.034-0.058-13.511-3.81-14.857-2.18c-0.092,0.112-0.399,0.578-0.708,0.545
		c-0.259-0.028-0.277-0.382-0.708-1.09c-0.4-0.658-0.578-0.67-0.707-1.09c-0.172-0.558-0.029-1.091,0-1.09
		c0.028,0,0.11,0.521,0,0.545c-0.154,0.034-0.993-0.838-0.708-1.635c0.257-0.715,1.71-0.376,2.83-1.09
		c1.635-1.043,1.213-3.275,1.415-3.271c0.189,0.004-0.275,1.941,0.708,3.816c1.274,2.432,4.405,3.658,4.245,3.816
		c-0.107,0.106-1.435-0.515-1.415-0.545c0.006-0.01,0.158,0.034,0.749,0.248C1809.073,802.222,1810.945,802.826,1810.958,802.804z"
		/>
	<path style="fill:#EA8FC6;" d="M1801.053,801.714"/>
	<path style="fill:#EA8FC6;" d="M1815.91,803.622c0,1.355-3.801,2.453-8.49,2.453c-1.081,0-7.301,0.099-8.49-2.453
		c-0.559-1.2,0.045-2.876,1.415-3.543c1.31-0.637,2.729-0.065,7.075,1.09C1814.118,802.95,1815.91,802.951,1815.91,803.622z"/>
	<path style="fill:#EA8FC6;" d="M1820.155,800.624c0.778-1.119,0.605-1.543,1.463-2.667c0.483-0.632,0.776-0.864,0.659-1.149
		c-0.268-0.654-2.482-1.057-4.245-0.545c-1.417,0.411-1.251,1.029-4.245,3.271c-0.925,0.693-2.272,1.614-3.537,1.635
		c-0.817,0.014-1.415,0-1.415,0c-1.137-0.026-1.313-0.092-1.415,0c-0.4,0.358,0.952,2.552,3.496,3.393
		c2.307,0.763,4.963,0.204,6.596-0.784C1818.289,803.308,1818.911,802.413,1820.155,800.624z"/>
	<rect x="1799.638" y="804.44" style="fill:#EA8FC6;" width="4.952" height="16.898"/>
	<rect x="1810.25" y="804.44" style="fill:#EA8FC6;" width="4.245" height="16.353"/>
	<path style="fill:#EA8FC6;" d="M1827.91,825.699h-40.979c-0.797,0-1.442-0.646-1.442-1.442v-2.021c0-0.797,0.646-1.442,1.442-1.442
		h40.979c0.797,0,1.443,0.646,1.443,1.442v2.021C1829.352,825.053,1828.706,825.699,1827.91,825.699z"/>
	<rect x="1785.489" y="822.428" style="fill:#EA8FC6;" width="4.245" height="8.177"/>
	<rect x="1825.107" y="821.338" style="fill:#EA8FC6;" width="4.245" height="9.267"/>
	<path style="fill:#EA8FC6;" d="M1834.824,835.511h-54.808c-0.885,0-1.603-0.718-1.603-1.603v-2.246
		c0-0.885,0.718-1.603,1.603-1.603h54.808c0.885,0,1.603,0.718,1.603,1.603v2.246
		C1836.427,834.793,1835.709,835.511,1834.824,835.511z"/>
	<path style="fill:#EA8FC6;" d="M1781.526,852.409h-1.979c-0.626,0-1.133-0.507-1.133-1.133v-16.813
		c0-0.626,0.507-1.133,1.133-1.133h1.979c0.626,0,1.133,0.507,1.133,1.133v16.813
		C1782.659,851.902,1782.151,852.409,1781.526,852.409z"/>
	<path style="fill:#EA8FC6;" d="M1835.294,851.864h-1.979c-0.626,0-1.133-0.507-1.133-1.133v-16.813
		c0-0.626,0.507-1.133,1.133-1.133h1.979c0.626,0,1.133,0.507,1.133,1.133v16.813
		C1836.427,851.356,1835.92,851.864,1835.294,851.864z"/>
	<path style="fill:#EA8FC6;" d="M1834.824,852.409h-54.808c-0.885,0-1.603-0.718-1.603-1.603v-2.246
		c0-0.885,0.718-1.603,1.603-1.603h54.808c0.885,0,1.603,0.718,1.603,1.603v2.246
		C1836.427,851.691,1835.709,852.409,1834.824,852.409z"/>
	<polygon style="fill:#EA8FC6;" points="1827.257,793.241 1842.834,807.363 1838.522,810.187 1822.944,796.065 	"/>
	<path style="fill:#EA8FC6;" d="M1848.51,806.539l-1.719-1.325c-0.769-0.592-2.015-0.592-2.783,0l-8.263,6.367
		c-0.769,0.592-0.769,1.552,0,2.144l1.719,1.325c0.769,0.592,2.015,0.592,2.783,0l8.263-6.367
		C1849.278,808.091,1849.278,807.131,1848.51,806.539z"/>
	<polygon style="fill:#EA8FC6;" points="1864.551,834.699 1859.898,837.452 1837.058,814.54 1841.711,811.786 	"/>
	<polygon style="fill:#EA8FC6;" points="1870.651,829.2 1865.998,831.953 1843.159,809.041 1847.812,806.287 	"/>
	<path style="fill:#2F40BC;" d="M1836.815,781h-64.63c-2.311,0-4.185-1.874-4.185-4.185v-29.63c0-2.311,1.874-4.185,4.185-4.185
		h64.63c2.311,0,4.185,1.874,4.185,4.185v29.63C1841,779.126,1839.126,781,1836.815,781z"/>
	<ellipse style="fill:#6F82E2;" cx="1806.5" cy="763.5" rx="15.5" ry="13.5"/>
	<ellipse style="fill:#6F82E2;" cx="1772.5" cy="765" rx="3.5" ry="14"/>
	<rect x="1795" y="738" style="fill:#70E07E;" width="25" height="5"/>
	<rect x="1803" y="735" style="fill:#70E07E;" width="10" height="3"/>
	<rect x="1774" y="740" style="fill:#E070B3;" width="16" height="3"/>
</g>
<g id="Layer_3">
</g>
</svg>
