<?xml version="1.0" encoding="UTF-8"?>
<svg id="Layer_1" data-name="Layer 1" xmlns="http://www.w3.org/2000/svg" viewBox="0 0 1200 1200">
  <defs>
    <style>
      .cls-1, .cls-2 {
        fill: #fff;
      }

      .cls-2 {
        fill-rule: evenodd;
      }

      .cls-3 {
        fill: #207178;
      }
    </style>
  </defs>
  <rect width="1200" height="1200"/>
  <rect class="cls-1" width="1200" height="1200"/>
  <path class="cls-3" d="m264.43-4.03h682.66c144.91,0,262.56,117.65,262.56,262.56v682.66c0,144.91-117.65,262.56-262.56,262.56H264.43C119.52,1203.76,1.87,1086.11,1.87,941.19V258.53C1.87,113.62,119.52-4.03,264.43-4.03Z"/>
  <path class="cls-1" d="m856.59,914.6h24.69v63.71c0,24.69-10.87,33.59-28.15,33.59s-28.15-8.89-28.15-33.59v-186.69c0-24.69,10.87-34.08,28.15-34.08s28.15,9.38,28.15,34.08v37.04h51.37v-33.59c0-55.32-27.66-86.93-81-86.93s-81,31.61-81,86.93v179.78c0,55.32,27.66,86.93,81,86.93s81-31.61,81-86.93v-109.65h-76.06v49.39Zm-298.32-202.5h-75.57v345.73h47.41v-244.48h.99l39.51,244.48h51.37l36.55-247.94h.99v247.94h51.37v-345.73h-75.57l-36.55,245.47h-.99l-39.51-245.47Zm-291.4,82.98c0,39.51,14.32,68.16,59.76,108.16,35.56,31.12,46.43,49.88,46.43,75.07s-10.87,33.59-28.15,33.59-28.15-8.89-28.15-33.59v-24.69h-51.37v21.24c0,55.32,27.66,86.93,81,86.93s81-31.61,81-86.93c0-39.51-14.32-68.16-59.76-108.16-35.56-31.12-46.43-49.88-46.43-75.07s9.88-34.08,27.16-34.08,27.16,9.38,27.16,34.08v14.32h51.37v-10.87c0-55.32-27.16-86.93-80.01-86.93s-80.01,31.61-80.01,86.93Z"/>
  <path class="cls-2" d="m600.03,223.1c88.12,0,160.2,70.1,160.2,160.2s-72.1,160.2-160.2,160.2-160.2-72.1-160.2-160.2,70.1-160.2,160.2-160.2Zm178.23,2.01h90.1c8.02,0,16.02,6.02,16.02,14.01,0,10-8.02,16.02-16.02,16.02h-90.1c-10,0-16.02-6.02-16.02-16.02,0-8.02,6.02-14.01,16.02-14.01Zm-476.61-20.03h596.74c14.01,0,24.04,10,24.04,24.04v306.38c0,14.01-10,26.02-24.04,26.02H301.64c-14.01,0-26.02-12.01-26.02-26.02V229.11c0-14.01,12.01-24.04,26.02-24.04Z"/>
  <path class="cls-1" d="m708.1,273.16c-28.03-26.02-66.09-44.05-108.13-44.05s-82.1,18.03-108.13,44.05l-2.01,2.01c-26.02,26.02-44.05,66.09-44.05,108.13s18.03,80.1,44.05,108.13h2.01c26.02,28.03,66.09,44.05,108.13,44.05s80.1-16.02,108.13-44.05c28.03-28.03,44.05-66.09,44.05-108.13s-16.02-82.1-44.05-108.13v-2.01Zm-108.13-58.06c46.05,0,88.12,18.03,118.16,50.07,30.03,30.03,48.06,72.1,48.06,118.16s-18.03,88.12-48.06,118.16c-30.03,30.03-72.1,48.06-118.16,48.06s-88.12-18.03-118.16-48.06c-32.04-30.03-50.07-72.1-50.07-118.16s18.03-88.12,50.07-118.16c30.03-32.04,72.1-50.07,118.16-50.07Zm268.35,16.02h-90.1c-4.01,0-6.02,2.01-8.02,2.01,0,2.01-2.01,4.01-2.01,6.02,0,4.01,2.01,6.02,2.01,6.02v2.01c2.01,0,4.01,2.01,8.02,2.01h90.1c2.01,0,4.01-2.01,6.02-4.01,2.01,0,2.01-2.01,2.01-6.02,0-2.01,0-4.01-2.01-6.02-2.01,0-4.01-2.01-6.02-2.01Zm-90.1-14.01h90.1c6.02,0,12.01,2.01,16.02,6.02,4.01,6.02,6.02,10,6.02,16.02,0,8.02-2.01,12.01-6.02,16.02-4.01,4.01-10,8.02-16.02,8.02h-90.1c-8.02,0-12.01-4.01-16.02-8.02-4.01-4.01-8.02-8.02-8.02-16.02,0-6.02,4.01-10,8.02-16.02,4.01-4.01,8.02-6.02,16.02-6.02Zm120.16-6.02H301.64c-6.02,0-10,2.01-14.01,6.02-2.01,2.01-4.01,8.02-4.01,12.01v306.38c0,6.02,2.01,10,4.01,14.01,4.01,2.01,8.02,4.01,14.01,4.01h596.74c4.01,0,8.02-2.01,12.01-4.01,4.01-4.01,6.02-8.02,6.02-14.01V229.12c0-4.01-2.01-10-6.02-12.01-4.01-4.01-8.02-6.02-12.01-6.02Zm-596.74-14.01h596.74c8.02,0,16.02,4.01,22.04,10,6.02,6.02,10,14.01,10,22.04v306.38c0,10-4.01,18.03-10,24.04-6.02,4.01-14.01,8.02-22.04,8.02H301.64c-10,0-18.03-4.01-24.04-8.02-4.01-6.02-8.02-14.01-8.02-24.04V229.12c0-8.02,4.01-16.02,8.02-22.04,6.02-6.02,14.01-10,24.04-10Z"/>
  <path class="cls-1" d="m708.13,273.16c-28.03-26.02-66.09-44.05-108.13-44.05s-82.1,18.03-108.13,44.05l-2.01,2.01c-26.02,26.02-44.05,66.09-44.05,108.13s18.03,80.1,44.05,108.13h2.01c26.02,28.03,66.09,44.05,108.13,44.05s80.1-16.02,108.13-44.05,44.05-66.09,44.05-108.13-16.02-82.1-44.05-108.13v-2.01Zm-108.13-58.06c46.05,0,88.12,18.03,118.16,50.07,30.03,30.03,48.06,72.1,48.06,118.16s-18.03,88.12-48.06,118.16c-30.03,30.03-72.1,48.06-118.16,48.06s-88.12-18.03-118.16-48.06c-32.04-30.03-50.07-72.1-50.07-118.16s18.03-88.12,50.07-118.16c30.03-32.04,72.1-50.07,118.16-50.07Z"/>
  <path class="cls-1" d="m523.91,459.41c18.03,18.03,46.05,30.03,76.09,30.03s56.08-12.01,76.09-30.03c18.03-20.03,30.03-46.05,30.03-76.09s-12.01-58.06-30.03-76.09c-20.03-20.03-46.05-32.04-76.09-32.04s-58.06,12.01-76.09,32.04c-20.03,18.03-32.04,46.05-32.04,76.09s12.01,56.08,32.04,76.09Zm76.09,44.05c-34.05,0-64.08-12.01-86.12-34.05-22.04-22.04-36.05-54.08-36.05-86.12,0-34.05,14.01-64.08,36.05-86.12,22.04-22.04,52.07-36.05,86.12-36.05,32.04,0,64.08,14.01,86.12,36.05,22.04,22.04,34.05,52.07,34.05,86.12,0,32.04-12.01,64.08-34.05,86.12-22.04,22.04-54.08,34.05-86.12,34.05Z"/>
  <path class="cls-1" d="m868.33,227.11h-90.1c-4.01,0-8.02,2.01-10,4.01-2.01,2.01-4.01,6.02-4.01,8.02,0,4.01,2.01,8.02,4.01,10,2.01,2.01,6.02,4.01,10,4.01h90.1c4.01,0,6.02-2.01,8.02-4.01,4.01-2.01,4.01-6.02,4.01-10,0-2.01,0-6.02-4.01-8.02-2.01-2.01-4.01-4.01-8.02-4.01Zm-90.1-6.02h90.1c6.02,0,10,2.01,14.01,6.02,4.01,2.01,6.02,8.02,6.02,12.01,0,6.02-2.01,10-6.02,14.01-4.01,4.01-8.02,6.02-14.01,6.02h-90.1c-6.02,0-10-2.01-14.01-6.02-4.01-4.01-6.02-8.02-6.02-14.01,0-4.01,2.01-10,6.02-12.01,4.01-4.01,8.02-6.02,14.01-6.02Z"/>
  <path class="cls-2" d="m513.91,147.01h172.2c30.03,0,56.08,22.04,64.08,52.07h-300.39c6.02-30.03,32.04-52.07,64.08-52.07h.03Z"/>
  <path class="cls-1" d="m513.91,145h172.2c18.03,0,36.05,8.02,48.06,20.03,10,10,16.02,20.03,18.03,34.05h-6.02c-2.01-12.01-8.02-22.04-16.02-30.03-12.01-10-28.03-18.03-44.05-18.03h-172.2c-18.03,0-34.05,8.02-46.05,18.03-8.02,8.02-12.01,18.03-16.02,30.03h-6.02c4.01-14.01,10-24.04,18.03-34.05,14.01-12.01,30.03-20.03,50.07-20.03h0Z"/>
  <path class="cls-2" d="m345.69,187.07h44.05c6.02,0,12.01,4.01,14.01,10h-72.1c2.01-6.02,6.02-10,14.01-10h.02Z"/>
  <path class="cls-1" d="m389.74,189.08h-44.05c-4.01,0-6.02,2.01-8.02,2.01q0,2.01-2.01,4.01h64.08q-2.01-2.01-2.01-4.01c-2.01,0-6.02-2.01-8.02-2.01h.03Zm-44.05-6.02h44.05c4.01,0,8.02,2.01,10,4.01,4.01,2.01,6.02,6.02,6.02,10l2.01,4.01h-80.13l2.01-4.01c0-4.01,2.01-8.02,4.01-10,4.01-2.01,8.02-4.01,12.01-4.01h.03Z"/>
  <path class="cls-1" d="m345.69,179.05h44.05c6.02,0,12.01,2.01,14.01,6.02,4.01,4.01,6.02,8.02,6.02,12.01h-14.01s0-2.01-2.01-2.01c0,0-2.01-2.01-4.01-2.01h-44.05c-2.01,0-4.01,2.01-6.02,2.01v2.01h-14.01c0-4.01,2.01-8.02,6.02-12.01,2.01-4.01,8.02-6.02,14.01-6.02Z"/>
  <path class="cls-1" d="m389.74,183.06h-44.05c-6.02,0-10,2.01-12.01,4.01-2.01,2.01-4.01,4.01-4.01,6.02l-2.01,2.01h10v-2.01c2.01,0,2.01-2.01,4.01-2.01h48.06c2.01,0,6.02,0,6.02,2.01,2.01,0,2.01,2.01,2.01,2.01h8.02v-2.01c0-2.01-2.01-4.01-4.01-6.02-2.01,0-2.01-2.01-6.02-4.01h-6.02,0Zm-44.05-6.02h44.05c4.01,0,6.02,0,10,2.01,2.01,0,4.01,2.01,6.02,4.01,2.01,2.01,4.01,4.01,6.02,6.02,0,4.01,2.01,6.02,2.01,8.02v4.01h-20.03v-4.01h-52.07v4.01h-20.03v-4.01c0-2.01,2.01-4.01,2.01-8.02,2.01-2.01,4.01-4.01,4.01-6.02,6.02-4.01,10-6.02,18.03-6.02h0Z"/>
</svg>