<?xml version="1.0" encoding="utf-8"?>
<!-- Generator: Adobe Illustrator 27.8.1, SVG Export Plug-In . SVG Version: 6.00 Build 0)  -->
<svg version="1.1" id="Layer_1" xmlns="http://www.w3.org/2000/svg" xmlns:xlink="http://www.w3.org/1999/xlink" x="0px" y="0px"
	 viewBox="0 0 1200 1200" style="enable-background:new 0 0 1200 1200;" xml:space="preserve">
<style type="text/css">
	.st0{display:none;}
	.st1{display:none;fill:#FFFFFF;}
	.st2{fill:#207178;}
	.st3{fill:#FFFFFF;}
	.st4{fill-rule:evenodd;clip-rule:evenodd;fill:#FFFFFF;}
</style>
<rect class="st0" width="1200" height="1200"/>
<rect class="st1" width="1200" height="1200"/>
<path class="st2" d="M264.4-4h682.7c144.9,0,262.6,117.7,262.6,262.6v682.7c0,144.9-117.7,262.6-262.6,262.6H264.4
	c-144.9,0-262.6-117.6-262.6-262.6V258.5C1.9,113.6,119.5-4,264.4-4z"/>
<path class="st3" d="M856.6,914.6h24.7v63.7c0,24.7-10.9,33.6-28.2,33.6S825,1003,825,978.3V791.6c0-24.7,10.9-34.1,28.2-34.1
	s28.2,9.4,28.2,34.1v37h51.4v-33.6c0-55.3-27.7-86.9-81-86.9s-81,31.6-81,86.9v179.8c0,55.3,27.7,86.9,81,86.9s81-31.6,81-86.9
	V865.2h-76.1V914.6L856.6,914.6z M558.3,712.1h-75.6v345.7h47.4V813.3h1l39.5,244.5H622l36.5-247.9h1v247.9h51.4V712.1h-75.6
	l-36.5,245.5h-1L558.3,712.1L558.3,712.1z M266.9,795.1c0,39.5,14.3,68.2,59.8,108.2c35.6,31.1,46.4,49.9,46.4,75.1
	s-10.9,33.6-28.1,33.6s-28.1-8.9-28.1-33.6v-24.7h-51.4v21.2c0,55.3,27.7,86.9,81,86.9s81-31.6,81-86.9c0-39.5-14.3-68.2-59.8-108.2
	c-35.6-31.1-46.4-49.9-46.4-75.1s9.9-34.1,27.2-34.1s27.2,9.4,27.2,34.1V806h51.4v-10.9c0-55.3-27.2-86.9-80-86.9
	S266.9,739.8,266.9,795.1L266.9,795.1z"/>
<path class="st4" d="M600,223.1c88.1,0,160.2,70.1,160.2,160.2S688.1,543.5,600,543.5s-160.2-72.1-160.2-160.2
	S509.9,223.1,600,223.1L600,223.1z M778.3,225.1h90.1c8,0,16,6,16,14c0,10-8,16-16,16h-90.1c-10,0-16-6-16-16
	C762.2,231.1,768.3,225.1,778.3,225.1z M301.7,205.1h596.7c14,0,24,10,24,24v306.4c0,14-10,26-24,26H301.6c-14,0-26-12-26-26V229.1
	C275.6,215.1,287.6,205.1,301.7,205.1L301.7,205.1z"/>
<path class="st3" d="M708.1,273.2c-28-26-66.1-44.1-108.1-44.1s-82.1,18-108.1,44.1l-2,2c-26,26-44,66.1-44,108.1s18,80.1,44,108.1
	h2c26,28,66.1,44.1,108.1,44.1s80.1-16,108.1-44c28-28,44-66.1,44-108.1s-16-82.1-44-108.1V273.2L708.1,273.2z M600,215.1
	c46,0,88.1,18,118.2,50.1c30,30,48.1,72.1,48.1,118.2s-18,88.1-48.1,118.2c-30,30-72.1,48.1-118.2,48.1s-88.1-18-118.2-48.1
	c-32-30-50.1-72.1-50.1-118.2s18-88.1,50.1-118.2C511.8,233.1,553.9,215.1,600,215.1L600,215.1z M868.3,231.1h-90.1c-4,0-6,2-8,2
	c0,2-2,4-2,6c0,4,2,6,2,6v2c2,0,4,2,8,2h90.1c2,0,4-2,6-4c2,0,2-2,2-6c0-2,0-4-2-6C872.3,233.1,870.3,231.1,868.3,231.1L868.3,231.1
	z M778.2,217.1h90.1c6,0,12,2,16,6c4,6,6,10,6,16c0,8-2,12-6,16c-4,4-10,8-16,8h-90.1c-8,0-12-4-16-8s-8-8-8-16c0-6,4-10,8-16
	C766.2,219.1,770.2,217.1,778.2,217.1z M898.4,211.1H301.6c-6,0-10,2-14,6c-2,2-4,8-4,12v306.4c0,6,2,10,4,14c4,2,8,4,14,4h596.7
	c4,0,8-2,12-4c4-4,6-8,6-14V229.1c0-4-2-10-6-12C906.4,213.1,902.4,211.1,898.4,211.1L898.4,211.1z M301.6,197.1h596.7
	c8,0,16,4,22,10c6,6,10,14,10,22v306.4c0,10-4,18-10,24c-6,4-14,8-22,8H301.6c-10,0-18-4-24-8c-4-6-8-14-8-24V229.1c0-8,4-16,8-22
	C283.6,201.1,291.6,197.1,301.6,197.1L301.6,197.1z"/>
<path class="st3" d="M708.1,273.2c-28-26-66.1-44.1-108.1-44.1s-82.1,18-108.1,44.1l-2,2c-26,26-44,66.1-44,108.1s18,80.1,44,108.1
	h2c26,28,66.1,44.1,108.1,44.1s80.1-16,108.1-44s44-66.1,44-108.1s-16-82.1-44-108.1V273.2L708.1,273.2z M600,215.1
	c46,0,88.1,18,118.2,50.1c30,30,48.1,72.1,48.1,118.2s-18,88.1-48.1,118.2c-30,30-72.1,48.1-118.2,48.1s-88.1-18-118.2-48.1
	c-32-30-50.1-72.1-50.1-118.2s18-88.1,50.1-118.2C511.9,233.1,553.9,215.1,600,215.1L600,215.1z"/>
<path class="st3" d="M523.9,459.4c18,18,46,30,76.1,30s56.1-12,76.1-30c18-20,30-46,30-76.1s-12-58.1-30-76.1c-20-20-46-32-76.1-32
	s-58.1,12-76.1,32c-20,18-32,46-32,76.1S503.9,439.4,523.9,459.4L523.9,459.4z M600,503.5c-34,0-64.1-12-86.1-34
	c-22-22-36-54.1-36-86.1c0-34,14-64.1,36-86.1s52.1-36,86.1-36c32,0,64.1,14,86.1,36c22,22,34,52.1,34,86.1c0,32-12,64.1-34,86.1
	S632,503.5,600,503.5z"/>
<path class="st3" d="M868.3,227.1h-90.1c-4,0-8,2-10,4c-2,2-4,6-4,8c0,4,2,8,4,10c2,2,6,4,10,4h90.1c4,0,6-2,8-4c4-2,4-6,4-10
	c0-2,0-6-4-8C874.3,229.1,872.3,227.1,868.3,227.1z M778.2,221.1h90.1c6,0,10,2,14,6c4,2,6,8,6,12c0,6-2,10-6,14s-8,6-14,6h-90.1
	c-6,0-10-2-14-6s-6-8-6-14c0-4,2-10,6-12C768.2,223.1,772.2,221.1,778.2,221.1z"/>
<path class="st4" d="M513.9,147h172.2c30,0,56.1,22,64.1,52.1H449.8C455.8,169,481.8,147,513.9,147L513.9,147L513.9,147z"/>
<path class="st3" d="M513.9,145h172.2c18,0,36,8,48.1,20c10,10,16,20,18,34.1h-6c-2-12-8-22-16-30c-12-10-28-18-44-18H513.9
	c-18,0-34,8-46,18c-8,8-12,18-16,30h-6c4-14,10-24,18-34.1C477.9,153,493.9,145,513.9,145L513.9,145L513.9,145z"/>
<path class="st4" d="M345.7,187.1h44c6,0,12,4,14,10h-72.1C333.7,191.1,337.7,187.1,345.7,187.1L345.7,187.1L345.7,187.1z"/>
<path class="st3" d="M389.7,189.1h-44c-4,0-6,2-8,2c0,1.3-0.7,2.7-2,4h64.1c-1.3-1.3-2-2.7-2-4C395.7,191.1,391.7,189.1,389.7,189.1
	L389.7,189.1z M345.7,183.1h44c4,0,8,2,10,4c4,2,6,6,6,10l2,4h-80.1l2-4c0-4,2-8,4-10C337.7,185.1,341.7,183.1,345.7,183.1
	L345.7,183.1L345.7,183.1z"/>
<path class="st3" d="M345.7,179.1h44c6,0,12,2,14,6c4,4,6,8,6,12h-14c0,0,0-2-2-2c0,0-2-2-4-2h-44c-2,0-4,2-6,2v2h-14c0-4,2-8,6-12
	C333.7,181.1,339.7,179.1,345.7,179.1L345.7,179.1z"/>
<path class="st3" d="M389.7,183.1h-44c-6,0-10,2-12,4c-2,2-4,4-4,6l-2,2h10v-2c2,0,2-2,4-2h48.1c2,0,6,0,6,2c2,0,2,2,2,2h8v-2
	c0-2-2-4-4-6c-2,0-2-2-6-4H389.7L389.7,183.1L389.7,183.1z M345.7,177h44c4,0,6,0,10,2c2,0,4,2,6,4c2,2,4,4,6,6c0,4,2,6,2,8v4h-20
	v-4h-52.1v4h-20v-4c0-2,2-4,2-8c2-2,4-4,4-6C333.7,179,337.7,177,345.7,177L345.7,177L345.7,177z"/>
</svg>
