<?xml version="1.0" encoding="iso-8859-1"?>
<!-- Generator: Adobe Illustrator 27.7.0, SVG Export Plug-In . SVG Version: 6.00 Build 0)  -->
<svg version="1.1" id="Layer_1" xmlns="http://www.w3.org/2000/svg" xmlns:xlink="http://www.w3.org/1999/xlink" x="0px" y="0px"
	 viewBox="0 0 488.89 357.78" style="enable-background:new 0 0 488.89 357.78;" xml:space="preserve">
<g>
	<g id="Layer_2_00000135660757109633217550000008463063457720267453_">
		<g>
			<path style="fill:#010101;" d="M361.11,248.34c-80.34-1.45-185.29-1.16-266.22-1.21c-4.97-0.09-10.42,0.69-14.74-2.37
				c-3.79-2.52-6.24-6.92-6.29-11.48c-0.03-0.64-0.01-1.24-0.01-1.86l0.1-59.16c0.03-19.54,0.05-69.83,0.07-88.74
				c0.14-2.4-0.27-8.77,0.29-11.17c0.53-2.5,1.68-4.87,3.41-6.76c2.55-2.93,6.35-4.63,10.24-4.72
				c88.63-1.65,177.56-3.44,266.22-4.83c1.4,0,5.41-0.11,6.93-0.11c7.32-0.12,14.44,4.28,17.52,10.96c1.48,2.97,1.96,6.42,1.9,9.7
				c0.24,20.57,0.95,68.88,1.03,88.74c-0.02,18.94,0.46,49.21,0.39,68.1c-0.18,3.06-1.57,5.96-3.13,8.54
				C374.92,248.55,367.72,248.52,361.11,248.34L361.11,248.34z M361.11,244.49c3.31-0.03,5.24-3.32,5.73-6.23
				c0.32-1.45,0.82-2.66,0.48-4.05c-0.28-0.78-0.21-1.51-0.22-2.33c-0.07-4.49,0.27-31.82,0.24-36.98
				c-0.04-16.79,0.34-42.57,0.46-59.16l0.75-59.16l0.01-0.92c0-0.28,0.02-0.69,0-0.8c0.08-4.01-3.43-7.55-7.44-7.6l-0.46-0.01
				l-0.92-0.01c-90.51-1.4-181.28-3.23-271.77-4.92c-4.67-0.12-9.39,2.57-11.54,6.86c-1.13,2.15-1.45,4.51-1.38,6.95v7.4l0.02,29.58
				c0.1,29.48,0.03,88.84,0.15,118.32c-0.07,2.45,0.15,4.73,1.2,6.92c1.94,4.27,6.4,7.25,11.1,7.34
				C171.43,245.55,277.71,246.09,361.11,244.49L361.11,244.49z"/>
		</g>
		<g>
			<path style="fill:#010101;" d="M301.76,65.76c-41.91-0.78-86.59-1.83-128.33-3.62l-9.17-0.41l-4.58-0.23l-1.15-0.06
				c-0.38-0.01-0.87-0.06-1.28-0.19c-0.96-0.27-2.02-0.95-1.95-2.15c2.18-5.63,4.34-11.27,6.63-16.84
				c3.15-7.17,4.85-16.62,13.07-20.12c3.33-1.65,10.83-1.36,14.47-1.65c16.74-0.66,37.31-1.3,53.96-1.54
				c12.12-0.27,24.24-0.37,36.36-0.35c2.55,0.31,5.09,1.05,7.42,2.23c6.34,3.15,10.52,9.17,12.86,15.61l8.25,20.59l0.41,1.02
				l-0.01,0.94C308.85,62.72,305.47,65.95,301.76,65.76L301.76,65.76z M301.76,55.78c-1.5-0.1-3.18,1.75-3.11,3.2l0.4,1.96
				l-9.04-20.45c-1.89-5.02-5.71-10.11-11.31-10.7c-14.08,0.22-36.37-0.33-53.22-0.68c-8.96-0.21-27.01-0.81-35.97-1.18l-8.91-0.4
				c-7.18-0.46-10.24,6.71-13.12,12.31c-3.63,6.54-7.43,13.17-11.23,19.6l0.05-0.22c0.02,0.35,0.62,0.73,1.24,0.82
				C204.73,58,254.42,56.59,301.76,55.78L301.76,55.78z"/>
		</g>
		<g>
			<path style="fill:#010101;" d="M348.04,63.61c-3.8-0.29-13.61-1.02-17.3-1.28c-2.94-0.25-5.75-0.32-8.68-0.34
				c-2.79,0.01-4.59-1-4.75-4.02c-0.23-2.73-0.18-6.03-0.13-8.77c0.05-1.96-0.13-4.04,0.66-5.9c0.73-1.91,2.07-3.57,3.81-4.64
				c1.68-1.11,3.84-1.52,5.79-1.45c3.86-0.06,7.71-0.12,11.57-0.27c2.89-0.08,8.68-0.36,11.57-0.52c4.16-0.53,8.41,0.56,12.2,2.36
				l0.29,0.14l0.42,0.57c3.31,3.04,5.4,7.33,5.77,11.84c0.31,3.15,0.4,6.24-0.38,9.47c-0.72,2.86-3.69,4.86-6.3,5.12
				C357.47,66.6,352.94,63.98,348.04,63.61L348.04,63.61z M348.11,58.19c4.22-0.21,8.63-0.48,12.59-1.63
				c0.3-0.08,0.26-0.33-0.52,0.33c-0.17,0.17-0.35,0.41-0.49,0.66c-0.1,0.22-0.2,0.4-0.25,0.63c0.06-0.2,0.12-0.43,0.18-0.73
				c0.42-2.27,0.67-5.36,0.87-7.78c0.17-2.14-0.35-5-0.84-7.71l0.72,0.71c-2.8-2.18-6.15-3.58-9.79-3.57
				c-7.49-0.42-15.66-0.71-23.13-0.79c-4.68-0.5-9.17,3.26-9.13,8.03c-0.03,2.64,0.08,5.97,0.28,8.62c0.17,1.41,0.12,3.92,1.17,4.73
				c0.44,0.26,1.38,0.27,2.28,0.22c2.86-0.25,5.82-0.52,8.66-0.63C334.37,59.05,344.32,58.43,348.11,58.19L348.11,58.19z"/>
		</g>
		<g>
			<path style="fill:#010101;" d="M124.5,86.84c0.71,11.31-11.24,16.43-20.6,15.08c-6.13-0.87-12.22-3.78-15.36-9.24
				c-3.32-5.58-0.35-11.85,4.94-14.73C103.34,72.08,122.69,72.14,124.5,86.84L124.5,86.84z M114.87,86.84
				c0.87-5.19-6.17-9.11-10.97-9.79c-4.91-0.75-10.75,0.89-13.6,5.21c-3.06,4.49-0.09,9.49,4.62,11.02
				C101.93,95.68,111.23,93.14,114.87,86.84L114.87,86.84z"/>
		</g>
		<g>
			<path style="fill:#010101;" d="M143.01,171.36c0.21-38.22,22.38-76.17,57.6-92.03c65.8-29.18,131.35,23.41,132.36,92.03
				c1.08,39.14-20.5,79.88-56.74,96.68c-24.26,11-53.37,10.3-77.14-1.39C163.55,249.53,142.02,210.21,143.01,171.36L143.01,171.36z
				 M147.33,171.36c0.22,49.19,38.97,95.98,90.01,94.8c11.89-0.22,23.51-3.37,34.07-8.46c45.46-20.87,65.36-75.87,49.05-122.33
				C301.25,78.5,234.5,51.94,185.2,90.15C160.51,109.16,146.73,140.45,147.33,171.36L147.33,171.36z"/>
		</g>
		<g>
			<path style="fill:#010101;" d="M284.98,163.89c0.74,20.3-4.52,39.79-23.95,49.75c-11.99,6.42-27.39,6.11-38.97-0.91
				c-16.92-9.75-25.27-30.28-24.37-48.84c0.52-12.24,4.6-24.36,12.31-33.9c11.63-14.82,31.73-20.62,48.73-11.56
				C275.19,127.04,284.48,145.69,284.98,163.89L284.98,163.89z M281.38,163.89c0.65-17.43-7.28-36.09-23.03-44.74
				c-23.32-12.75-48.65,3.43-55.13,27.38c-6.46,21.66,2.09,48.62,22.85,58.7c9.53,4.61,20.85,4.3,29.99-0.91
				c4.62-2.51,8.45-6.19,11.94-10.14C275.25,186.02,281.14,175.22,281.38,163.89L281.38,163.89z"/>
		</g>
		<g>
			<path style="fill:#010101;" d="M139.16,61.85c-15.74,0.49-31.65,0.53-47.4-0.06l-0.39-0.02c-0.64-2.88-0.81-5.83-0.13-8.71
				l0.16-0.6l0.5-0.05c11.75-0.77,23.53-0.51,35.3-0.5c4.01,0.19,8.02-0.12,11.98,0.71C142.73,55.17,142.08,59.07,139.16,61.85
				L139.16,61.85z M138.49,60.72c-0.02-0.16-0.11-0.17-0.05-0.31l0.21-0.53l0.42-0.99c0.95-1.92,0.3-3.64-0.51-5.51l0.39,0.19
				c-3.9,0.76-7.83,0.47-11.77,0.66c-7.85,0.06-15.69,0.09-23.53-0.06c-3.92-0.07-7.84-0.08-11.77-0.44l0.66-0.65
				c0.55,2.75,0.33,5.5-0.29,8.22l-0.5-0.51c3.9-0.18,7.78-0.26,11.66-0.33C115.14,60.28,126.75,60.33,138.49,60.72L138.49,60.72z"
				/>
		</g>
		<g>
			<path style="fill:#010101;" d="M121.44,53.3c0.74,2.59,1.85,4.9,1.07,7.65l-0.93-0.37c1.27-2.04,0.95-5.18-0.99-6.75L121.44,53.3
				L121.44,53.3z"/>
		</g>
		<path style="fill:none;" d="M130.79,60.77"/>
		<path style="fill:none;stroke:#010101;stroke-miterlimit:10;" d="M130.02,55.04"/>
		<g>
			<path style="fill:#010101;" d="M135.38,53.4c0.74,2.68,1.56,5.43,0.87,8.23l-0.97-0.23c0.53-2.52,0.2-5.3-0.84-7.67
				C134.44,53.74,135.38,53.4,135.38,53.4L135.38,53.4z"/>
		</g>
		<g>
			<path style="fill:#010101;" d="M98.07,53.39c0.3,2.66,1.02,5.3-0.14,7.87l-0.88-0.48c1.46-1.96,1.63-5.07,0.08-7.03
				C97.13,53.75,98.07,53.39,98.07,53.39L98.07,53.39z"/>
		</g>
		<g>
			<path style="fill:#010101;" d="M126.24,75.8c2.32,35.25,2.53,71.31,2.36,106.66c-0.16,14.23-0.6,28.44-1.65,42.65
				c-0.49,7.11-1.12,14.21-2.05,21.31l-1-0.01c-3.07-27.92-2.88-57.22-2.42-85.34c0.54-28.46,1.44-56.89,3.76-85.29
				C125.24,75.79,126.24,75.8,126.24,75.8L126.24,75.8z"/>
		</g>
		<g>
			<path style="fill:#010101;" d="M76.85,239.28c1.06-2.26,3.21-3.52,5.25-4.68c2.03-1.11,4.18-1.95,6.36-2.66
				c8.9-2.79,18.14-3.82,27.48-2.29c5.25,1.03,12.72,3.11,13.08,9.89c0.12,3.81-0.75,7.96-4.51,9.8c-2.18,1.02-4.28,1.23-6.54,1.27
				c-5.71,0.06-11.34-0.86-16.86-1.61C97.13,248.48,74.87,244.74,76.85,239.28L76.85,239.28z M77.9,239.8
				c-1.03,3.05,8.38,4.01,10.43,4.17c8.59,0.67,17.46-0.56,25.94-1.27c1.88-0.25,3.75-0.36,5.5-0.94c0.39-0.1,0.42-0.21,0.57-0.25
				c-0.06-0.01-0.12,0.01-0.14,0.06c-0.09,0.04-0.23,0.14-0.27,0.27c-0.08,0.07-0.15,0.14-0.16,0.24c-0.02-0.03-0.03-0.06-0.01-0.08
				l0.02-0.39c0.03-0.62,0-1.34,0-2.06c-0.02,0.29,0.07,0.67,0.15,0.88c0.09,0.23,0.18,0.36,0.21,0.41c0.17,0.18-0.36-0.3-1-0.61
				C110.8,236.46,84.48,232.06,77.9,239.8L77.9,239.8z"/>
		</g>
		<g>
			<path style="fill:#010101;" d="M74.55,114.16c3.5-8.47,12.81-9.8,19.77-4.55l-0.55,0.84c-7.29-3.27-13.59-2.58-18.35,4.2
				C75.42,114.65,74.55,114.16,74.55,114.16L74.55,114.16z"/>
		</g>
		<g>
			<path style="fill:#010101;" d="M74.8,149.58c2.21-3.6,5.69-4.18,9.45-2.95l0.15,0.99c-1.75,0.58-3.28-0.02-4.9,0.36
				c-1.5,0.31-2.75,1.26-3.95,2.25C75.56,150.23,74.8,149.58,74.8,149.58L74.8,149.58z"/>
		</g>
		<g>
			<path style="fill:#010101;" d="M74.69,123.51c2.94-2.82,10.18-4.69,12.19,0.16l-0.81,0.59c-0.91-0.4-1.65-0.53-2.51-0.61
				c-2.81-0.3-5.6,0.34-8.43,0.76C75.13,124.41,74.69,123.51,74.69,123.51L74.69,123.51z"/>
		</g>
		<g>
			<path style="fill:#010101;" d="M74.71,166.81c4.81-6.64,13.95-10.18,19.62-2.47l-0.72,0.69c-6.57-5.65-12.36-2.09-18.19,2.48
				C75.42,167.52,74.71,166.81,74.71,166.81L74.71,166.81z"/>
		</g>
		<g>
			<path style="fill:#010101;" d="M74.73,200.54c6.09-7.67,15.93-13.78,23.14-3.75l-0.75,0.67c-7.83-8.14-14.91-2.26-21.67,3.77
				C75.46,201.23,74.73,200.54,74.73,200.54L74.73,200.54z"/>
		</g>
		<g>
			<path style="fill:#010101;" d="M74.57,184.62c0.97-2.63,4.39-2.97,6.66-2.01c0.76,0.27,1.45,0.64,2.11,1.12l-0.48,0.88
				c-2.42-0.67-5.52-1.74-7.42,0.5C75.44,185.11,74.57,184.62,74.57,184.62L74.57,184.62z"/>
		</g>
		<g>
			<path style="fill:#010101;" d="M74.64,222.69c3.82-10.48,15.86-11.4,23.18-3.91l-0.61,0.79c-8.57-4.08-15.51-4.44-21.7,3.62
				C75.51,223.19,74.64,222.69,74.64,222.69L74.64,222.69z"/>
		</g>
		<line style="fill:none;stroke:#010101;stroke-miterlimit:10;" x1="92.53" y1="53.57" x2="92.53" y2="53.57"/>
		<g>
			<path style="fill:#010101;" d="M91.48,62.58c-0.15,0.07-0.48-0.01-0.58-0.19c-0.12-0.21-0.09-0.24-0.09-0.37
				c0.52-2.76,0.44-5.56,0.82-8.33c0.09-0.3,0.27-0.63,0.74-0.6l-0.17,0.77c-1.2,1.5-0.97,6.53-0.5,7.93
				c-0.06-0.08-0.19-0.17-0.3-0.18c-0.12-0.02-0.2,0.01-0.26,0.03L91.48,62.58L91.48,62.58z"/>
		</g>
		<g>
			<path style="fill:#010101;" d="M111.49,54.06c1.32,2.23,1.36,4.95,0.74,7.41l-0.96-0.29c0.15-0.52,0.25-1.11,0.31-1.68
				c0.18-1.66,0.01-3.51-0.93-4.9L111.49,54.06L111.49,54.06z"/>
		</g>
		<g>
			<path style="fill:#010101;" d="M124.6,54.96c0.01-0.07,0.01-0.06-0.01-0.15c-0.11-0.48,0.56-0.78,0.83-0.35
				c0.1,1.36,0.34,2.01,0.8,3.27c0.25,0.85,0.89,2.06,0.85,2.98c-0.02,0.34-0.48,0.67-0.87,0.54l0.32-0.95
				c-0.06,0.01-0.14,0.02-0.19,0.08c0.21-0.77-0.32-3-0.81-4.16c-0.21-0.45-0.49-1-0.87-1.28c0.01,0.02,0.02,0.04,0.03,0.06
				c0.27,0.4,0.92,0.1,0.82-0.36c-0.01-0.06-0.03-0.07,0-0.05l0.04,0.03L124.6,54.96L124.6,54.96z"/>
		</g>
		<g>
			<path style="fill:#010101;" d="M117.12,53.86c0.39,2.43,0.72,4.7,0,7.1l-0.92-0.39c1.15-1.85,1.46-4.55,0-6.33
				C116.2,54.25,117.12,53.86,117.12,53.86L117.12,53.86z"/>
		</g>
		<g>
			<path style="fill:#010101;" d="M129.74,54.28c1.97,1.83,3.29,4.63,2.54,7.38l-0.96-0.29C132.32,58.94,131.36,56.24,129.74,54.28
				L129.74,54.28z"/>
		</g>
		<g>
			<path style="fill:#010101;" d="M104.53,53.8c1.65,1.95,2.19,5.41,0.11,7.31l-0.74-0.67c0.69-0.86,0.96-1.88,0.83-2.94
				c-0.12-1.07-0.65-2.08-1.06-3.18L104.53,53.8L104.53,53.8z"/>
		</g>
		<g>
			<path style="fill:#010101;" d="M351.64,228.19c0.17,10.3-9.46,19.05-19.63,17.16c-6.98-1.13-20.06-6.35-16.03-15.37
				c0.92-1.86,2.37-3.18,3.32-4.99c2.14-3.56,3.17-7.4,5.99-10.74c1.4-1.65,3.44-2.79,5.59-3.17c1.46-0.21,2.98-0.21,4.44-0.04
				C344.03,211.71,351.83,219.17,351.64,228.19L351.64,228.19z M343.16,228.19c0.18-6.16-5.5-11.36-11.4-12.46
				c-5.64-1.02-8.45,6.18-11.39,9.94c-1.04,1.64-2.6,3.06-3.49,4.75c-0.84,1.66-0.84,3.61,0.14,5.19c3.21,4.73,9.96,5.43,15.21,5
				C338.7,240.02,343.18,234.23,343.16,228.19L343.16,228.19z"/>
		</g>
		<g>
			<g>
				<path style="fill:#010101;" d="M313.62,78.31c6.66-1.44,14.41-0.51,20.26,3.52c0.64,0.44,0.67,0.46,1.44,1.08
					c0.82,0.66,1.62,1.36,2.38,2.08c1.71,1.63,3.23,3.41,4.57,5.35c2.61,3.78,4.53,7.59,4.99,12.42c0.35,3.64,1.04,7.25,1.75,10.84
					c0.24,1.23,1.18,2.41,2.54,2.42c1.21,0.01,2.18-1.18,1.95-2.38c-0.68-3.45-1.41-6.95-1.72-10.46
					c-0.44-5.06-2.44-9.78-5.14-14.03c-4.37-6.86-10.83-12.73-18.75-15.01c-5.18-1.5-10.72-1.59-15.99-0.46
					C309.05,74.28,310.95,78.89,313.62,78.31L313.62,78.31z"/>
			</g>
		</g>
		<g>
			<g>
				<path style="fill:#010101;" d="M336,72.72c2.94,0.23,5.12,1.56,7.56,3.12c1.33,0.85,2.66,1.72,4.03,2.52
					c1.3,0.76,2.28,2.04,3.22,3.22c2.32,2.94,4.07,6.26,5.16,9.84c0.44,1.46,0.78,2.94,1.02,4.45c0.24,1.55,0.22,2.94,0.13,4.51
					c-0.13,2.49,4.78,1.78,4.89-0.38c0.4-7.51-2.3-15.02-7.04-20.85c-1.07-1.32-2.21-2.68-3.66-3.56s-2.88-1.8-4.31-2.7
					c-2.96-1.87-5.77-3.36-9.33-3.64c-1.13-0.09-2.64,0.35-3.14,1.48C334.05,71.78,334.96,72.64,336,72.72L336,72.72z"/>
			</g>
		</g>
	</g>
	<g id="Layer_4_00000101802244279570125970000013818492277963885196_">
	</g>
	<g id="Layer_3_00000090973989982644506670000006472374610938587280_">
		<g style="enable-background:new    ;">
			<path style="fill:#010101;" d="M209.759,175.042l0.437-1.59c1.282,1.944,3.177,2.945,5.333,2.945c3.381,0,5.013-2.768,5.013-6.95
				c0-4.535-2.419-6.185-4.896-7.48c-3.119-1.649-5.683-3.593-5.683-9.07c0-4.83,2.098-7.893,5.625-7.893
				c1.632,0,3.498,0.53,4.75,2.121l-0.408,1.531c-0.991-1.296-2.798-1.944-4.343-1.944c-2.973,0-4.692,2.356-4.692,6.185
				c0,4.535,2.332,5.949,4.867,7.304c3.264,1.767,5.712,3.887,5.712,9.247c0,5.183-2.069,8.658-5.945,8.658
				C213.314,178.104,211.158,177.044,209.759,175.042z"/>
			<path style="fill:#010101;" d="M225.527,177.397V145.71h0.699l0.146,8.305c0.816-5.242,3.002-9.012,6.324-9.012
				c3.06,0,5.392,3.24,6.12,9.895c1.107-6.243,3.439-9.895,6.558-9.895c3.964,0,6.354,4.712,6.354,14.195v18.2h-0.845v-18.141
				c0-8.481-2.07-12.546-5.509-12.546c-3.876,0-6.324,6.185-6.324,14.607v16.08h-0.845v-18.141c0-8.481-2.04-12.546-5.508-12.546
				c-4.022,0-6.324,6.185-6.324,15.02v15.667H225.527z"/>
			<path style="fill:#010101;" d="M265.545,170.447c4.4,0,6.469,4.3,6.469,9.188c0,6.126-2.447,10.248-8.131,10.248
				c-5.566,0-7.985-4.122-7.985-10.248c0-3.122,0.524-6.125,2.099-8.305c-1.254-1.061-1.836-2.769-1.836-5.419
				c0-2.533,0.729-4.889,2.068-5.713c-0.611-1.532-0.932-3.475-0.932-5.654c0-5.596,1.981-9.542,6.557-9.542
				c1.225,0,2.273,0.294,3.148,0.825v-0.589c0-3.181,1.107-5.654,3.584-5.772v2.238c-1.895,0.177-2.623,1.001-2.739,4.771
				c1.778,1.649,2.594,4.535,2.594,8.069c0,5.713-2.011,9.659-6.558,9.659c-2.331,0-4.021-1.001-5.188-2.768
				c-0.903,0.707-1.604,2.061-1.604,4.417c0,3.18,1.283,4.594,3.673,4.594H265.545z M271.082,179.636c0-3.652-1.604-7.48-5.334-7.48
				h-3.497c-1.282,0-2.273-0.118-3.235-0.412c-1.34,1.59-2.186,4.064-2.186,7.893c0,5.065,1.953,8.54,7.053,8.54
				C269.07,188.176,271.082,184.701,271.082,179.636z M258.229,154.545c0,4.594,1.429,7.951,5.654,7.951
				c4.168,0,5.625-3.357,5.625-7.951c0-4.653-1.457-7.834-5.625-7.834C259.657,146.711,258.229,149.892,258.229,154.545z"/>
		</g>
		<path style="fill:#010101;" d="M209.76,175.04c-0.12-0.46-0.2-1.11,0.04-1.79c0.85-2.42,4.96-2.67,5.08-2.34
			c0.14,0.36-3.95,2.32-3.61,3.45c0.04,0.14,0.17,0.32,0.09,0.51c-0.14,0.33-0.77,0.38-1.32,0.37"/>
		<path style="fill:#010101;" d="M269.92,139.5c2.31-0.15,4.33,0.29,4.91,1c1.04,1.28-3.03,2.95-3.27,2.86
			c-0.22-0.08,2.23-1.75,1.54-2.11c-0.41-0.21-1.76,0.13-3.08,0.55"/>
		<path style="fill:#010101;" d="M251.73,177.39c-0.05-0.06,3.54-3.66,4.01-3.28c0.48,0.39-2.2,5.52-3.82,5.18
			c-0.65-0.14-1.07-1.13-1.03-1.9c0.12-2.35,4.64-3.63,4.85-3.28C255.96,174.48,251.78,177.46,251.73,177.39z"/>
		<path style="fill:#010101;" d="M225.49,153.9c0.23-1.05,0.38-2.6-0.46-3.8c-1.06-1.51-3.06-1.52-3.11-2.29
			c-0.03-0.42,0.52-1.1,3.61-2.1"/>
		<path style="fill:#010101;" d="M220.24,146.07c-2.01-0.71-2.56-0.85-2.58-0.79c-0.04,0.11,1.96,0.7,3.04,2.47
			c0.28,0.47,0.65,1.25,0.44,1.43c-0.22,0.19-0.98-0.36-1.21-0.53"/>
		<path style="fill:#010101;" d="M226.37,154.01c1.04,2.55,2.48,7.07,2.27,12.82c-0.17,4.58-1.32,8.23-2.27,10.56"/>
		<path style="fill:#010101;" d="M238.82,156.72c0.71,3.57,1.25,8.05,1.04,13.2c-0.11,2.74-0.42,5.25-0.81,7.47"/>
		<path style="fill:#010101;" d="M249.07,148.95"/>
		<path style="fill:#010101;" d="M250.58,154.73"/>
		<path style="fill:#010101;" d="M257.4,166.13c-0.27-2.66,1.44-4.63,1.3-4.7c-0.17-0.09-2.94,2.58-2.3,5.63
			c0.55,2.6,3.29,4,3.49,3.81C260.08,170.69,257.69,169,257.4,166.13z"/>
		<path style="fill:#010101;" d="M267.26,188.05c-3.41,1.74-6.9,0.44-7,0.9c-0.08,0.35,1.89,1.19,3.92,1.58
			c1.89,0.37,3.95,0.77,5.72-0.38c1.13-0.73,1.7-1.8,2.18-2.71c0.21-0.4,0.79-1.56,1.05-3.31c0.61-4.11-1.06-7.89-1.36-7.83
			c-0.14,0.03,0.13,0.88,0.08,2.71c-0.05,1.83-0.13,4.47-1.81,6.7C269.05,187.05,267.83,187.76,267.26,188.05z"/>
		<g style="enable-background:new    ;">
			<path style="fill:#010101;" d="M22.875,306.885l0.647-1.59c1.898,1.943,4.702,2.945,7.894,2.945c5.003,0,7.419-2.769,7.419-6.95
				c0-4.535-3.581-6.185-7.247-7.48c-4.616-1.649-8.412-3.593-8.412-9.07c0-4.829,3.106-7.893,8.325-7.893
				c2.416,0,5.176,0.53,7.031,2.12l-0.604,1.531c-1.466-1.295-4.141-1.943-6.427-1.943c-4.4,0-6.945,2.355-6.945,6.185
				c0,4.535,3.451,5.948,7.204,7.304c4.832,1.767,8.455,3.887,8.455,9.247c0,5.183-3.063,8.658-8.8,8.658
				C28.138,309.948,24.946,308.888,22.875,306.885z"/>
			<path style="fill:#010101;" d="M65.493,277.554h1.251v28.095c0,9.601-2.718,16.079-11.302,16.079
				c-2.372,0-4.96-0.589-6.427-1.472v-1.826c1.855,1.119,4.529,1.59,6.427,1.59c7.679,0,10.051-5.713,10.051-14.371v-5.654
				c-1.294,5.006-4.443,8.246-9.145,8.246c-6.514,0-10.31-5.479-10.31-14.784v-15.902h1.25v15.902
				c0,8.364,3.192,13.075,9.102,13.075s9.102-5.889,9.102-13.664V277.554z"/>
			<path style="fill:#010101;" d="M74.248,309.241v-31.688h1.035l0.216,8.305c1.208-5.242,4.443-9.012,9.36-9.012
				c4.53,0,7.98,3.239,9.059,9.896c1.639-6.244,5.09-9.896,9.706-9.896c5.867,0,9.404,4.712,9.404,14.194v18.2h-1.251v-18.141
				c0-8.481-3.062-12.546-8.153-12.546c-5.737,0-9.361,6.185-9.361,14.607v16.079h-1.251v-18.141c0-8.481-3.02-12.546-8.153-12.546
				c-5.953,0-9.36,6.185-9.36,15.02v15.667H74.248z"/>
			<path style="fill:#010101;" d="M119.324,294.811v-17.257h1.25v17.257c0,8.482,3.365,13.43,9.318,13.43
				c5.996,0,9.317-4.947,9.317-13.43v-17.257h1.251v17.257c0,9.424-3.969,15.138-10.568,15.138
				C123.292,309.948,119.324,304.234,119.324,294.811z"/>
			<path style="fill:#010101;" d="M146.929,302.527v-36.871l1.251-0.707v37.695c0,3.652,0.819,5.596,3.192,5.596
				c0.992,0,1.812-0.354,2.416-1.061v1.885c-0.302,0.295-1.208,0.884-2.588,0.884C149,309.948,146.929,308.534,146.929,302.527z"/>
			<path style="fill:#010101;" d="M184.198,307.18v1.885c-0.302,0.295-1.208,0.884-2.588,0.884c-2.2,0-4.271-1.414-4.271-7.421
				v-1.709c-1.38,4.947-4.529,9.13-9.792,9.13c-6.772,0-11.043-6.597-11.043-16.551c0-9.601,4.098-16.551,11.258-16.551
				c4.141,0,7.549,2.592,9.577,6.361v-0.647l0.215-5.007h1.122v25.091c0,3.652,0.733,5.596,3.106,5.596
				C182.775,308.24,183.594,307.887,184.198,307.18z M177.34,293.397v-7.539c-1.984-4.358-5.436-7.304-9.577-7.304
				c-6.341,0-9.878,5.949-9.878,14.843c0,9.07,3.882,14.843,9.663,14.843C173.673,308.24,177.34,301.762,177.34,293.397z"/>
			<path style="fill:#010101;" d="M198.775,309.241v-31.688h1.035l0.216,8.305c1.208-5.242,4.443-9.012,9.36-9.012
				c4.53,0,7.98,3.239,9.059,9.896c1.639-6.244,5.09-9.896,9.706-9.896c5.867,0,9.404,4.712,9.404,14.194v18.2h-1.251v-18.141
				c0-8.481-3.062-12.546-8.153-12.546c-5.737,0-9.361,6.185-9.361,14.607v16.079h-1.251v-18.141c0-8.481-3.02-12.546-8.153-12.546
				c-5.953,0-9.36,6.185-9.36,15.02v15.667H198.775z"/>
			<path style="fill:#010101;" d="M243.462,293.397c0-9.718,4.313-16.551,11.302-16.551c6.772,0,10.914,6.833,10.914,15.962
				c0,0.117,0,0.589-0.044,1.119h-20.835c0,8.54,3.84,14.194,10.525,14.194c3.105,0,6.082-1.06,8.714-3.534l0.647,1.591
				c-2.459,2.297-6.126,3.77-9.361,3.77C247.775,309.948,243.462,303.057,243.462,293.397z M264.297,292.219
				c-0.259-7.951-4.012-13.664-9.533-13.664c-5.607,0-9.878,5.772-9.878,13.664H264.297z"/>
			<path style="fill:#010101;" d="M292.075,309.301c-0.562-2.238-0.905-4.889-0.905-8.482c-1.381,4.947-4.573,9.13-9.965,9.13
				c-6.6,0-10.871-6.597-10.871-16.197c0-9.954,4.271-16.904,11.776-16.904c3.839,0,6.815,1.767,9.06,4.063v-15.254l1.25-0.707
				v35.045c0,3.121,0.26,6.537,0.949,9.307H292.075z M291.17,293.397v-10.603c-2.373-2.473-5.178-4.24-9.06-4.24
				c-6.687,0-10.396,5.949-10.396,15.196c0,8.717,3.882,14.489,9.49,14.489C287.502,308.24,291.17,301.762,291.17,293.397z"/>
			<path style="fill:#010101;" d="M299.579,270.662v-4.711h2.286v4.711H299.579z M300.097,309.241v-31.688h1.251v31.688H300.097z"/>
			<path style="fill:#010101;" d="M335.123,307.18v1.885c-0.303,0.295-1.208,0.884-2.588,0.884c-2.201,0-4.271-1.414-4.271-7.421
				v-1.709c-1.38,4.947-4.529,9.13-9.791,9.13c-6.773,0-11.043-6.597-11.043-16.551c0-9.601,4.098-16.551,11.258-16.551
				c4.141,0,7.549,2.592,9.576,6.361v-0.647l0.216-5.007h1.122v25.091c0,3.652,0.732,5.596,3.105,5.596
				C333.699,308.24,334.519,307.887,335.123,307.18z M328.264,293.397v-7.539c-1.984-4.358-5.436-7.304-9.576-7.304
				c-6.341,0-9.878,5.949-9.878,14.843c0,9.07,3.882,14.843,9.663,14.843C324.598,308.24,328.264,301.762,328.264,293.397z"/>
			<path style="fill:#010101;" d="M362.812,302.291c6.514,0,9.577,4.3,9.577,9.188c0,6.126-3.624,10.248-12.035,10.248
				c-8.239,0-11.819-4.122-11.819-10.248c0-3.122,0.776-6.126,3.105-8.305c-1.854-1.061-2.717-2.769-2.717-5.419
				c0-2.533,1.078-4.889,3.062-5.713c-0.906-1.531-1.381-3.475-1.381-5.654c0-5.596,2.934-9.542,9.705-9.542
				c1.812,0,3.365,0.294,4.66,0.825v-0.59c0-3.18,1.639-5.654,5.305-5.771v2.238c-2.803,0.176-3.882,1.001-4.055,4.771
				c2.632,1.649,3.84,4.535,3.84,8.069c0,5.713-2.977,9.659-9.706,9.659c-3.451,0-5.953-1.001-7.679-2.769
				c-1.337,0.707-2.372,2.062-2.372,4.418c0,3.18,1.897,4.594,5.435,4.594H362.812z M371.01,311.479c0-3.651-2.373-7.48-7.895-7.48
				h-5.176c-1.898,0-3.365-0.118-4.789-0.412c-1.984,1.591-3.234,4.063-3.234,7.893c0,5.065,2.89,8.54,10.438,8.54
				C368.033,320.02,371.01,316.545,371.01,311.479z M351.986,286.389c0,4.594,2.113,7.951,8.368,7.951
				c6.169,0,8.325-3.357,8.325-7.951c0-4.653-2.156-7.834-8.325-7.834C354.1,278.555,351.986,281.735,351.986,286.389z"/>
			<path style="fill:#010101;" d="M377.435,277.554h1.078l0.216,8.011c1.553-6.244,4.745-8.718,9.016-8.718
				c0.82,0,1.251,0.118,1.639,0.235v1.885c-0.258-0.059-0.948-0.176-1.639-0.176c-5.737,0-9.059,5.83-9.059,14.665v15.785h-1.251
				V277.554z"/>
			<path style="fill:#010101;" d="M391.67,293.397c0-9.896,4.098-16.551,11.344-16.551c7.248,0,11.346,6.655,11.346,16.551
				c0,9.836-4.098,16.551-11.346,16.551C395.768,309.948,391.67,303.233,391.67,293.397z M412.979,293.397
				c0-8.835-3.537-14.843-9.965-14.843c-6.427,0-9.964,6.008-9.964,14.843s3.537,14.843,9.964,14.843
				C409.441,308.24,412.979,302.232,412.979,293.397z"/>
			<path style="fill:#010101;" d="M420.268,294.811v-17.257h1.25v17.257c0,8.482,3.365,13.43,9.318,13.43
				c5.996,0,9.316-4.947,9.316-13.43v-17.257h1.252v17.257c0,9.424-3.969,15.138-10.568,15.138
				C424.235,309.948,420.268,304.234,420.268,294.811z"/>
			<path style="fill:#010101;" d="M469.916,293.044c0,9.954-4.271,16.904-11.776,16.904c-3.839,0-6.815-1.767-9.059-4.064v15.138
				h-1.208v-43.468h0.992l0.216,8.128v0.295c1.423-4.947,4.572-9.13,9.964-9.13C465.646,276.847,469.916,283.443,469.916,293.044z
				 M468.535,293.044c0-8.717-3.882-14.489-9.49-14.489c-6.297,0-9.964,6.479-9.964,14.843v10.602
				c2.372,2.474,5.177,4.241,9.059,4.241C464.826,308.24,468.535,302.291,468.535,293.044z"/>
		</g>
	</g>
</g>
</svg>
