<?xml version="1.0" standalone="no"?>
<!DOCTYPE svg PUBLIC "-//W3C//DTD SVG 20010904//EN"
 "http://www.w3.org/TR/2001/REC-SVG-20010904/DTD/svg10.dtd">
<svg version="1.0" xmlns="http://www.w3.org/2000/svg"
 width="978.000000pt" height="978.000000pt" viewBox="0 0 978.000000 978.000000"
 preserveAspectRatio="xMidYMid meet">
<metadata>
Created by potrace 1.14, written by Peter Selinger 2001-2017
</metadata>
<g transform="translate(0.000000,978.000000) scale(0.100000,-0.100000)"
fill="#000000" stroke="none">
<path d="M4907 8093 c-1 -1 -137 -4 -302 -8 -372 -9 -608 -16 -925 -29 -145
-7 -223 -36 -284 -107 -45 -53 -79 -123 -156 -319 -33 -85 -64 -163 -70 -172
-5 -10 -10 -23 -10 -28 0 -6 -9 -29 -19 -51 -11 -22 -23 -53 -26 -69 -4 -17
-12 -30 -18 -31 -7 0 -71 -2 -143 -4 l-131 -3 5 49 c4 44 2 52 -24 76 -37 33
-25 32 -469 32 -414 0 -492 -2 -507 -17 -7 -7 -11 -43 -10 -85 l1 -73 -39 -1
c-121 -2 -216 -60 -267 -163 -31 -61 -32 -68 -32 -189 -1 -342 -1 -660 0 -668
1 -4 1 -10 0 -13 -1 -3 -2 -554 -3 -1225 -1 -1321 -3 -1272 54 -1351 56 -78
119 -110 235 -118 43 -3 89 -8 103 -11 14 -4 36 -8 50 -11 14 -3 36 -7 50 -10
14 -3 47 -7 74 -9 26 -3 56 -7 66 -10 22 -7 134 -16 229 -19 78 -2 156 17 185
47 10 9 20 17 24 18 4 1 207 2 452 3 l444 1 51 -49 c105 -101 255 -214 387
-290 118 -69 395 -176 480 -187 2 0 21 -4 43 -10 22 -5 58 -12 80 -15 22 -3
51 -8 65 -11 45 -10 393 -12 450 -2 30 5 71 11 90 13 19 3 46 7 60 10 337 73
603 213 850 446 98 93 60 84 338 81 136 -1 369 -4 517 -7 149 -2 276 -4 283
-4 6 0 20 0 30 0 9 0 53 1 97 1 150 0 214 19 276 81 36 36 84 125 94 174 3 16
5 166 5 334 -6 1148 -9 1484 -25 2660 -2 140 -9 277 -15 305 -22 96 -96 198
-176 241 -33 18 -34 20 -35 84 -1 89 -6 117 -34 177 -33 73 -72 121 -116 144
-49 24 -144 46 -189 43 -55 -4 -344 -15 -455 -18 -136 -3 -186 -27 -232 -111
-12 -23 -17 -60 -18 -155 l-1 -125 -89 0 -89 0 -88 220 c-98 247 -100 250
-144 321 -51 81 -119 143 -203 183 l-76 36 -373 0 c-206 0 -374 -1 -375 -2z
m-962 -188 c140 -6 291 -10 675 -20 113 -3 382 -7 598 -10 l393 -3 42 -26 c59
-34 101 -86 142 -174 19 -41 35 -75 35 -78 0 -2 11 -28 25 -59 14 -30 36 -80
50 -110 14 -31 25 -60 25 -65 0 -6 -47 -10 -112 -11 -220 -1 -944 -19 -1423
-35 -121 -4 -277 -7 -347 -8 -71 -1 -128 -3 -128 -6 0 -3 -44 -5 -98 -6 -184
-2 -657 -16 -662 -19 -3 -2 -12 0 -19 4 -11 7 9 53 59 131 5 8 35 60 66 115
31 55 65 112 75 127 10 15 19 34 19 42 0 8 4 17 9 21 6 3 20 26 33 52 28 56
89 120 131 138 32 14 62 14 412 0z m2877 -209 c216 -7 265 -13 318 -39 60 -30
73 -68 67 -200 -3 -54 -7 -100 -9 -103 -3 -2 -162 -7 -354 -10 -396 -6 -452
-6 -463 0 -4 3 -9 60 -10 128 l-2 123 32 38 c17 20 46 45 64 55 36 18 41 18
357 8z m-4036 -337 c9 -45 -4 -84 -29 -87 -21 -1 -24 4 -33 58 -10 59 -10 59
16 62 31 4 39 -2 46 -33z m-836 17 c0 -8 5 -18 11 -21 6 -4 9 0 7 11 -3 16 4
19 48 21 44 1 53 -2 63 -20 17 -32 20 -59 10 -84 -7 -20 -15 -23 -64 -23 -50
0 -55 2 -56 23 l0 22 -11 -22 c-6 -13 -18 -23 -27 -24 -9 0 -30 -2 -47 -4
l-31 -3 1 69 1 69 48 0 c34 0 47 -4 47 -14z m272 -11 c3 -11 6 -39 7 -61 l1
-41 -60 -2 -60 -1 6 39 c3 21 1 47 -5 58 -14 28 -9 31 52 29 43 -1 53 -5 59
-21z m115 -10 l13 -30 -2 29 c-3 27 0 30 30 31 19 1 40 -5 48 -12 11 -12 14
-12 14 -1 0 18 247 19 258 0 5 -6 9 -32 11 -57 2 -44 1 -45 -29 -45 -23 0 -30
4 -30 19 0 11 -5 23 -12 27 -8 5 -9 0 -5 -15 7 -28 -23 -41 -70 -31 -17 4 -34
5 -37 3 -2 -3 -20 -6 -39 -7 -32 -1 -34 1 -31 24 4 23 3 24 -7 5 -7 -11 -13
-22 -15 -23 -1 -2 -21 -5 -43 -7 -40 -3 -41 -2 -42 28 l-1 32 -10 -31 c-9 -29
-14 -32 -46 -30 -33 1 -37 4 -39 31 -1 17 -4 42 -7 57 -6 29 1 34 47 33 24 -1
34 -7 44 -30z m-217 -140 c337 -5 696 -12 1090 -20 233 -5 501 -10 1070 -20
140 -2 374 -7 520 -10 146 -3 409 -7 585 -10 176 -3 421 -8 545 -10 124 -2
401 -7 615 -10 706 -11 709 -11 735 -25 84 -43 92 -67 90 -293 -4 -559 -6
-637 -13 -637 -5 0 -5 -5 -1 -11 4 -6 6 -59 5 -118 -4 -308 -12 -1199 -15
-1736 -3 -675 -3 -670 -68 -716 -27 -20 -45 -22 -251 -25 l-222 -3 51 28 c84
49 154 142 171 229 7 38 7 122 0 154 -19 92 -118 202 -215 239 -69 26 -175 35
-217 19 -16 -6 -32 -11 -35 -11 -3 0 -16 -10 -29 -22 -15 -14 -22 -16 -18 -7
3 8 24 71 46 140 68 210 102 422 102 634 0 109 -8 266 -16 306 -3 14 -8 45
-11 70 -7 47 -8 57 -25 130 -25 110 -52 208 -69 245 -5 11 -25 61 -45 110 -97
237 -244 460 -427 645 -109 110 -143 141 -218 195 -30 22 -61 45 -68 52 -6 6
-21 15 -32 18 -11 3 -20 10 -20 15 0 4 -8 10 -17 14 -10 3 -40 19 -68 36 -161
97 -425 192 -596 215 -128 16 -168 19 -284 19 -121 -1 -240 -9 -275 -19 -8 -2
-34 -7 -57 -10 -103 -14 -308 -81 -455 -149 -71 -33 -182 -97 -186 -108 -2 -4
-8 -8 -14 -8 -12 0 -114 -71 -173 -121 -81 -67 -242 -236 -307 -321 -70 -91
-164 -241 -215 -343 -38 -76 -123 -287 -129 -322 -3 -15 -7 -30 -10 -35 -3 -4
-7 -16 -9 -25 -2 -10 -13 -60 -24 -110 -12 -51 -23 -109 -26 -130 -3 -21 -8
-60 -12 -88 -9 -62 -10 -408 -1 -490 6 -58 21 -148 42 -250 12 -61 65 -232 86
-280 5 -11 23 -54 40 -95 36 -86 109 -225 151 -287 16 -23 29 -46 29 -51 0 -6
3 -12 8 -14 4 -1 32 -37 62 -78 30 -41 70 -90 88 -109 17 -20 32 -38 32 -41 0
-11 -835 -7 -842 4 -4 6 -3 15 2 21 5 5 8 40 7 77 -2 52 -7 73 -26 98 -22 31
-23 37 -16 129 13 182 24 385 31 581 12 342 6 1486 -11 1895 -8 202 -15 336
-21 445 -3 63 -7 121 -7 128 0 6 -6 12 -12 12 -8 0 -13 -18 -14 -47 -5 -124
-11 -145 -29 -94 -21 61 -114 139 -187 157 -118 30 -245 20 -355 -29 -25 -11
-49 -19 -53 -18 -5 1 -32 -23 -61 -53 -58 -59 -79 -114 -70 -176 28 -176 276
-301 497 -251 94 22 181 82 217 150 l19 36 -4 -95 c-3 -52 -7 -138 -9 -190
-24 -457 -39 -1053 -39 -1570 0 -438 6 -800 13 -800 3 0 7 -30 8 -66 3 -61 1
-66 -15 -59 -57 25 -195 42 -308 39 -66 -2 -131 -5 -145 -7 -14 -3 -43 -8 -65
-11 -128 -21 -306 -95 -349 -147 -14 -16 -27 -29 -29 -29 -16 0 -30 77 -32
181 -2 117 -1 122 24 153 37 44 50 54 108 82 66 32 149 31 242 -3 81 -29 99
-16 34 25 -62 39 -108 57 -156 61 -48 3 -134 -17 -160 -38 -34 -28 -62 -56
-77 -80 -15 -22 -16 -8 -15 173 l0 197 59 49 c124 102 214 128 298 87 24 -11
50 -29 59 -39 19 -21 29 -23 29 -5 0 21 -69 79 -110 93 -90 31 -199 -12 -300
-119 l-35 -38 -1 150 -1 150 28 12 c17 6 49 9 78 5 65 -8 74 8 16 27 -43 15
-54 15 -101 2 -21 -7 -21 -5 -21 147 l1 153 36 27 c53 39 130 76 170 81 43 5
96 -9 132 -35 37 -25 54 -14 25 17 -84 88 -215 80 -326 -20 l-38 -35 0 159 0
159 44 21 c24 12 63 21 88 21 49 0 66 14 36 29 -30 16 -110 5 -135 -18 -12
-12 -25 -21 -28 -21 -6 0 -9 448 -2 470 5 18 45 24 157 22 74 -1 77 -1 67 18
-13 24 -42 40 -78 44 -29 3 -120 -20 -138 -35 -8 -7 -12 12 -12 68 -1 74 1 80
33 119 66 81 162 106 283 73 35 -9 65 -12 68 -7 3 4 -21 20 -52 35 -113 52
-221 34 -296 -49 l-36 -40 0 403 c0 222 4 409 8 414 5 6 8 12 9 15 1 46 91
143 144 156 4 1 8 2 10 4 1 1 17 3 35 5 19 2 36 6 38 8 3 2 17 3 32 1 15 -2
169 -6 342 -9z m2756 -199 c39 -3 91 -10 115 -15 24 -5 60 -12 79 -15 19 -3
51 -10 70 -15 19 -6 51 -14 70 -19 100 -27 322 -129 418 -193 24 -16 45 -29
48 -29 5 0 81 -57 94 -70 3 -3 23 -18 45 -35 49 -36 194 -180 255 -253 113
-136 255 -378 314 -537 24 -65 84 -263 90 -295 3 -14 9 -50 15 -80 37 -194 43
-455 15 -650 -5 -33 -42 -214 -48 -235 -2 -5 -6 -23 -10 -40 -12 -45 -73 -220
-85 -241 -5 -11 -21 -46 -36 -78 -78 -179 -224 -387 -386 -547 l-107 -107
-104 -2 c-56 -1 -552 -3 -1102 -4 l-998 -2 -87 86 c-90 89 -211 231 -211 248
0 6 -4 12 -8 14 -9 3 -72 93 -72 102 0 3 -11 21 -24 41 -33 48 -119 226 -146
300 -31 87 -60 175 -64 199 -3 12 -13 59 -25 106 -18 77 -28 143 -36 240 -5
54 -5 341 0 380 12 89 15 117 19 136 2 12 7 39 10 59 15 91 62 254 105 365 31
78 94 214 103 220 4 3 11 17 17 32 16 42 117 192 189 281 91 113 213 232 307
302 22 17 42 32 45 35 5 5 79 55 111 75 51 31 196 105 207 105 6 0 12 5 12 12
0 6 3 9 6 5 4 -3 20 1 36 9 17 9 37 17 46 19 10 2 33 9 52 16 44 15 62 21 75
25 10 3 144 32 179 40 10 2 53 6 94 9 42 3 77 7 79 8 4 4 142 0 229 -7z
m-2705 -119 c60 -28 102 -68 118 -110 17 -43 14 -54 -23 -95 -105 -115 -320
-141 -430 -50 -36 29 -59 84 -51 123 2 11 4 25 4 30 1 6 18 28 39 51 32 35 61
52 132 78 38 14 157 -1 211 -27z m4542 -2772 c94 -44 151 -134 149 -231 -2
-63 -20 -108 -67 -161 -60 -69 -161 -94 -287 -71 -100 18 -178 79 -178 138 0
32 36 110 51 110 5 0 9 6 9 13 0 7 10 23 23 37 12 14 28 36 35 51 23 44 95
121 125 134 34 14 84 7 140 -20z m-363 -428 c33 -38 107 -82 177 -106 42 -14
51 -20 33 -21 -77 -6 -420 -6 -418 0 2 3 39 53 83 112 l79 106 11 -32 c6 -17
22 -44 35 -59z m-4315 48 c80 -10 99 -13 105 -15 3 -1 8 -2 11 -2 11 2 150
-37 196 -54 23 -8 44 -21 46 -29 7 -15 -13 -21 -98 -30 -33 -3 -78 -8 -100
-10 -174 -19 -383 -25 -460 -13 -27 4 -66 10 -85 13 -40 6 -84 35 -88 58 -4
18 66 62 113 72 99 22 235 26 360 10z m3288 -226 c240 -1 437 -3 437 -5 0 -7
-129 -94 -139 -94 -6 0 -11 -4 -11 -9 0 -5 -12 -14 -27 -20 -16 -5 -52 -24
-80 -40 -29 -17 -53 -28 -53 -24 0 3 -8 -1 -17 -9 -10 -8 -40 -23 -68 -33 -27
-10 -55 -22 -60 -26 -16 -12 -235 -76 -300 -88 -175 -32 -404 -34 -564 -5 -20
4 -43 8 -51 9 -97 18 -249 70 -370 126 -141 66 -352 205 -331 218 8 6 616 6
1634 0z"/>
<path d="M2496 7367 c3 -10 9 -15 12 -12 3 3 0 11 -7 18 -10 9 -11 8 -5 -6z"/>
<path d="M2616 7347 c3 -10 9 -15 12 -12 3 3 0 11 -7 18 -10 9 -11 8 -5 -6z"/>
<path d="M6708 7070 c-32 -26 -15 -51 48 -65 51 -12 204 -101 237 -138 50 -57
82 -114 126 -220 14 -36 24 -99 30 -199 1 -22 48 -24 76 -4 27 19 24 118 -5
215 -46 153 -124 257 -250 335 -134 83 -222 109 -262 76z"/>
<path d="M6262 7000 c-45 -10 -54 -22 -46 -54 8 -35 34 -48 81 -39 44 8 155 7
196 -1 15 -3 39 -8 53 -11 55 -12 143 -66 206 -127 129 -125 179 -228 202
-413 3 -22 7 -49 9 -60 3 -11 8 -40 12 -65 11 -71 54 -103 86 -64 10 13 10 29
0 89 -18 109 -19 117 -25 160 -16 111 -47 188 -116 289 -112 165 -254 265
-419 296 -62 12 -191 12 -239 0z"/>
<path d="M4674 6169 c-38 -9 -70 -17 -71 -18 -2 -1 -11 -4 -20 -7 -202 -68
-387 -237 -500 -459 -34 -67 -82 -190 -74 -190 1 0 -3 -13 -9 -30 -12 -30 -15
-43 -26 -100 -18 -96 -24 -291 -12 -375 5 -30 10 -66 12 -80 2 -14 9 -37 15
-52 6 -16 9 -28 6 -28 -2 0 3 -19 11 -42 9 -24 17 -52 20 -63 13 -64 163 -312
202 -335 10 -5 13 -10 9 -10 -10 0 108 -106 143 -129 14 -8 28 -20 32 -26 4
-5 8 -6 8 -2 0 5 12 0 28 -11 45 -33 141 -72 211 -87 11 -3 31 -7 44 -11 47
-11 216 -10 289 2 142 25 321 115 429 217 80 76 165 207 203 312 10 28 20 57
23 65 8 21 10 28 22 85 6 28 13 61 16 75 25 121 20 432 -9 528 -3 9 -7 28 -10
42 -8 46 -48 154 -87 233 -117 239 -316 415 -550 487 -95 29 -257 33 -355 9z
m251 -3 c65 -7 129 -27 213 -67 251 -120 433 -392 480 -719 8 -56 8 -254 0
-295 -33 -167 -115 -332 -235 -472 -131 -155 -240 -236 -379 -282 -54 -18
-142 -35 -169 -33 -5 0 -44 3 -85 5 -206 13 -411 143 -552 350 -39 57 -106
191 -113 226 -2 9 -8 30 -15 46 -44 115 -58 381 -26 520 53 233 121 362 269
508 43 42 82 77 87 77 5 0 15 7 23 15 19 19 151 85 170 85 7 0 17 3 21 8 4 4
11 7 14 8 4 0 19 4 35 8 70 20 153 24 262 12z"/>
</g>
</svg>
